<?xml version="1.0" standalone="no"?>
<!DOCTYPE svg PUBLIC "-//W3C//DTD SVG 20010904//EN"
 "http://www.w3.org/TR/2001/REC-SVG-20010904/DTD/svg10.dtd">
<svg version="1.0" xmlns="http://www.w3.org/2000/svg"
 width="127.000000pt" height="300.000000pt" viewBox="0 0 127.000000 300.000000"
 preserveAspectRatio="xMidYMid meet">
<metadata>
Created by potrace 1.10, written by Peter Selinger 2001-2011
</metadata>
<g transform="translate(0.000000,300.000000) scale(0.050000,-0.050000)"
fill="#000000" stroke="none">
<path d="M1230 5915 c-4 -14 -11 -196 -15 -405 l-8 -380 -234 -6 -233 -5 -2
-145 c-3 -236 -7 -242 -163 -254 -73 -5 -144 -21 -157 -34 -19 -19 -27 -549
-34 -2285 l-9 -2259 -153 -6 c-137 -5 -152 -10 -152 -46 0 -40 15 -40 1205
-45 l1205 -5 0 50 c0 54 18 50 -260 58 l-50 2 -5 2258 c-6 2551 13 2318 -189
2308 l-136 -6 0 181 c0 230 1 229 -252 229 -294 0 -268 -40 -268 410 0 333 -4
387 -32 398 -43 17 -48 16 -58 -13z m495 -1030 c5 -74 5 -142 1 -150 -5 -8
-206 -15 -447 -15 l-439 0 0 137 c0 176 -37 163 451 163 l424 0 10 -135z m310
-2496 l5 -2239 -770 -7 -770 -7 5 2233 5 2233 540 0 c297 0 558 8 580 17 22
10 121 16 220 14 l180 -5 5 -2239z"/>
<path d="M844 4255 c-16 -19 -40 -3597 -26 -3810 1 -14 25 -25 52 -25 l50 0 1
215 c1 118 9 971 18 1895 9 993 8 1694 -2 1715 -22 41 -63 45 -93 10z"/>
<path d="M1246 4264 c-32 -20 -58 -3744 -26 -3803 15 -28 38 -41 66 -37 l44 6
5 1904 c6 2051 8 1990 -89 1930z"/>
<path d="M1613 4209 c-20 -50 -15 -3735 5 -3766 9 -15 34 -24 54 -20 37 7 38
64 38 1907 l0 1900 -42 6 c-25 4 -48 -7 -55 -27z"/>
</g>
</svg>
