<?xml version="1.0" standalone="no"?>
<!DOCTYPE svg PUBLIC "-//W3C//DTD SVG 20010904//EN"
 "http://www.w3.org/TR/2001/REC-SVG-20010904/DTD/svg10.dtd">
<svg version="1.0" xmlns="http://www.w3.org/2000/svg"
 width="161.000000pt" height="300.000000pt" viewBox="0 0 161.000000 300.000000"
 preserveAspectRatio="xMidYMid meet">
<metadata>
Created by potrace 1.10, written by Peter Selinger 2001-2011
</metadata>
<g transform="translate(0.000000,300.000000) scale(0.050000,-0.050000)"
fill="#000000" stroke="none">
<path d="M559 5908 c-12 -33 -19 -1085 -19 -2905 l1 -2853 -246 -10 c-228 -9
-245 -13 -245 -50 0 -52 283 -76 710 -61 160 6 768 10 1353 11 963 0 1064 3
1075 33 27 68 -24 87 -235 87 l-203 0 4 1835 5 1835 -1057 1065 c-1059 1067
-1106 1109 -1143 1013z m2081 -3930 l0 -1812 -195 -13 c-107 -7 -550 -13 -985
-13 l-790 0 6 275 6 275 773 -7 c707 -6 775 -4 798 27 64 88 49 90 -785 90
l-788 0 0 230 0 230 778 0 c820 0 848 3 815 90 -10 26 -115 30 -802 30 l-791
0 0 230 0 230 768 0 c827 0 832 0 832 72 l0 48 -799 0 -799 0 -6 230 -6 230
790 5 790 5 0 50 0 50 -785 5 -785 5 0 230 0 230 789 0 c770 0 789 1 801 40
25 78 9 80 -801 80 l-789 0 0 231 0 230 765 -1 c421 -1 776 -1 790 -1 14 1 25
24 25 51 l0 50 -790 0 -790 0 0 235 0 235 527 -6 c555 -6 598 1 566 86 -10 26
-88 30 -552 30 l-541 0 0 745 0 745 980 -980 980 -980 0 -1812z"/>
</g>
</svg>
