<?xml version="1.0" standalone="no"?>
<!DOCTYPE svg PUBLIC "-//W3C//DTD SVG 20010904//EN"
 "http://www.w3.org/TR/2001/REC-SVG-20010904/DTD/svg10.dtd">
<svg version="1.0" xmlns="http://www.w3.org/2000/svg"
 width="300.000000pt" height="287.000000pt" viewBox="0 0 300.000000 287.000000"
 preserveAspectRatio="xMidYMid meet">
<metadata>
Created by potrace 1.10, written by Peter Selinger 2001-2011
</metadata>
<g transform="translate(0.000000,287.000000) scale(0.050000,-0.050000)"
fill="#000000" stroke="none">
<path d="M625 5619 l-45 -18 0 -2700 0 -2700 -245 -5 -245 -6 0 -60 0 -60
2860 -10 c2951 -10 2956 -10 2967 47 15 78 -31 93 -274 93 l-233 0 0 2715 0
2715 -2370 4 c-1381 2 -2389 -4 -2415 -15z m4635 -2229 l0 -2110 -1975 -5
-1975 -5 0 -60 c0 -78 53 -87 485 -89 l325 -1 0 -460 0 -460 -700 0 -700 0 0
1319 0 1319 1974 -2 c1924 -2 1974 -1 1987 36 42 115 163 108 -1992 108
l-1969 0 0 815 0 815 1925 -6 c2036 -6 2005 -6 2025 57 33 103 115 99 -1992
99 l-1958 0 0 370 0 370 2270 0 2270 0 0 -2110z m20 -2720 l0 -470 -690 0
-690 0 0 459 0 460 205 6 c113 4 423 8 690 11 l485 4 0 -470z m-2340 -10 l0
-460 -350 0 -350 0 0 460 0 460 350 0 350 0 0 -460z m820 0 l0 -460 -335 0
-335 0 0 460 0 460 335 0 335 0 0 -460z"/>
<path d="M1345 3846 c-50 -10 -62 -81 -21 -122 41 -41 3283 -34 3325 7 40 41
40 101 -1 117 -35 13 -3232 12 -3303 -2z"/>
<path d="M1320 2092 c-37 -37 -21 -93 31 -112 97 -37 3280 -26 3318 11 63 64
8 104 -164 117 -268 21 -3162 7 -3185 -16z"/>
</g>
</svg>
