<?xml version="1.0" standalone="no"?>
<!DOCTYPE svg PUBLIC "-//W3C//DTD SVG 20010904//EN"
 "http://www.w3.org/TR/2001/REC-SVG-20010904/DTD/svg10.dtd">
<svg version="1.0" xmlns="http://www.w3.org/2000/svg"
 width="300.000000pt" height="262.000000pt" viewBox="0 0 300.000000 262.000000"
 preserveAspectRatio="xMidYMid meet">
<metadata>
Created by potrace 1.10, written by Peter Selinger 2001-2011
</metadata>
<g transform="translate(0.000000,262.000000) scale(0.050000,-0.050000)"
fill="#000000" stroke="none">
<path d="M552 5149 c-29 -29 -32 -280 -32 -2500 l0 -2469 -198 0 c-231 0 -262
-8 -262 -70 0 -72 -82 -70 2951 -70 l2888 0 22 42 c30 55 0 86 -86 89 -36 1
-130 4 -210 6 l-145 3 0 2460 c0 2379 -1 2461 -38 2498 -53 53 -4837 64 -4890
11z m4788 -2549 l0 -2440 -745 0 -745 0 0 530 0 530 424 0 c452 0 506 14 425
111 -45 54 -3430 42 -3460 -12 -48 -90 -8 -99 443 -99 l418 0 0 -530 0 -530
-720 5 -721 5 -4 2435 -5 2435 2345 0 2345 0 0 -2440z m-1607 -1443 c-7 -34
-13 -272 -13 -530 l0 -467 -740 0 -740 0 0 530 0 530 753 0 752 0 -12 -63z"/>
<path d="M1261 4401 c-25 -45 -29 -838 -5 -876 29 -45 3406 -36 3440 10 30 39
28 834 -2 880 -32 49 -3407 35 -3433 -14z m859 -441 l0 -340 -370 0 -370 0 0
340 0 340 370 0 370 0 0 -340z m780 0 l0 -340 -340 0 -340 0 0 340 0 340 340
0 340 0 0 -340z m840 0 l0 -340 -360 0 -360 0 0 340 0 340 360 0 360 0 0 -340z
m840 0 l0 -340 -350 0 -350 0 0 340 0 340 350 0 350 0 0 -340z"/>
<path d="M1224 2856 c-30 -30 -31 -89 -1 -108 25 -16 3456 -11 3481 5 24 14
19 76 -8 103 -35 35 -3437 35 -3472 0z"/>
<path d="M1206 2084 c-31 -32 -32 -44 -6 -84 20 -32 3149 -59 3396 -29 110 13
148 47 112 103 -26 41 -3461 50 -3502 10z"/>
</g>
</svg>
