<?xml version="1.0" standalone="no"?>
<!DOCTYPE svg PUBLIC "-//W3C//DTD SVG 20010904//EN"
 "http://www.w3.org/TR/2001/REC-SVG-20010904/DTD/svg10.dtd">
<svg version="1.0" xmlns="http://www.w3.org/2000/svg"
 width="900.000000pt" height="207.000000pt" viewBox="0 0 900.000000 207.000000"
 preserveAspectRatio="xMidYMid meet">
<metadata>
Created by potrace 1.10, written by Peter Selinger 2001-2011
</metadata>
<g transform="translate(0.000000,207.000000) scale(0.100000,-0.100000)"
fill="#000000" stroke="none">
<path d="M1100 1253 c0 -449 -3 -820 -7 -824 -4 -4 -34 -4 -67 0 -52 7 -61 6
-81 -13 -21 -20 -22 -26 -15 -146 3 -69 3 -131 -1 -139 -5 -11 -82 -13 -427
-12 -410 2 -421 1 -431 -18 -14 -25 -13 -32 3 -54 13 -16 228 -17 4419 -17
2423 0 4412 3 4421 6 10 4 16 18 16 40 0 27 -5 36 -22 42 -13 4 -201 5 -418 2
-256 -3 -399 -1 -406 5 -9 7 -10 47 -5 140 7 123 6 131 -13 152 -20 21 -26 22
-80 13 -32 -5 -63 -7 -67 -4 -5 3 -9 374 -9 825 l0 819 -3405 0 -3405 0 0
-817z m2056 734 c5 -5 5 -1549 0 -1554 -4 -5 -1948 -4 -1953 1 -3 3 -7 1524
-3 1556 0 6 1950 3 1956 -3z m2595 -773 c0 -427 -2 -778 -4 -781 -5 -5 -528
-6 -533 -1 -2 2 -4 247 -4 544 l-1 539 73 5 73 5 3 133 3 132 -845 0 c-825 0
-846 0 -856 -19 -14 -28 -13 -224 2 -239 7 -7 40 -12 78 -12 l65 0 -2 -541
c-1 -298 -4 -543 -6 -546 -6 -5 -538 -6 -543 0 -3 3 -7 1509 -4 1557 0 3 563
4 1250 3 l1251 -2 0 -777z m2067 0 c1 -460 -2 -780 -7 -783 -5 -3 -448 -4
-985 -1 l-976 5 0 775 c-1 426 0 777 0 780 0 3 442 4 982 3 l983 -2 3 -777z
m-2540 444 l-3 -43 -767 -3 -768 -2 0 45 0 45 771 0 770 0 -3 -42z m-160 -685
l-3 -546 -93 -1 c-52 -1 -96 3 -99 8 -3 4 -6 211 -7 460 l-1 451 -410 0 -410
0 0 -457 c0 -251 -2 -458 -5 -460 -3 -3 -47 -2 -98 1 l-94 6 -1 543 -2 542
613 0 612 0 -2 -547z m-662 284 c7 -6 6 -818 0 -825 -7 -6 -256 -6 -262 1 -6
6 -6 815 0 825 4 8 254 7 262 -1z m362 -2 c10 -4 12 -88 10 -410 -1 -224 -6
-409 -11 -412 -4 -3 -65 -5 -135 -5 l-127 0 -3 408 c-1 225 -1 413 2 419 3 10
235 9 264 0z m3169 -919 c8 -8 10 -207 2 -212 -11 -6 -6949 -5 -6960 2 -12 7
-12 211 1 216 18 6 6951 0 6957 -6z"/>
<path d="M1476 1775 c-21 -10 -21 -18 -24 -364 -2 -253 1 -358 9 -367 9 -11
66 -14 288 -14 152 0 282 4 290 9 21 14 20 706 -2 728 -12 12 -58 15 -278 16
-163 1 -270 -2 -283 -8z m232 -359 c1 -165 -2 -283 -7 -290 -10 -12 -135 -15
-147 -3 -8 8 -9 551 -1 564 3 5 39 9 79 9 l73 -1 3 -279z m257 -11 l0 -289
-75 -1 c-41 0 -79 3 -85 6 -6 5 -9 111 -9 291 1 155 2 284 3 284 1 1 38 1 84
0 l82 -1 0 -290z"/>
<path d="M2381 1771 c-21 -13 -21 -21 -21 -371 l0 -358 23 -6 c29 -8 525 -8
555 0 l22 6 0 359 c0 355 0 358 -21 370 -34 17 -532 18 -558 0z m244 -361 l0
-285 -85 0 -85 0 -3 275 c-1 151 0 281 3 288 3 9 26 12 87 10 l83 -3 0 -285z
m245 0 l0 -291 -81 3 -81 3 0 283 c1 155 1 284 1 287 1 3 37 5 81 5 l80 0 0
-290z"/>
<path d="M6070 1768 c-19 -16 -20 -25 -20 -367 0 -336 1 -351 19 -361 21 -11
537 -15 565 -4 14 5 16 47 16 364 0 294 -2 360 -14 369 -10 8 -95 12 -280 14
-234 2 -267 0 -286 -15z m240 -351 c3 -169 1 -282 -4 -288 -6 -5 -45 -9 -88
-9 l-78 0 0 290 0 291 83 -3 82 -3 5 -278z m248 -4 l-3 -288 -79 0 -79 0 1
283 c0 155 1 284 1 287 1 3 37 5 81 5 l80 0 -2 -287z"/>
<path d="M6973 1768 c-13 -15 -16 -65 -15 -369 0 -284 3 -353 14 -360 22 -14
562 -11 576 3 9 9 12 104 12 364 0 293 -2 354 -14 363 -11 9 -93 13 -286 14
-245 2 -273 0 -287 -15z m249 -345 c2 -153 1 -284 -1 -290 -4 -16 -157 -18
-166 -3 -8 13 -8 547 0 560 3 6 42 10 85 10 l79 0 3 -277z m241 -13 l0 -285
-77 -3 c-42 -2 -76 1 -76 5 -1 14 -1 558 0 566 0 4 34 7 76 5 l76 -3 1 -285z"/>
<path d="M4347 823 c-5 -8 -11 -88 -8 -110 1 -14 38 -17 65 -7 26 10 22 89 -6
108 -24 17 -44 20 -51 9z"/>
</g>
</svg>
