<?xml version="1.0" standalone="no"?>
<!DOCTYPE svg PUBLIC "-//W3C//DTD SVG 20010904//EN"
 "http://www.w3.org/TR/2001/REC-SVG-20010904/DTD/svg10.dtd">
<svg version="1.0" xmlns="http://www.w3.org/2000/svg"
 width="259.000000pt" height="179.000000pt" viewBox="0 0 259.000000 179.000000"
 preserveAspectRatio="xMidYMid meet">
<metadata>
Created by potrace 1.10, written by Peter Selinger 2001-2011
</metadata>
<g transform="translate(0.000000,179.000000) scale(0.050000,-0.050000)"
fill="#000000" stroke="none">
<path d="M2362 3479 c-414 -108 -663 -419 -714 -892 l-13 -123 -82 57 c-506
351 -1021 -279 -844 -1030 33 -140 32 -143 -56 -159 -350 -66 -479 -741 -203
-1069 l52 -62 -194 -5 c-203 -6 -251 -28 -222 -103 12 -31 212 -33 2518 -28
l2506 5 0 60 0 60 -183 6 -183 5 68 102 c268 398 75 1057 -309 1057 -57 0 -58
2 -48 88 58 515 -376 951 -770 773 l-85 -39 0 196 c0 765 -574 1275 -1238
1101z m389 -141 c488 -90 794 -623 688 -1198 -53 -289 -21 -325 147 -165 363
342 814 -35 687 -575 -43 -185 -20 -217 151 -213 440 11 508 -746 85 -945
l-90 -43 -1815 6 -1814 5 -83 44 c-182 98 -267 261 -267 511 0 274 224 509
396 417 102 -54 119 21 51 228 -75 227 -81 608 -11 762 172 379 573 377 783
-3 102 -186 210 -165 165 32 -161 695 295 1254 927 1137z"/>
</g>
</svg>
