<?xml version="1.0" standalone="no"?>
<!DOCTYPE svg PUBLIC "-//W3C//DTD SVG 20010904//EN"
 "http://www.w3.org/TR/2001/REC-SVG-20010904/DTD/svg10.dtd">
<svg version="1.0" xmlns="http://www.w3.org/2000/svg"
 width="300.000000pt" height="267.000000pt" viewBox="0 0 300.000000 267.000000"
 preserveAspectRatio="xMidYMid meet">
<metadata>
Created by potrace 1.10, written by Peter Selinger 2001-2011
</metadata>
<g transform="translate(0.000000,267.000000) scale(0.050000,-0.050000)"
fill="#000000" stroke="none">
<path d="M3070 5222 c-503 -81 -937 -452 -1002 -858 -7 -46 -15 -84 -18 -84
-3 0 -31 13 -62 30 -198 102 -603 95 -834 -15 -558 -265 -767 -1075 -424
-1643 39 -65 68 -120 65 -122 -3 -1 -41 -25 -85 -51 -552 -330 -735 -1120
-384 -1663 134 -208 290 -348 564 -507 26 -15 -65 -19 -322 -13 -390 9 -419 2
-405 -100 l7 -46 2822 -5 c3096 -6 2905 -13 2851 107 l-24 52 -319 -7 c-362
-8 -361 -8 -205 72 373 191 642 655 620 1070 -20 382 -142 557 -511 734 -4 2
12 64 35 137 207 672 -153 1244 -832 1321 l-117 13 0 293 c-1 852 -621 1412
-1420 1285z m563 -192 c537 -181 829 -743 699 -1348 -39 -185 -28 -202 128
-202 373 0 683 -167 813 -436 98 -203 86 -611 -24 -831 -53 -107 -41 -126 126
-203 718 -332 436 -1353 -457 -1652 l-174 -58 -1713 0 c-2010 0 -1923 -12
-2318 311 -600 488 -525 1441 139 1761 176 84 183 101 99 223 -554 806 -52
1798 818 1616 151 -32 203 -54 316 -135 54 -39 86 13 113 183 96 609 797 985
1435 771z"/>
</g>
</svg>
