<?xml version="1.0" standalone="no"?>
<!DOCTYPE svg PUBLIC "-//W3C//DTD SVG 20010904//EN"
 "http://www.w3.org/TR/2001/REC-SVG-20010904/DTD/svg10.dtd">
<svg version="1.0" xmlns="http://www.w3.org/2000/svg"
 width="297.000000pt" height="212.000000pt" viewBox="0 0 297.000000 212.000000"
 preserveAspectRatio="xMidYMid meet">
<metadata>
Created by potrace 1.10, written by Peter Selinger 2001-2011
</metadata>
<g transform="translate(0.000000,212.000000) scale(0.050000,-0.050000)"
fill="#000000" stroke="none">
<path d="M3040 4170 c-485 -132 -849 -512 -954 -998 l-33 -153 -92 15 c-500
84 -998 -220 -1144 -699 -41 -136 -48 -552 -10 -636 10 -22 -5 -40 -56 -64
-454 -217 -551 -918 -180 -1290 l125 -125 -297 0 -298 0 -13 -51 c-7 -29 -5
-60 6 -71 11 -11 1141 -16 2897 -13 l2879 5 0 60 0 60 -336 5 -336 6 101 80
c824 652 477 1995 -561 2168 l-71 12 26 124 c136 649 -243 1309 -876 1526
-206 70 -590 89 -777 39z m629 -163 c434 -111 758 -428 863 -846 43 -171 30
-547 -23 -684 -45 -116 -22 -157 89 -157 325 0 744 -272 896 -580 256 -522 27
-1190 -497 -1448 l-147 -73 -1910 6 -1911 5 -132 65 c-541 267 -545 994 -7
1225 115 49 121 68 71 217 -223 663 392 1319 1062 1131 148 -42 177 -31 177
68 0 721 738 1258 1469 1071z"/>
</g>
</svg>
