<?xml version="1.0" standalone="no"?>
<!DOCTYPE svg PUBLIC "-//W3C//DTD SVG 20010904//EN"
 "http://www.w3.org/TR/2001/REC-SVG-20010904/DTD/svg10.dtd">
<svg version="1.0" xmlns="http://www.w3.org/2000/svg"
 width="247.000000pt" height="93.000000pt" viewBox="0 0 247.000000 93.000000"
 preserveAspectRatio="xMidYMid meet">
<metadata>
Created by potrace 1.10, written by Peter Selinger 2001-2011
</metadata>
<g transform="translate(0.000000,93.000000) scale(0.050000,-0.050000)"
fill="#000000" stroke="none">
<path d="M2961 1789 c-249 -54 -498 -225 -613 -420 l-50 -86 -74 31 c-296 126
-695 -63 -792 -374 -18 -59 -37 -87 -55 -82 -195 59 -467 3 -613 -128 -62 -55
-122 -89 -174 -99 -198 -36 -346 -143 -462 -334 -115 -189 -98 -213 157 -221
777 -27 4298 -15 4369 14 479 201 163 980 -398 980 l-173 0 -12 63 c-83 442
-623 761 -1110 656z m544 -204 c223 -105 410 -352 431 -569 13 -139 56 -170
172 -126 287 110 588 -99 608 -421 8 -120 5 -131 -52 -188 l-61 -61 -2174 0
-2174 0 50 65 c91 120 202 182 340 191 119 8 128 12 181 88 102 144 358 202
552 124 123 -49 145 -36 174 107 69 339 434 513 698 334 110 -75 134 -66 196
77 167 384 669 563 1059 379z"/>
</g>
</svg>
