<?xml version="1.0" standalone="no"?>
<!DOCTYPE svg PUBLIC "-//W3C//DTD SVG 20010904//EN"
 "http://www.w3.org/TR/2001/REC-SVG-20010904/DTD/svg10.dtd">
<svg version="1.0" xmlns="http://www.w3.org/2000/svg"
 width="195.000000pt" height="263.000000pt" viewBox="0 0 195.000000 263.000000"
 preserveAspectRatio="xMidYMid meet">
<metadata>
Created by potrace 1.10, written by Peter Selinger 2001-2011
</metadata>
<g transform="translate(0.000000,263.000000) scale(0.050000,-0.050000)"
fill="#000000" stroke="none">
<path d="M1655 5054 c-415 -145 -744 -602 -687 -956 12 -77 -11 -97 -118 -98
-139 -1 -446 -226 -569 -418 -229 -357 -192 -871 84 -1191 65 -75 68 -83 49
-170 -141 -659 825 -1260 1385 -861 32 22 60 40 64 40 4 0 7 -256 7 -570 l0
-570 -224 0 c-242 0 -313 -32 -266 -120 39 -74 1138 -67 1166 7 28 73 -29 95
-272 107 l-234 12 0 589 0 589 68 -60 c434 -381 1279 -13 1383 602 9 52 42
117 89 173 487 585 216 1557 -492 1765 l-144 43 -1 147 c-2 670 -669 1157
-1288 940z m656 -193 c326 -160 503 -481 476 -861 -11 -164 -2 -176 157 -210
685 -143 964 -1032 487 -1548 -70 -76 -89 -114 -110 -222 -106 -554 -836 -828
-1194 -448 l-68 72 265 279 c219 233 260 285 243 313 -51 82 -105 55 -320
-159 l-207 -206 0 420 c0 445 -5 469 -93 469 -80 0 -87 -51 -87 -618 l0 -542
-95 -70 c-520 -384 -1335 133 -1165 740 l25 90 -88 95 c-471 506 -205 1348
437 1381 191 10 195 15 167 189 -101 618 598 1117 1170 836z"/>
</g>
</svg>
