<?xml version="1.0" standalone="no"?>
<!DOCTYPE svg PUBLIC "-//W3C//DTD SVG 20010904//EN"
 "http://www.w3.org/TR/2001/REC-SVG-20010904/DTD/svg10.dtd">
<svg version="1.0" xmlns="http://www.w3.org/2000/svg"
 width="191.000000pt" height="263.000000pt" viewBox="0 0 191.000000 263.000000"
 preserveAspectRatio="xMidYMid meet">
<metadata>
Created by potrace 1.10, written by Peter Selinger 2001-2011
</metadata>
<g transform="translate(0.000000,263.000000) scale(0.050000,-0.050000)"
fill="#000000" stroke="none">
<path d="M1809 5196 c-44 -9 -114 -44 -154 -77 -67 -56 -799 -1007 -893 -1161
-116 -190 22 -377 259 -354 101 9 130 54 -269 -426 -446 -537 -493 -640 -355
-778 54 -54 77 -61 277 -85 38 -4 3 -56 -257 -375 -408 -500 -424 -531 -347
-681 61 -117 74 -119 904 -119 416 0 776 -6 801 -13 45 -12 45 -13 45 -439 l0
-428 -226 0 c-279 0 -396 -60 -277 -144 30 -21 972 -35 1147 -17 45 4 55 82
16 121 -35 35 -66 40 -270 40 l-230 0 0 428 0 427 62 13 c35 6 396 12 804 12
l740 0 66 50 c173 132 144 214 -252 712 l-324 408 105 13 c127 16 201 68 233
162 48 144 27 179 -458 761 -163 196 -296 358 -296 360 0 2 40 1 89 -3 267
-21 396 176 252 386 -137 199 -749 1026 -798 1077 -113 121 -241 163 -394 130z
m168 -185 c83 -42 168 -144 554 -663 458 -615 455 -603 143 -581 -198 14 -254
-3 -254 -76 0 -51 32 -93 470 -621 469 -565 475 -590 150 -590 -267 0 -281
-41 -91 -273 582 -711 665 -834 598 -890 -49 -40 -3265 -40 -3314 0 -60 50
-36 89 332 539 519 635 512 608 175 624 -336 16 -332 36 134 591 523 623 517
615 454 678 -26 26 -62 29 -215 19 -329 -23 -330 -29 181 635 478 620 545 680
683 608z"/>
</g>
</svg>
