<?xml version="1.0" standalone="no"?>
<!DOCTYPE svg PUBLIC "-//W3C//DTD SVG 20010904//EN"
 "http://www.w3.org/TR/2001/REC-SVG-20010904/DTD/svg10.dtd">
<svg version="1.0" xmlns="http://www.w3.org/2000/svg"
 width="300.000000pt" height="116.000000pt" viewBox="0 0 300.000000 116.000000"
 preserveAspectRatio="xMidYMid meet">
<metadata>
Created by potrace 1.10, written by Peter Selinger 2001-2011
</metadata>
<g transform="translate(0.000000,116.000000) scale(0.050000,-0.050000)"
fill="#000000" stroke="none">
<path d="M1800 2221 c-138 -25 -300 -98 -650 -292 -546 -304 -603 -329 -744
-329 -232 0 -265 -35 -288 -314 -9 -101 -30 -231 -47 -289 -99 -334 39 -499
454 -545 l199 -22 26 -78 c140 -406 779 -401 924 8 l35 100 1240 -5 1239 -5
14 -65 c90 -442 829 -455 940 -17 l23 92 310 0 c455 0 501 40 480 421 -19 339
-210 556 -495 559 -251 4 -870 131 -991 204 -395 239 -849 483 -983 531 l-156
55 -720 3 c-396 2 -760 -4 -810 -12z m740 -386 l0 -285 -582 6 c-614 6 -646 1
-634 -84 l6 -42 1770 -11 1770 -11 364 -62 c257 -44 381 -74 420 -102 74 -53
158 -144 134 -145 -10 -1 -103 -3 -208 -5 l-190 -4 -6 -54 c-8 -70 33 -81 263
-73 198 8 193 12 193 -165 0 -198 -54 -224 -438 -214 l-228 6 -24 96 c-124
490 -965 437 -970 -61 l0 -45 -1238 0 -1237 0 -14 90 c-75 501 -971 465 -971
-39 0 -61 -126 -70 -324 -23 -212 49 -264 120 -217 291 42 149 72 350 80 536
1 17 36 25 108 25 166 0 259 38 758 307 639 345 565 320 975 334 193 6 370 13
395 15 45 4 45 2 45 -281z m800 243 c122 -24 295 -108 717 -348 292 -166 335
-204 208 -183 -41 7 -419 13 -840 13 l-765 0 0 275 0 275 285 -5 c157 -3 335
-15 395 -27z m-1988 -1200 c172 -52 273 -292 197 -473 -164 -393 -759 -233
-702 189 35 248 240 364 505 284z m3462 1 c249 -95 301 -477 86 -636 -285
-210 -672 54 -580 396 55 205 288 318 494 240z"/>
<path d="M2763 1202 c-14 -9 -23 -38 -20 -64 9 -65 326 -75 365 -12 46 75
-245 140 -345 76z"/>
</g>
</svg>
