<?xml version="1.0" standalone="no"?>
<!DOCTYPE svg PUBLIC "-//W3C//DTD SVG 20010904//EN"
 "http://www.w3.org/TR/2001/REC-SVG-20010904/DTD/svg10.dtd">
<svg version="1.0" xmlns="http://www.w3.org/2000/svg"
 width="300.000000pt" height="131.000000pt" viewBox="0 0 300.000000 131.000000"
 preserveAspectRatio="xMidYMid meet">
<metadata>
Created by potrace 1.10, written by Peter Selinger 2001-2011
</metadata>
<g transform="translate(0.000000,131.000000) scale(0.050000,-0.050000)"
fill="#000000" stroke="none">
<path d="M2250 2518 c-601 -20 -798 -74 -1158 -317 -558 -376 -950 -849 -1023
-1235 -68 -352 -35 -396 297 -397 l222 -1 18 -68 c80 -310 484 -478 776 -323
124 66 230 191 262 311 l22 82 1268 -5 c1394 -5 1296 2 1314 -93 17 -91 167
-256 282 -310 275 -129 654 17 734 285 29 94 14 89 304 110 320 23 361 59 348
311 -26 490 -578 871 -1263 872 -39 0 -141 55 -310 168 -955 635 -995 646
-2093 610z m-2 -382 c8 -135 19 -280 26 -321 l11 -75 -590 0 c-527 0 -592 -4
-603 -33 -34 -89 -67 -87 1773 -87 l1739 0 283 -52 c633 -116 893 -331 893
-739 0 -126 10 -121 -270 -139 l-200 -12 -25 105 c-129 543 -963 540 -1055 -4
l-14 -79 -1278 0 -1278 0 0 45 c-1 212 -284 455 -530 455 -246 0 -530 -239
-530 -447 l0 -54 -205 5 -205 6 1 110 c4 496 889 1397 1493 1518 107 22 516
58 538 49 7 -3 19 -116 26 -251z m1000 226 c145 -27 914 -458 1081 -605 11
-10 -416 -15 -949 -12 l-968 5 -7 160 c-4 88 -14 228 -23 310 -9 83 -14 155
-11 160 10 19 760 4 877 -18z m-1948 -1347 c386 -198 261 -753 -171 -755 -139
0 -249 57 -325 169 -235 342 130 773 496 586z m3615 14 c295 -123 335 -532 70
-708 -267 -177 -626 14 -625 333 2 291 290 486 555 375z"/>
<path d="M2652 1336 c-47 -66 -10 -90 163 -101 168 -11 225 5 225 65 0 90
-329 121 -388 36z"/>
</g>
</svg>
