<?xml version="1.0" standalone="no"?>
<!DOCTYPE svg PUBLIC "-//W3C//DTD SVG 20010904//EN"
 "http://www.w3.org/TR/2001/REC-SVG-20010904/DTD/svg10.dtd">
<svg version="1.0" xmlns="http://www.w3.org/2000/svg"
 width="300.000000pt" height="132.000000pt" viewBox="0 0 300.000000 132.000000"
 preserveAspectRatio="xMidYMid meet">
<metadata>
Created by potrace 1.10, written by Peter Selinger 2001-2011
</metadata>
<g transform="translate(0.000000,132.000000) scale(0.050000,-0.050000)"
fill="#000000" stroke="none">
<path d="M2606 2547 c-28 -43 -36 -119 -45 -441 l-11 -389 -970 3 c-533 1
-1066 7 -1184 12 -286 12 -276 27 -276 -424 0 -281 -5 -348 -30 -368 -46 -38
-42 -283 6 -327 74 -66 261 -113 455 -113 l184 0 12 -73 c76 -472 846 -488
1005 -20 l31 92 1279 1 c1256 0 1278 0 1278 -39 0 -114 126 -281 264 -349 281
-140 640 3 724 288 l26 90 246 1 c307 2 328 18 351 260 59 635 -146 821 -1057
960 -250 38 -279 54 -457 252 -581 650 -554 637 -1277 637 l-519 0 -35 -53z
m346 -172 c-13 -119 16 -706 39 -762 14 -35 58 -36 917 -32 1310 5 1632 -50
1811 -310 93 -134 90 -140 -69 -151 -126 -9 -141 -14 -146 -55 -9 -62 73 -91
210 -74 l106 14 0 -148 c0 -225 -14 -237 -269 -237 l-206 0 -12 77 c-78 489
-853 499 -975 14 l-23 -91 -817 0 -818 0 0 898 c0 1042 -12 962 144 962 l121
0 -13 -105z m828 43 c122 -72 706 -681 678 -706 -5 -4 -311 -2 -681 3 l-673
10 -8 353 c-5 193 -5 359 -1 367 19 39 613 16 685 -27z m-1225 -848 c27 -10
37 -678 12 -857 l-12 -93 -385 0 -385 0 -42 118 c-172 470 -857 461 -995 -13
l-31 -106 -214 13 c-325 21 -358 58 -271 308 24 68 30 157 27 360 -2 149 -3
275 -1 280 3 12 2262 3 2297 -10z m-1165 -647 c424 -193 246 -816 -205 -722
-390 81 -438 679 -60 740 139 23 181 20 265 -18z m3631 -28 c158 -80 249 -341
171 -491 -206 -394 -803 -196 -710 236 54 252 307 372 539 255z"/>
<path d="M3257 1375 c-110 -41 19 -138 173 -130 96 5 100 7 106 68 l6 63 -122
7 c-68 4 -141 0 -163 -8z"/>
</g>
</svg>
