<?xml version="1.0" standalone="no"?>
<!DOCTYPE svg PUBLIC "-//W3C//DTD SVG 20010904//EN"
 "http://www.w3.org/TR/2001/REC-SVG-20010904/DTD/svg10.dtd">
<svg version="1.0" xmlns="http://www.w3.org/2000/svg"
 width="300.000000pt" height="143.000000pt" viewBox="0 0 300.000000 143.000000"
 preserveAspectRatio="xMidYMid meet">
<metadata>
Created by potrace 1.10, written by Peter Selinger 2001-2011
</metadata>
<g transform="translate(0.000000,143.000000) scale(0.050000,-0.050000)"
fill="#000000" stroke="none">
<path d="M514 2772 c-279 -76 -435 -620 -449 -1572 -10 -670 26 -740 379 -740
l154 0 38 -85 c189 -425 870 -417 1026 12 l26 73 1286 0 1285 0 29 -68 c116
-278 465 -414 748 -292 119 52 274 208 294 298 l12 58 204 8 c360 14 426 96
409 503 -18 407 -102 540 -395 625 -60 17 -204 68 -320 113 l-210 81 -450 444
c-470 464 -533 512 -729 548 -182 34 -3210 28 -3337 -6z m3416 -161 c83 -31
178 -115 561 -494 514 -509 483 -488 971 -648 117 -39 227 -86 243 -105 30
-33 95 -152 95 -172 0 -6 -74 -13 -165 -16 -162 -6 -165 -7 -171 -60 -9 -77
47 -100 206 -84 l130 14 0 -183 c0 -230 -19 -248 -264 -251 l-161 -2 -8 80
c-64 613 -1015 636 -1102 26 l-16 -106 -1271 -5 -1272 -5 -12 102 c-76 634
-1000 611 -1104 -27 l-12 -75 -118 0 c-245 0 -241 -11 -246 580 -4 446 -3 453
71 838 102 522 130 581 305 624 153 38 3235 9 3340 -31z m-2634 -1622 c279
-117 348 -450 137 -662 -317 -316 -825 23 -664 443 77 202 323 304 527 219z
m3739 -33 c214 -142 240 -464 53 -640 -278 -260 -720 -35 -683 348 28 292 382
456 630 292z"/>
<path d="M611 2375 c-144 -687 -157 -775 -121 -815 45 -50 2510 -64 2577 -15
30 23 33 68 28 445 l-5 420 -1235 5 -1234 5 -10 -45z m1009 -405 l0 -310 -500
0 c-275 0 -500 4 -500 8 0 5 22 111 48 235 26 125 54 261 61 302 l13 75 439 0
439 0 0 -310z m1340 0 l0 -310 -600 0 -600 0 0 310 0 310 600 0 600 0 0 -310z"/>
<path d="M3364 2396 c-34 -34 -34 -818 0 -852 39 -39 1263 -34 1295 5 48 58 4
116 -367 490 l-378 381 -263 0 c-178 0 -271 -8 -287 -24z m794 -424 l307 -307
-493 -2 -492 -2 0 309 0 310 185 0 185 0 308 -308z"/>
<path d="M3460 1244 c-41 -34 -46 -48 -28 -78 36 -59 435 -54 444 6 14 100
-313 156 -416 72z"/>
</g>
</svg>
