<?xml version="1.0" standalone="no"?>
<!DOCTYPE svg PUBLIC "-//W3C//DTD SVG 20010904//EN"
 "http://www.w3.org/TR/2001/REC-SVG-20010904/DTD/svg10.dtd">
<svg version="1.0" xmlns="http://www.w3.org/2000/svg"
 width="300.000000pt" height="146.000000pt" viewBox="0 0 300.000000 146.000000"
 preserveAspectRatio="xMidYMid meet">
<metadata>
Created by potrace 1.10, written by Peter Selinger 2001-2011
</metadata>
<g transform="translate(0.000000,146.000000) scale(0.050000,-0.050000)"
fill="#000000" stroke="none">
<path d="M224 2799 c-130 -79 -130 -81 -132 -1169 -1 -539 5 -1005 14 -1036
23 -83 121 -116 390 -129 185 -9 229 -17 237 -43 142 -473 765 -502 995 -47
l33 65 1317 0 1317 0 11 -55 c84 -413 810 -420 958 -10 l24 65 171 1 c202 1
292 29 349 106 72 96 50 881 -39 1403 -133 781 -150 851 -220 878 -102 39
-5359 12 -5425 -29z m4696 -99 l674 0 25 -112 c34 -153 59 -147 -580 -153
l-569 -5 -14 -790 c-13 -687 -26 -890 -68 -1035 -5 -20 -283 -25 -1304 -25
l-1298 0 -25 85 c-166 555 -927 559 -1037 5 l-16 -80 -190 0 c-148 0 -202 8
-244 35 l-54 36 3 864 c1 476 8 933 15 1015 l12 150 200 13 c110 7 1009 9
1998 5 989 -5 2102 -8 2472 -8z m-93 -415 c6 -19 13 -290 17 -603 l6 -567 -86
-26 c-47 -14 -107 -40 -135 -58 l-49 -32 0 647 c0 356 6 653 13 661 32 31 224
14 234 -22z m348 22 l105 -13 0 -375 c0 -483 -27 -439 270 -439 l246 0 8 -165
c11 -216 12 -215 -116 -215 -99 0 -108 -4 -108 -46 0 -69 38 -94 144 -94 l96
0 0 -157 c0 -205 -14 -219 -240 -225 l-170 -4 -6 58 c-24 234 -213 468 -379
468 -18 0 -25 50 -27 185 -3 394 -18 887 -29 932 -22 93 21 112 206 90z m512
-107 c9 -60 33 -208 54 -328 45 -265 59 -243 -149 -236 l-172 7 0 339 0 340
125 -6 125 -6 17 -110z m-4383 -1262 c435 -91 430 -690 -6 -731 -526 -49 -634
665 -114 751 8 1 62 -8 120 -20z m3799 -50 c202 -148 219 -402 40 -595 -282
-303 -756 51 -592 442 96 231 350 301 552 153z"/>
<path d="M525 2406 c-73 -72 -70 -763 4 -837 l49 -49 1807 0 c1379 0 1813 6
1831 24 35 35 34 896 -1 896 -14 0 -839 2 -1835 5 l-1810 5 -45 -44z m1115
-421 l0 -335 -485 6 c-267 3 -496 9 -510 14 -19 7 -25 91 -25 329 l0 321 510
0 510 0 0 -335z m1290 -1 l0 -327 -575 -3 -575 -4 0 335 0 336 575 -6 575 -5
0 -326z m1172 71 c0 -140 -1 -289 -1 -330 l-1 -75 -510 0 -510 0 0 335 0 336
511 -6 512 -5 -1 -255z"/>
</g>
</svg>
