<?xml version="1.0" standalone="no"?>
<!DOCTYPE svg PUBLIC "-//W3C//DTD SVG 20010904//EN"
 "http://www.w3.org/TR/2001/REC-SVG-20010904/DTD/svg10.dtd">
<svg version="1.0" xmlns="http://www.w3.org/2000/svg"
 width="300.000000pt" height="300.000000pt" viewBox="0 0 300.000000 300.000000"
 preserveAspectRatio="xMidYMid meet">
<metadata>
Created by potrace 1.10, written by Peter Selinger 2001-2011
</metadata>
<g transform="translate(0.000000,300.000000) scale(0.050000,-0.050000)"
fill="#ffffff" stroke="none">
<path d="M2801 5599 c-343 -46 -755 -264 -737 -388 10 -66 71 -59 161 19 388
332 1161 333 1548 1 91 -77 155 -91 176 -36 18 45 -128 178 -291 264 -219 117
-585 177 -857 140z"/>
<path d="M2753 5208 c-230 -55 -466 -214 -413 -277 37 -45 64 -39 180 39 294
198 755 180 1016 -39 96 -81 188 -10 103 80 -168 179 -582 271 -886 197z"/>
<path d="M2848 4852 c-187 -45 -291 -133 -240 -203 24 -33 34 -31 152 28 176
88 318 88 483 0 105 -56 122 -60 149 -34 118 118 -283 272 -544 209z"/>
<path d="M1800 4443 c-194 -46 -267 -86 -341 -187 -101 -141 -102 -145 -95
-1396 7 -1312 -3 -1223 158 -1380 l80 -78 -66 -33 c-145 -73 -156 -96 -156
-310 0 -312 -26 -297 730 -427 1969 -337 1856 -340 2259 57 117 116 226 242
242 280 58 140 8 491 -71 491 -10 0 11 46 46 103 l64 104 0 1151 c0 1256 1
1242 -115 1375 -103 117 -189 148 -472 169 -1569 115 -2043 132 -2263 81z
m840 -82 l150 -15 -130 0 c-71 0 -197 6 -280 13 l-150 15 130 0 c72 0 198 -6
280 -13z m765 -51 c938 -63 999 -77 1089 -248 l46 -88 0 -1128 c0 -1248 7
-1175 -132 -1330 l-67 -75 -5 1215 -6 1214 -47 90 c-130 250 -190 272 -910
329 -321 25 -545 47 -498 48 46 2 285 -11 530 -27z m-1055 -49 c264 -22 716
-58 1004 -80 586 -45 648 -60 757 -187 108 -127 109 -133 109 -1374 0 -1614
41 -1544 -825 -1403 -278 45 -766 123 -1085 173 -646 101 -692 117 -785 281
l-45 79 5 1180 5 1180 48 67 c59 83 190 147 272 134 33 -6 276 -28 540 -50z
m1948 -3134 c-366 -368 -257 -359 -1588 -139 -1274 210 -1200 196 -1200 231 0
15 43 54 96 85 l96 56 224 -39 c123 -22 409 -67 634 -100 226 -33 604 -91 840
-130 612 -100 650 -94 898 157 111 112 134 127 168 109 36 -19 21 -40 -168
-230z m222 -40 c0 -91 -2 -94 -225 -311 -271 -263 -309 -283 -535 -281 -199 1
-2185 327 -2231 366 -60 50 -38 224 26 211 391 -81 2119 -352 2241 -352 215 0
308 49 534 278 211 214 190 204 190 89z"/>
<path d="M1805 4013 c-116 -64 -116 -58 -109 -852 7 -895 1 -876 325 -918
1836 -239 1809 -237 1894 -158 l45 42 0 781 c0 740 -2 785 -39 846 -70 115
-89 118 -1084 205 -1054 92 -973 88 -1032 54z m455 -112 c116 -12 422 -40 680
-62 871 -75 822 -68 874 -128 l46 -53 0 -739 0 -738 -47 -31 c-52 -34 -166
-22 -166 18 0 45 -101 242 -171 334 l-70 91 36 71 c22 43 56 76 87 84 140 35
122 352 -20 352 -13 0 -29 34 -36 75 -87 523 -730 769 -1084 416 -95 -96 -189
-255 -189 -321 0 -17 -22 -39 -48 -49 -152 -58 -147 -271 7 -350 91 -47 94
-114 10 -224 -39 -51 -94 -137 -121 -190 -57 -114 -119 -128 -199 -48 l-49 49
0 697 c0 803 -2 796 180 775 39 -5 165 -18 280 -29z m583 -321 c38 -38 58 -76
53 -104 -7 -53 -116 -121 -130 -81 -13 34 -85 32 -98 -3 -17 -44 27 -110 83
-124 160 -40 294 118 238 280 -27 81 -20 86 52 39 169 -113 303 -316 331 -501
11 -75 20 -88 75 -102 93 -24 89 -106 -7 -137 -53 -17 -74 -38 -88 -85 -71
-249 -424 -398 -677 -286 -164 72 -375 329 -375 458 0 15 -27 32 -61 39 -100
20 -121 118 -28 132 62 10 89 34 89 81 1 267 389 549 543 394z m-243 -1201
c189 -95 454 -74 639 51 l103 68 66 -104 c136 -214 142 -244 47 -227 -36 7
-177 26 -315 43 -419 51 -886 111 -955 122 l-65 10 39 76 c22 42 63 105 93
141 l54 64 102 -100 c56 -54 143 -119 192 -144z"/>
<path d="M2499 3189 c-37 -44 -1 -137 55 -145 65 -10 98 64 57 127 -37 56 -75
62 -112 18z"/>
<path d="M3051 3109 c-51 -51 -21 -149 46 -149 81 0 109 90 46 147 -45 41 -52
41 -92 2z"/>
<path d="M2550 2840 c-102 -166 349 -326 506 -180 81 76 27 143 -74 91 -111
-57 -246 -29 -327 67 -37 45 -85 55 -105 22z"/>
<path d="M2588 1912 c-88 -88 -94 -198 -17 -290 171 -203 482 20 359 258 -65
125 -233 141 -342 32z"/>
</g>
</svg>
