<?xml version="1.0" standalone="no"?>
<!DOCTYPE svg PUBLIC "-//W3C//DTD SVG 20010904//EN"
 "http://www.w3.org/TR/2001/REC-SVG-20010904/DTD/svg10.dtd">
<svg version="1.0" xmlns="http://www.w3.org/2000/svg"
 width="206.000000pt" height="300.000000pt" viewBox="0 0 206.000000 300.000000"
 preserveAspectRatio="xMidYMid meet">
<metadata>
Created by potrace 1.10, written by Peter Selinger 2001-2011
</metadata>
<g transform="translate(0.000000,300.000000) scale(0.050000,-0.050000)"
fill="#000000" stroke="none">
<path d="M955 5958 c-31 -18 -35 -57 -35 -349 l0 -329 -158 0 c-110 0 -164 -8
-180 -28 -18 -21 -23 -660 -21 -2545 l2 -2517 -217 0 c-119 0 -227 -7 -241
-16 -32 -21 -32 -87 0 -107 29 -18 3326 -29 3700 -13 l255 11 0 57 c0 70 -60
85 -297 75 l-161 -7 -5 2509 c-6 2895 21 2587 -223 2579 l-144 -5 -6 318 c-4
259 -11 324 -38 353 -38 42 -2160 56 -2231 14z m2131 -399 l-4 -280 -1011 -5
-1011 -4 0 285 0 285 1015 0 1015 0 -4 -281z m329 -432 l45 -12 0 -2467 0
-2468 -450 0 -451 0 2 725 c1 666 -2 726 -34 750 -48 35 -868 36 -903 1 -18
-18 -24 -212 -24 -750 l0 -726 -450 0 -450 0 0 2480 0 2480 1335 0 c734 0
1355 -6 1380 -13z m-975 -4268 l0 -679 -350 0 -350 0 0 685 0 685 350 -6 350
-6 0 -679z"/>
<path d="M1186 4600 c-64 -26 -71 -79 -63 -447 5 -239 14 -336 34 -360 35 -42
618 -50 659 -9 46 46 33 790 -15 815 -47 25 -553 26 -615 1z m514 -410 l0
-290 -220 0 -220 0 0 290 0 290 220 0 220 0 0 -290z"/>
<path d="M2340 4580 c-55 -55 -62 -755 -9 -809 47 -46 591 -46 638 0 57 58 45
777 -13 818 -74 52 -562 45 -616 -9z m536 -395 l-6 -295 -215 -6 -215 -5 0
300 0 301 221 0 220 0 -5 -295z"/>
<path d="M1140 3109 c-39 -102 -25 -758 17 -796 52 -48 604 -49 652 -2 40 41
47 785 7 825 -17 17 -121 24 -340 24 l-317 0 -19 -51z m556 -384 l5 -305 -216
0 -217 0 5 305 c3 168 6 308 6 311 1 3 93 3 206 0 l205 -6 6 -305z"/>
<path d="M2364 3136 c-34 -34 -34 -818 0 -852 33 -33 599 -33 632 0 40 40 33
804 -7 845 -41 40 -586 46 -625 7z m461 -116 l75 0 0 -310 0 -310 -209 0 -209
0 -6 312 c-7 364 -20 335 144 320 72 -6 164 -12 205 -12z"/>
</g>
</svg>
