<?xml version="1.0" standalone="no"?>
<!DOCTYPE svg PUBLIC "-//W3C//DTD SVG 20010904//EN"
 "http://www.w3.org/TR/2001/REC-SVG-20010904/DTD/svg10.dtd">
<svg version="1.0" xmlns="http://www.w3.org/2000/svg"
 width="213.000000pt" height="300.000000pt" viewBox="0 0 213.000000 300.000000"
 preserveAspectRatio="xMidYMid meet">
<metadata>
Created by potrace 1.10, written by Peter Selinger 2001-2011
</metadata>
<g transform="translate(0.000000,300.000000) scale(0.050000,-0.050000)"
fill="#000000" stroke="none">
<path d="M508 5936 c-5 -8 -9 -1306 -8 -2885 0 -2299 -5 -2871 -25 -2873 -14
-2 -105 -4 -203 -5 -193 -3 -250 -33 -193 -101 38 -47 4062 -49 4101 -2 44 53
9 90 -86 90 -49 0 -157 6 -241 13 l-153 13 0 2868 c0 2275 -5 2869 -25 2876
-41 16 -3158 21 -3167 6z m3052 -2925 c0 -1546 0 -2816 0 -2822 0 -18 -2888
-21 -2916 -2 -24 15 -36 5576 -12 5616 4 7 665 14 1468 16 l1460 3 0 -2811z"/>
<path d="M1021 5312 c-66 -81 -23 -102 209 -102 l220 0 0 60 0 60 -202 6
c-159 4 -207 -1 -227 -24z"/>
<path d="M1903 5322 c-14 -9 -23 -38 -20 -64 10 -68 400 -86 436 -20 39 74
-20 102 -215 102 -96 0 -186 -8 -201 -18z"/>
<path d="M2751 5309 c-23 -24 -26 -41 -10 -71 36 -66 426 -48 436 20 9 68 -26
81 -221 82 -131 0 -181 -8 -205 -31z"/>
<path d="M1019 4629 c-57 -69 0 -99 193 -101 234 -2 252 3 244 69 l-6 53 -202
6 c-166 4 -207 0 -229 -27z"/>
<path d="M1909 4631 c-83 -61 -15 -100 186 -107 210 -6 279 25 213 98 -44 49
-337 55 -399 9z"/>
<path d="M2745 4637 c-73 -73 -16 -106 195 -110 219 -5 244 2 236 70 l-6 53
-200 6 c-139 4 -208 -2 -225 -19z"/>
<path d="M1007 3951 c-30 -80 2 -93 228 -87 215 6 215 6 215 56 0 63 -419 92
-443 31z"/>
<path d="M1888 3951 c-31 -80 2 -93 217 -87 204 6 205 6 205 56 0 63 -399 92
-422 31z"/>
<path d="M2732 3948 c-27 -72 23 -90 236 -84 201 6 202 6 202 56 0 65 -414 92
-438 28z"/>
<path d="M1007 3291 c-29 -78 3 -91 234 -91 l222 0 -7 55 -6 55 -215 6 c-179
4 -218 0 -228 -25z"/>
<path d="M1888 3291 c-31 -80 2 -93 217 -87 204 6 205 6 205 56 0 63 -399 92
-422 31z"/>
<path d="M2753 3307 c-72 -73 -1 -110 212 -110 193 -1 237 18 209 90 -13 34
-389 51 -421 20z"/>
<path d="M1007 2631 c-30 -80 2 -93 228 -87 215 6 215 6 215 56 0 63 -419 92
-443 31z"/>
<path d="M1893 2647 c-74 -74 -14 -107 195 -107 223 0 286 25 232 90 -26 31
-398 46 -427 17z"/>
<path d="M2741 2631 c-61 -73 -13 -93 214 -87 215 6 215 6 215 56 0 63 -380
90 -429 31z"/>
<path d="M1007 1971 c-30 -80 2 -93 228 -87 215 6 215 6 215 56 0 63 -419 92
-443 31z"/>
<path d="M1888 1971 c-31 -80 2 -93 217 -87 204 6 205 6 205 56 0 63 -399 92
-422 31z"/>
<path d="M2743 1973 c-61 -73 -9 -95 214 -89 212 6 213 6 213 56 0 61 -380 91
-427 33z"/>
<path d="M1007 1291 c-30 -80 2 -93 228 -87 215 6 215 6 215 56 0 63 -419 92
-443 31z"/>
<path d="M1888 1291 c-31 -80 2 -93 217 -87 204 6 205 6 205 56 0 63 -399 92
-422 31z"/>
<path d="M2742 1285 c-38 -73 0 -87 220 -81 207 6 208 6 208 56 0 68 -392 91
-428 25z"/>
<path d="M1904 656 c-34 -34 -30 -89 8 -104 114 -44 428 -1 428 58 0 66 -376
106 -436 46z"/>
</g>
</svg>
