<?xml version="1.0" standalone="no"?>
<!DOCTYPE svg PUBLIC "-//W3C//DTD SVG 20010904//EN"
 "http://www.w3.org/TR/2001/REC-SVG-20010904/DTD/svg10.dtd">
<svg version="1.0" xmlns="http://www.w3.org/2000/svg"
 width="158.000000pt" height="300.000000pt" viewBox="0 0 158.000000 300.000000"
 preserveAspectRatio="xMidYMid meet">
<metadata>
Created by potrace 1.10, written by Peter Selinger 2001-2011
</metadata>
<g transform="translate(0.000000,300.000000) scale(0.050000,-0.050000)"
fill="#000000" stroke="none">
<path d="M2566 5910 c-57 -38 -109 -79 -116 -90 -7 -12 -168 -142 -356 -289
-473 -370 -895 -710 -1052 -849 -160 -142 -452 -373 -527 -418 -78 -46 -72 90
-86 -2074 l-12 -1980 -170 -6 -170 -6 7 -54 6 -54 1510 0 c1497 0 1510 0 1510
40 0 37 -15 40 -185 46 l-185 6 -1 2114 c0 2074 -13 3609 -29 3659 -13 37 -31
32 -144 -45z m25 -824 c-7 -18 -95 -26 -333 -31 -281 -4 -327 -10 -345 -39
-39 -62 10 -73 357 -80 l340 -6 0 -160 0 -160 -610 -10 c-576 -9 -610 -12
-617 -48 -12 -66 36 -71 641 -72 l594 0 -4 -165 -4 -165 -878 -5 c-913 -6
-952 -9 -911 -87 20 -36 57 -38 911 -38 l890 0 -6 -165 -6 -165 -900 -11
c-1011 -11 -915 -5 -906 -64 l6 -45 905 -5 905 -5 0 -139 c0 -223 98 -201
-901 -201 -885 0 -939 -4 -939 -70 0 -69 47 -71 953 -57 l889 13 -6 -178 -6
-178 -886 -12 c-914 -12 -973 -18 -901 -89 27 -28 141 -31 914 -30 l883 2 0
-108 c0 -59 -6 -136 -12 -170 l-13 -63 -888 0 c-791 0 -890 -3 -900 -32 -34
-88 -4 -90 930 -89 l883 2 0 -168 c0 -214 94 -195 -936 -192 -894 2 -919 0
-890 -74 6 -15 21 -27 33 -28 13 -1 421 0 908 1 l885 2 0 -171 0 -171 -909 0
c-933 0 -946 -1 -921 -80 12 -39 35 -40 916 -45 l904 -5 0 -170 0 -170 -730
-1 c-1129 -2 -1080 1 -1080 -59 l0 -50 911 0 910 0 -5 -295 -6 -295 -800 -6
c-440 -4 -901 0 -1025 7 l-225 13 0 1972 0 1971 43 47 c24 25 52 46 63 46 19
0 191 135 567 446 437 362 728 594 951 761 124 93 267 205 316 249 l90 79 6
-332 c3 -182 1 -343 -5 -357z"/>
</g>
</svg>
