<?xml version="1.0" standalone="no"?>
<!DOCTYPE svg PUBLIC "-//W3C//DTD SVG 20010904//EN"
 "http://www.w3.org/TR/2001/REC-SVG-20010904/DTD/svg10.dtd">
<svg version="1.0" xmlns="http://www.w3.org/2000/svg"
 width="216.000000pt" height="300.000000pt" viewBox="0 0 216.000000 300.000000"
 preserveAspectRatio="xMidYMid meet">
<metadata>
Created by potrace 1.10, written by Peter Selinger 2001-2011
</metadata>
<g transform="translate(0.000000,300.000000) scale(0.050000,-0.050000)"
fill="#000000" stroke="none">
<path d="M1560 4917 c-577 -585 -1066 -1086 -1085 -1115 -32 -48 -35 -174 -35
-1848 l0 -1795 -128 13 c-195 20 -276 -1 -268 -68 l6 -54 2110 0 c2070 0 2110
1 2117 39 13 68 -48 90 -210 78 l-147 -12 0 2277 0 2277 -635 636 c-350 349
-645 635 -655 634 -11 0 -492 -478 -1070 -1062z m1642 340 l578 -564 0 -2266
0 -2267 -345 0 -345 0 6 638 c7 785 57 702 -426 702 -481 0 -430 83 -430 -701
l0 -639 -447 0 c-246 0 -624 6 -840 13 l-393 13 0 1749 0 1748 644 -5 c567 -4
646 0 664 27 54 86 4 94 -628 100 l-595 5 982 1003 c541 552 986 1004 990
1005 4 1 267 -252 585 -561z m-218 -4487 l-5 -610 -310 0 -309 0 0 610 0 610
315 0 315 0 -6 -610z"/>
<path d="M2264 4576 c-17 -17 -24 -137 -24 -411 l0 -387 51 -51 51 -50 336 6
c247 5 345 14 369 34 54 46 49 833 -6 862 -56 31 -746 28 -777 -3z m716 -441
l0 -325 -310 6 -310 6 0 319 0 319 310 0 310 0 0 -325z"/>
<path d="M1164 2956 c-34 -34 -34 -728 1 -749 37 -23 681 -7 710 17 26 22 38
660 13 724 -16 41 -684 48 -724 8z m626 -376 l1 -280 -256 0 -255 0 0 280 0
280 255 0 255 0 0 -280z"/>
<path d="M2304 2945 c-27 -66 -17 -700 12 -729 50 -50 692 -48 743 3 46 46 63
642 20 722 -30 57 -751 60 -775 4z m676 -365 l0 -280 -277 0 c-152 0 -280 4
-285 8 -4 5 -5 131 -2 280 l6 272 279 0 279 0 0 -280z"/>
<path d="M1173 1475 c-30 -22 -33 -64 -28 -385 l5 -360 350 -5 c433 -7 400
-39 400 374 0 427 24 401 -377 401 -221 0 -326 -7 -350 -25z m607 -376 l0
-259 -260 0 -260 0 0 265 0 265 260 -6 260 -6 0 -259z"/>
</g>
</svg>
