<?xml version="1.0" standalone="no"?>
<!DOCTYPE svg PUBLIC "-//W3C//DTD SVG 20010904//EN"
 "http://www.w3.org/TR/2001/REC-SVG-20010904/DTD/svg10.dtd">
<svg version="1.0" xmlns="http://www.w3.org/2000/svg"
 width="159.000000pt" height="300.000000pt" viewBox="0 0 159.000000 300.000000"
 preserveAspectRatio="xMidYMid meet">
<metadata>
Created by potrace 1.10, written by Peter Selinger 2001-2011
</metadata>
<g transform="translate(0.000000,300.000000) scale(0.050000,-0.050000)"
fill="#000000" stroke="none">
<path d="M918 5895 c-1 -14 0 -165 2 -336 4 -384 14 -370 -249 -353 -142 10
-192 6 -209 -14 -15 -18 -23 -753 -27 -2513 l-5 -2488 -173 6 c-163 6 -175 3
-198 -39 -53 -100 -70 -99 1550 -93 l1501 5 0 50 c0 49 -3 50 -190 60 l-190
10 -5 2838 c-4 2057 -11 2845 -28 2865 -31 38 -1776 40 -1779 2z m1677 -2900
l-5 -2805 -507 4 c-279 1 -508 6 -510 10 -2 3 2 1068 7 2366 11 2503 10 2608
-27 2620 -13 4 -138 13 -278 21 l-255 13 0 277 c0 246 4 277 35 285 19 5 375
10 790 12 l756 2 -6 -2805z m-1122 2030 c-7 -30 -18 -1128 -26 -2439 -10
-1689 -20 -2386 -35 -2390 -12 -3 -206 -2 -432 4 l-410 10 -5 2435 -5 2435
462 0 463 0 -12 -55z"/>
<path d="M1853 5190 c-21 -54 -17 -4614 4 -4635 10 -10 35 -16 56 -12 39 8 80
4515 42 4632 -16 51 -85 61 -102 15z"/>
<path d="M2224 5196 c-45 -45 -34 -4629 12 -4654 87 -46 85 -103 85 2317 -1
2444 -1 2433 -97 2337z"/>
<path d="M827 4630 c-29 -77 4 -90 223 -90 221 0 268 20 210 90 -36 44 -416
43 -433 0z"/>
<path d="M830 4080 c-22 -70 6 -80 222 -80 219 0 266 20 208 90 -43 51 -413
43 -430 -10z"/>
<path d="M833 3527 c-71 -71 5 -107 226 -107 183 0 239 24 214 90 -12 31 -410
47 -440 17z"/>
<path d="M841 2971 c-59 -70 -7 -95 207 -98 206 -2 280 27 219 88 -41 41 -393
50 -426 10z"/>
<path d="M849 2414 c-39 -21 -37 -87 3 -102 152 -58 465 5 415 84 -22 36 -361
50 -418 18z"/>
<path d="M832 1827 c-26 -67 25 -87 218 -87 193 0 249 23 223 90 -18 46 -423
44 -441 -3z"/>
<path d="M840 1290 c-58 -70 -11 -90 208 -90 217 0 246 12 209 85 -25 48 -378
52 -417 5z"/>
</g>
</svg>
