<?xml version="1.0" standalone="no"?>
<!DOCTYPE svg PUBLIC "-//W3C//DTD SVG 20010904//EN"
 "http://www.w3.org/TR/2001/REC-SVG-20010904/DTD/svg10.dtd">
<svg version="1.0" xmlns="http://www.w3.org/2000/svg"
 width="173.000000pt" height="300.000000pt" viewBox="0 0 173.000000 300.000000"
 preserveAspectRatio="xMidYMid meet">
<metadata>
Created by potrace 1.10, written by Peter Selinger 2001-2011
</metadata>
<g transform="translate(0.000000,300.000000) scale(0.050000,-0.050000)"
fill="#000000" stroke="none">
<path d="M1673 5947 c-7 -8 -13 -120 -13 -250 l0 -237 -196 0 c-249 0 -244 6
-244 -274 l0 -226 -106 0 c-150 0 -154 -7 -154 -309 -1 -308 0 -307 -140 -315
l-110 -6 -6 -304 -5 -304 -135 -6 -134 -6 -5 -1785 -5 -1785 -191 0 c-187 0
-192 -1 -185 -45 9 -63 234 -71 1946 -72 1392 -1 1440 1 1427 69 -7 34 -30 39
-202 44 l-195 5 0 1776 c0 1988 15 1823 -165 1823 l-118 0 3 275 c2 151 2 286
1 300 -1 17 -39 25 -121 25 l-120 0 0 279 c0 332 -5 341 -178 341 l-116 0 -14
234 c-17 275 -7 265 -237 266 l-175 0 0 226 c0 243 -36 331 -107 261z m407
-709 c0 -51 6 -134 13 -185 l12 -93 -380 0 c-432 0 -405 -12 -405 177 1 208
-30 193 391 193 l369 0 0 -92z m304 -693 l6 -295 70 -3 c39 -2 95 -4 124 -5
l55 -2 5 -305 6 -305 125 -2 126 -3 4 -1742 5 -1743 -205 0 -205 0 0 1671 c0
1531 -3 1671 -33 1683 -88 34 -88 32 -82 -1708 l5 -1646 -186 0 -185 0 2 2113
c2 2229 4 2173 -85 2125 -35 -19 -36 -106 -31 -2129 l5 -2109 -195 0 -195 0
-5 2115 -5 2115 -50 0 -50 0 0 -2115 0 -2115 -175 0 -176 0 1 1665 c0 916 1
1677 0 1691 0 16 -18 24 -45 20 l-45 -6 -5 -1685 -5 -1685 -210 0 -210 0 0
1740 0 1740 130 0 c159 0 156 -7 147 358 l-7 262 101 0 c146 0 149 7 149 324
l0 276 659 0 660 0 5 -295z"/>
</g>
</svg>
