<?xml version="1.0" standalone="no"?>
<!DOCTYPE svg PUBLIC "-//W3C//DTD SVG 20010904//EN"
 "http://www.w3.org/TR/2001/REC-SVG-20010904/DTD/svg10.dtd">
<svg version="1.0" xmlns="http://www.w3.org/2000/svg"
 width="246.000000pt" height="300.000000pt" viewBox="0 0 246.000000 300.000000"
 preserveAspectRatio="xMidYMid meet">
<metadata>
Created by potrace 1.10, written by Peter Selinger 2001-2011
</metadata>
<g transform="translate(0.000000,300.000000) scale(0.050000,-0.050000)"
fill="#000000" stroke="none">
<path d="M1005 5947 c-18 -8 -25 -88 -25 -305 0 -376 12 -360 -270 -367 l-220
-5 -10 -2530 -10 -2530 -190 -10 c-187 -10 -190 -11 -196 -62 -9 -79 -30 -78
2456 -78 2454 0 2356 -4 2301 99 -19 35 -42 41 -157 41 -74 0 -154 6 -179 13
l-45 12 -5 2522 -5 2523 -250 1 -250 1 -4 327 c-2 246 -10 331 -30 344 -27 17
-2868 21 -2911 4z m2770 -154 c18 -11 25 -86 25 -261 l0 -246 -255 -13 c-317
-16 -2371 -17 -2412 -1 -17 6 -27 22 -22 35 5 12 13 122 17 243 4 121 9 226
10 234 4 30 2590 39 2637 9z m521 -978 l5 -295 -1809 0 c-995 0 -1823 5 -1840
12 -30 12 -52 542 -24 570 5 4 831 8 1835 8 l1827 0 6 -295z m0 -735 l-6 -280
-1830 -2 -1830 -1 -6 255 c-3 141 -1 268 5 282 8 21 355 26 1841 26 l1831 0
-5 -280z m0 -724 l-6 -286 -1800 -10 c-2117 -12 -1870 -52 -1870 303 0 229 2
239 45 255 25 10 853 19 1841 21 l1795 3 -5 -286z m0 -731 l-6 -275 -1830 0
-1830 0 -6 275 -5 275 1841 0 1841 0 -5 -275z m4 -715 l0 -290 -1525 0 c-839
0 -1667 6 -1840 13 l-314 13 10 261 c7 174 18 267 35 277 13 8 836 16 1829 16
l1805 0 0 -290z m3 -700 c-4 -143 -17 -271 -28 -285 -16 -20 -391 -24 -1833
-20 l-1812 5 -6 230 c-7 272 1 314 61 326 25 5 851 8 1835 6 l1790 -2 -7 -260z
m-7 -480 c19 -7 24 -71 20 -265 l-6 -255 -1845 -5 -1845 -5 0 268 c0 161 8
271 20 275 31 11 3627 -2 3656 -13z"/>
</g>
</svg>
