<?xml version="1.0" standalone="no"?>
<!DOCTYPE svg PUBLIC "-//W3C//DTD SVG 20010904//EN"
 "http://www.w3.org/TR/2001/REC-SVG-20010904/DTD/svg10.dtd">
<svg version="1.0" xmlns="http://www.w3.org/2000/svg"
 width="205.000000pt" height="300.000000pt" viewBox="0 0 205.000000 300.000000"
 preserveAspectRatio="xMidYMid meet">
<metadata>
Created by potrace 1.10, written by Peter Selinger 2001-2011
</metadata>
<g transform="translate(0.000000,300.000000) scale(0.050000,-0.050000)"
fill="#000000" stroke="none">
<path d="M483 5933 c-17 -20 -24 -810 -28 -2875 l-5 -2848 -180 -10 c-180 -10
-236 -42 -177 -101 42 -42 3919 -28 3935 14 26 65 -25 87 -205 87 l-173 0 0
2847 c0 2384 -4 2852 -27 2880 -38 45 -3103 51 -3140 6z m3030 -120 c10 -9 19
-1276 22 -2815 l6 -2798 -1469 0 c-916 0 -1474 7 -1481 19 -7 11 -6 1275 2
2810 l14 2791 811 6 c1311 10 2078 5 2095 -13z"/>
<path d="M994 5347 c-8 -7 -14 -138 -14 -291 l0 -277 255 5 255 6 0 280 0 280
-241 6 c-133 3 -247 -1 -255 -9z m376 -271 l-1 -166 -135 -6 -134 -6 0 170 0
170 125 6 c69 3 130 4 136 2 6 -1 10 -78 9 -170z"/>
<path d="M1800 5071 l0 -291 239 0 c288 0 271 -21 271 320 l0 250 -255 6 -255
5 0 -290z m400 29 c0 -197 -2 -200 -152 -200 l-128 0 0 175 0 175 140 -7 140
-6 0 -137z"/>
<path d="M2674 5347 c-8 -7 -14 -138 -14 -290 l0 -277 239 0 c293 0 292 -1
245 440 l-14 130 -221 6 c-122 3 -227 -1 -235 -9z m366 -204 c0 -51 6 -127 13
-169 l13 -76 -138 6 -138 6 -6 170 -5 170 130 -7 131 -6 0 -94z"/>
<path d="M993 4307 c-24 -25 -15 -537 11 -563 25 -25 404 -35 464 -12 41 16
48 524 8 564 -26 26 -458 35 -483 11z m382 -282 l-7 -175 -134 -6 -134 -6 0
181 0 181 141 0 140 0 -6 -175z"/>
<path d="M1822 4292 c-16 -18 -21 -115 -18 -295 l6 -267 227 -6 c150 -3 237 2
255 18 37 30 40 518 4 554 -36 36 -444 33 -474 -4z m378 -247 c-1 -202 -5
-208 -160 -201 l-126 6 -9 175 -9 175 152 0 152 0 0 -155z"/>
<path d="M2669 4294 c-6 -14 -8 -147 -5 -295 l6 -269 217 -6 c143 -3 227 3
245 18 29 24 42 478 16 546 -16 43 -463 48 -479 6z m371 -274 l0 -180 -130 0
-130 0 0 180 0 180 130 0 130 0 0 -180z"/>
<path d="M993 3247 c-31 -32 -14 -562 19 -575 60 -23 439 -13 464 12 25 25 35
483 12 544 -13 33 -463 50 -495 19z m377 -277 l1 -170 -134 0 c-160 0 -169 13
-147 212 l13 128 134 0 133 0 0 -170z"/>
<path d="M1809 3235 c-6 -15 -8 -148 -5 -295 l6 -268 223 -6 c299 -9 290 -19
283 321 l-6 263 -245 6 c-190 4 -248 -1 -256 -21z m387 -260 l-6 -165 -135
-10 -135 -10 0 175 0 175 141 0 141 0 -6 -165z"/>
<path d="M2669 3235 c-6 -15 -8 -148 -5 -296 l6 -269 222 -6 c283 -7 271 -21
264 319 l-6 267 -235 6 c-182 4 -238 -1 -246 -21z m367 -260 l6 -175 -131 0
-131 0 0 169 0 169 95 7 c163 14 154 23 161 -170z"/>
<path d="M989 2174 c-6 -14 -8 -147 -5 -295 l6 -269 240 0 240 0 6 295 5 295
-241 0 c-180 0 -244 -7 -251 -26z m378 -254 l-2 -170 -124 -10 c-153 -12 -141
-28 -141 184 l0 178 134 -6 134 -6 -1 -170z"/>
<path d="M1800 1924 c0 -339 -12 -324 263 -324 264 0 257 -8 257 307 0 316 21
293 -272 293 l-248 0 0 -276z m397 106 c4 -33 1 -117 -7 -186 l-13 -126 -124
6 -123 6 -6 158 c-8 216 -9 215 141 208 122 -6 125 -7 132 -66z"/>
<path d="M2664 1923 c13 -346 -5 -323 245 -323 263 0 254 -13 247 323 l-6 267
-248 6 -248 5 10 -278z m311 165 c74 -15 92 -80 73 -254 l-13 -116 -123 6
-122 6 -6 158 c-8 223 5 237 191 200z"/>
<path d="M1002 1132 c-16 -18 -21 -115 -18 -295 l6 -267 235 -6 236 -5 19 52
c26 67 2 514 -28 534 -42 28 -425 17 -450 -13z m367 -272 l1 -170 -130 0 -130
0 -6 174 -6 174 135 -4 134 -4 2 -170z"/>
<path d="M1824 1136 c-33 -33 -33 -519 0 -552 33 -33 398 -32 440 1 50 39 72
496 26 542 -41 41 -426 49 -466 9z m359 -266 c-8 -193 -3 -187 -158 -175
l-125 10 0 156 c0 178 -1 177 180 172 l110 -3 -7 -160z"/>
</g>
</svg>
