 <svg  version="1.0" xmlns="http://www.w3.org/2000/svg"  width="300.000000pt" height="300.000000pt" viewBox="0 0 300.000000 300.000000"  preserveAspectRatio="xMidYMid meet">  <g transform="translate(0.000000,300.000000) scale(0.050000,-0.050000)" fill="#ffffff" stroke="none"> <path d="M2660 5369 c-263 -69 -645 -315 -614 -396 25 -65 70 -57 181 34 438 356 1025 359 1489 8 208 -157 295 -67 91 93 -326 256 -775 358 -1147 261z"/> <path d="M2700 4983 c-194 -63 -397 -211 -373 -273 22 -57 71 -55 148 5 296 234 698 239 994 13 142 -108 243 -36 109 77 -228 194 -595 268 -878 178z"/> <path d="M2797 4630 c-109 -35 -223 -132 -206 -177 21 -54 69 -53 153 2 122 80 351 80 472 0 98 -65 92 -64 133 -24 121 122 -309 277 -552 199z"/> <path d="M2864 4279 c-75 -15 -469 -238 -1672 -946 -220 -129 -212 -98 -212 -835 0 -623 1 -633 45 -696 51 -72 1611 -1019 1766 -1071 112 -38 254 -40 375 -3 148 44 1733 1009 1777 1081 34 56 37 114 37 706 l0 644 -55 59 c-55 59 -1527 929 -1715 1013 -123 56 -233 71 -346 48z m1105 -630 c1014 -592 984 -562 724 -713 -79 -45 -455 -265 -837 -489 -940 -551 -829 -541 -1514 -138 -248 146 -623 365 -832 487 -489 284 -490 288 -170 475 116 68 482 282 815 477 724 424 705 414 847 406 107 -6 160 -33 967 -505z m-1929 -1315 c681 -397 728 -422 825 -443 l55 -12 0 -527 0 -526 -52 9 c-61 12 -1711 996 -1732 1033 -11 19 -24 837 -17 996 1 8 57 -20 126 -62 69 -42 426 -253 795 -468z m2820 58 c0 -436 -4 -492 -35 -527 -31 -35 -1470 -907 -1639 -992 -152 -78 -146 -96 -146 487 l0 519 55 12 c30 6 84 24 120 40 74 32 1565 903 1594 931 45 43 51 -8 51 -470z"/> <path d="M3075 3805 c-18 -19 -62 -116 -99 -215 l-67 -180 -284 -10 c-382 -13 -420 -62 -192 -249 152 -125 155 -105 -24 -208 -309 -179 -297 -297 30 -287 l182 6 -13 -79 c-24 -151 112 -151 163 0 l22 67 218 6 c305 8 329 44 189 284 -44 75 -80 141 -80 146 0 5 77 15 171 22 432 35 653 287 438 501 -88 89 -133 89 -266 -1 -58 -39 -108 -68 -110 -65 -3 4 -26 57 -53 117 -61 139 -95 180 -150 180 -24 0 -58 -16 -75 -35z m113 -379 c-19 -14 -55 -26 -80 -26 l-43 0 42 114 41 114 39 -88 c36 -84 36 -88 1 -114z m459 50 c30 -48 -35 -133 -137 -178 -79 -35 -353 -79 -330 -53 30 34 413 273 429 268 10 -3 27 -20 38 -37z m-799 -245 c-7 -16 -43 -48 -81 -70 l-70 -42 -79 62 c-102 81 -104 79 81 79 132 0 158 -5 149 -29z m176 -291 l74 -140 -130 0 c-95 0 -129 7 -124 25 25 94 85 255 95 255 6 -1 44 -64 85 -140z m-317 -56 l-33 -84 -110 0 -111 0 138 89 c161 103 158 103 116 -5z"/> </g> </svg> 