<?xml version="1.0" standalone="no"?>
<!DOCTYPE svg PUBLIC "-//W3C//DTD SVG 20010904//EN"
 "http://www.w3.org/TR/2001/REC-SVG-20010904/DTD/svg10.dtd">
<svg version="1.0" xmlns="http://www.w3.org/2000/svg"
 width="900.000000pt" height="162.000000pt" viewBox="0 0 900.000000 162.000000"
 preserveAspectRatio="xMidYMid meet">
<metadata>
Created by potrace 1.10, written by Peter Selinger 2001-2011
</metadata>
<g transform="translate(0.000000,162.000000) scale(0.100000,-0.100000)"
fill="#000000" stroke="none">
<path d="M1886 1583 c-3 -21 -6 -144 -6 -273 l1 -235 26 -19 c24 -17 38 -18
179 -12 l154 7 -2 -256 -3 -256 -1090 0 c-633 1 -1096 -3 -1104 -8 -12 -7 -14
-54 -12 -262 1 -139 5 -257 7 -261 3 -4 2005 -8 4448 -8 l4444 0 5 25 c2 14 5
128 6 254 2 201 0 230 -14 245 -15 15 -106 16 -1103 16 l-1086 -1 0 253 1 253
152 -4 c135 -3 154 -2 171 14 19 17 20 32 20 254 0 130 -3 253 -6 274 l-7 37
-2587 0 -2587 0 -7 -37z m5088 -243 l0 -175 -2487 -3 -2487 -2 0 180 0 180
2487 -2 2488 -3 -1 -175z m-352 -587 c0 -112 -1 -206 -1 -210 -1 -8 -4261 -7
-4268 0 -3 3 -6 341 -3 405 0 10 431 12 2137 10 l2136 -3 -1 -202z m2214 -496
l1 -177 -4345 -2 c-2887 -2 -4346 0 -4350 7 -4 6 -6 87 -4 180 l3 170 4347 0
4347 -1 1 -177z"/>
</g>
</svg>
