<?xml version="1.0" standalone="no"?>
<!DOCTYPE svg PUBLIC "-//W3C//DTD SVG 20010904//EN"
 "http://www.w3.org/TR/2001/REC-SVG-20010904/DTD/svg10.dtd">
<svg version="1.0" xmlns="http://www.w3.org/2000/svg"
 width="900.000000pt" height="120.000000pt" viewBox="0 0 900.000000 120.000000"
 preserveAspectRatio="xMidYMid meet">
<metadata>
Created by potrace 1.10, written by Peter Selinger 2001-2011
</metadata>
<g transform="translate(0.000000,120.000000) scale(0.100000,-0.100000)"
fill="#000000" stroke="none">
<path d="M1490 600 l0 -600 945 0 945 0 0 600 0 600 -945 0 -945 0 0 -600z
m1800 519 c3 -98 0 -1043 -3 -1045 -5 -6 -1709 -6 -1714 0 -6 6 -4 1036 2
1046 8 12 1715 11 1715 -1z"/>
<path d="M1807 952 c-15 -3 -17 -32 -17 -317 0 -260 2 -315 14 -325 22 -17
476 -16 505 2 21 13 21 18 21 321 0 259 -2 309 -14 313 -16 6 -481 11 -509 6z
m213 -82 c1 -5 1 -117 1 -247 l1 -238 -72 0 -73 0 1 238 c0 130 1 242 1 247 1
6 31 10 71 10 40 0 70 -4 70 -10z m222 -225 c0 -129 1 -241 2 -247 1 -9 -22
-14 -74 -16 l-75 -3 1 248 c1 136 2 249 3 251 0 1 33 2 71 2 l70 0 2 -235z"/>
<path d="M2610 952 c-6 -2 -10 -118 -10 -322 0 -310 1 -319 20 -325 11 -4 121
-7 245 -7 165 0 229 3 240 12 13 11 15 60 15 321 0 218 -3 310 -11 315 -11 7
-479 12 -499 6z m214 -70 c3 -5 6 -118 7 -253 l1 -244 -76 -3 -76 -3 0 249 c0
137 3 252 7 255 9 10 131 9 137 -1z m224 -249 l2 -253 -75 0 -75 0 0 255 0
256 73 -3 72 -3 3 -252z"/>
<path d="M5600 600 l0 -600 945 0 945 0 1 143 c2 386 2 690 1 865 l-2 192
-945 0 -945 0 0 -600z m1800 525 c13 -4 15 -70 13 -526 -1 -287 -4 -523 -6
-525 -2 -3 -391 -4 -863 -5 l-859 0 -2 518 c-1 285 0 523 2 529 2 9 231 12
852 12 466 1 855 -1 863 -3z"/>
<path d="M5869 946 c-5 -6 -9 -136 -9 -317 0 -261 2 -308 15 -319 18 -15 483
-16 497 -2 9 9 13 630 5 639 -10 9 -498 8 -508 -1z m211 -315 c0 -138 -3 -251
-7 -253 -5 -2 -38 -2 -75 0 l-68 4 0 242 c0 134 3 246 7 249 3 4 37 7 75 7
l68 0 0 -249z m215 238 c4 -5 7 -117 7 -247 l0 -237 -69 -3 -68 -3 1 248 c1
136 2 249 3 251 3 8 121 0 126 -9z"/>
<path d="M6678 951 c-7 -2 -16 -9 -20 -15 -4 -6 -8 -144 -8 -307 0 -279 1
-297 19 -313 17 -16 45 -18 250 -18 127 0 239 3 251 7 20 6 20 13 20 326 0
248 -3 319 -12 320 -65 3 -491 3 -500 0z m212 -316 l0 -255 -75 0 -75 0 0 248
c0 137 3 252 7 255 3 4 37 7 75 7 l68 0 0 -255z m213 0 l-1 -250 -68 -3 -69
-3 2 253 c1 139 2 254 2 256 1 2 31 2 68 0 l67 -3 -1 -250z"/>
<path d="M3693 953 c-10 -4 -13 -63 -13 -250 l0 -246 -55 7 c-98 11 -95 20
-95 -239 l0 -225 960 0 960 0 0 225 c0 259 3 250 -95 239 l-55 -7 0 247 c0
135 -3 247 -7 247 -36 8 -562 4 -577 -3 -17 -9 -18 -24 -15 -246 l4 -235 -213
-1 -212 -1 0 243 c0 133 -3 243 -7 244 -19 3 -569 4 -580 1z m252 -278 l0
-210 -89 0 -90 0 0 208 c-1 115 1 211 4 213 2 3 43 3 90 2 l85 -3 0 -210z
m249 0 l0 -210 -90 0 -89 0 -1 205 c-1 113 1 209 3 213 3 4 43 6 91 5 l86 -3
0 -210z m771 0 l0 -210 -84 -3 c-46 -2 -87 1 -90 7 -3 5 -5 102 -3 215 l3 207
87 -3 87 -3 0 -210z m250 0 l0 -210 -89 0 -89 0 1 208 c0 114 1 209 1 212 1 3
40 4 89 3 l87 -3 0 -210z m-758 -411 l-2 -117 -420 1 -420 0 0 108 c-1 60 1
112 3 117 2 4 192 7 422 7 l418 0 -1 -116z m908 -3 l0 -114 -415 0 -415 0 -5
109 c-3 60 -4 112 -2 117 2 4 191 6 420 5 l417 -3 0 -114z m7 -189 c10 -10 10
-15 -2 -22 -9 -6 -356 -10 -881 -10 -707 0 -869 2 -878 13 -6 8 -7 17 -1 23 5
5 359 9 879 9 698 0 873 -3 883 -13z"/>
</g>
</svg>
