<?xml version="1.0" standalone="no"?>
<!DOCTYPE svg PUBLIC "-//W3C//DTD SVG 20010904//EN"
 "http://www.w3.org/TR/2001/REC-SVG-20010904/DTD/svg10.dtd">
<svg version="1.0" xmlns="http://www.w3.org/2000/svg"
 width="291.000000pt" height="216.000000pt" viewBox="0 0 291.000000 216.000000"
 preserveAspectRatio="xMidYMid meet">
<metadata>
Created by potrace 1.10, written by Peter Selinger 2001-2011
</metadata>
<g transform="translate(0.000000,216.000000) scale(0.050000,-0.050000)"
fill="#000000" stroke="none">
<path d="M2870 4217 c-668 -49 -1370 -741 -1370 -1349 0 -62 -3 -64 -106 -77
-1270 -158 -1730 -1823 -704 -2547 l60 -43 -313 0 c-334 -1 -375 -13 -347
-100 l13 -41 2803 5 2804 5 0 60 0 60 -320 10 -320 10 73 45 c40 25 130 107
200 182 715 765 426 1933 -478 1933 -186 0 -224 5 -215 28 141 369 -23 1003
-349 1349 -362 384 -773 519 -1431 470z m690 -186 c716 -198 1155 -1005 919
-1688 -55 -160 -29 -209 90 -166 1120 405 1430 -1335 334 -1881 l-173 -86
-1821 0 -1821 0 -154 76 c-1114 551 -739 2216 530 2352 164 17 154 8 178 173
81 576 462 1035 1001 1208 203 64 704 71 917 12z"/>
</g>
</svg>
