<?xml version="1.0" standalone="no"?>
<!DOCTYPE svg PUBLIC "-//W3C//DTD SVG 20010904//EN"
 "http://www.w3.org/TR/2001/REC-SVG-20010904/DTD/svg10.dtd">
<svg version="1.0" xmlns="http://www.w3.org/2000/svg"
 width="300.000000pt" height="143.000000pt" viewBox="0 0 300.000000 143.000000"
 preserveAspectRatio="xMidYMid meet">
<metadata>
Created by potrace 1.10, written by Peter Selinger 2001-2011
</metadata>
<g transform="translate(0.000000,143.000000) scale(0.050000,-0.050000)"
fill="#000000" stroke="none">
<path d="M2990 2827 c-485 -78 -861 -383 -1029 -834 -24 -65 -22 -65 -219 18
-524 219 -1171 -184 -1236 -770 l-16 -147 -108 -37 c-476 -161 -460 -843 24
-987 134 -40 5106 -46 5238 -6 409 122 410 732 1 837 l-101 26 -9 141 c-30
502 -563 883 -1014 725 -101 -35 -121 -29 -121 37 0 245 -309 678 -602 845
-220 125 -568 191 -808 152z m457 -179 c418 -108 746 -468 818 -900 31 -187
41 -193 223 -119 440 175 886 -142 898 -638 5 -199 6 -201 163 -222 268 -35
352 -392 125 -530 -89 -54 -5140 -62 -5269 -8 -374 156 -255 709 153 709 92 0
100 14 87 153 -62 634 712 1054 1242 674 131 -94 150 -85 195 89 149 591 764
947 1365 792z"/>
</g>
</svg>
