<?xml version="1.0" standalone="no"?>
<!DOCTYPE svg PUBLIC "-//W3C//DTD SVG 20010904//EN"
 "http://www.w3.org/TR/2001/REC-SVG-20010904/DTD/svg10.dtd">
<svg version="1.0" xmlns="http://www.w3.org/2000/svg"
 width="218.000000pt" height="248.000000pt" viewBox="0 0 218.000000 248.000000"
 preserveAspectRatio="xMidYMid meet">
<metadata>
Created by potrace 1.10, written by Peter Selinger 2001-2011
</metadata>
<g transform="translate(0.000000,248.000000) scale(0.050000,-0.050000)"
fill="#000000" stroke="none">
<path d="M2010 4846 c-336 -174 -589 -602 -590 -1001 l0 -85 -133 0 c-129 0
-136 -3 -207 -77 -136 -143 -260 -640 -260 -1040 l0 -183 -160 0 c-254 0 -309
-104 -308 -580 3 -645 222 -1193 625 -1562 l130 -119 -498 1 c-275 1 -510 1
-523 1 -35 -1 -53 -79 -25 -112 21 -25 312 -29 2121 -29 l2097 0 13 51 c22 89
0 93 -502 90 l-473 -3 131 123 c388 363 632 1024 607 1645 -17 417 -66 494
-314 494 l-151 0 7 143 c8 179 -43 489 -121 737 -106 337 -180 420 -372 420
l-98 0 -14 150 c-60 663 -571 1150 -982 936z m320 -128 c282 -148 444 -398
483 -743 41 -362 42 -364 227 -371 81 -3 161 -16 176 -29 118 -98 237 -651
218 -1019 -14 -260 -20 -253 237 -260 l199 -6 24 -130 c126 -667 -291 -1648
-808 -1903 -129 -63 -1513 -85 -1693 -27 -566 185 -1021 1211 -866 1950 l23
110 189 6 c246 7 233 -11 247 359 13 349 77 715 152 860 l43 85 154 0 c209 1
200 -11 257 342 57 350 83 407 282 602 209 204 319 246 456 174z"/>
</g>
</svg>
