<?xml version="1.0" standalone="no"?>
<!DOCTYPE svg PUBLIC "-//W3C//DTD SVG 20010904//EN"
 "http://www.w3.org/TR/2001/REC-SVG-20010904/DTD/svg10.dtd">
<svg version="1.0" xmlns="http://www.w3.org/2000/svg"
 width="300.000000pt" height="148.000000pt" viewBox="0 0 300.000000 148.000000"
 preserveAspectRatio="xMidYMid meet">
<metadata>
Created by potrace 1.10, written by Peter Selinger 2001-2011
</metadata>
<g transform="translate(0.000000,148.000000) scale(0.050000,-0.050000)"
fill="#000000" stroke="none">
<path d="M3200 2887 c-538 -79 -903 -372 -1052 -847 -19 -60 -35 -112 -37
-114 -1 -2 -43 10 -92 28 -140 51 -512 45 -679 -12 -680 -230 -916 -1086 -459
-1664 l62 -78 -396 12 c-444 14 -486 5 -460 -99 l14 -53 2904 5 2905 5 6 52
c11 94 -23 102 -415 95 -394 -8 -397 -7 -283 72 43 30 120 107 171 171 608
775 0 1694 -944 1428 -39 -11 -45 -5 -45 45 -2 525 -644 1035 -1200 954z m302
-167 c461 -87 798 -510 748 -940 -17 -149 44 -207 119 -114 97 123 526 150
736 47 565 -276 472 -1122 -158 -1440 l-104 -52 -1854 -2 -1855 -1 -76 74
c-443 432 -317 1212 238 1474 220 105 781 85 810 -28 15 -57 111 -51 122 7 42
217 61 283 112 391 215 455 660 678 1162 584z"/>
</g>
</svg>
