<?xml version="1.0" standalone="no"?>
<!DOCTYPE svg PUBLIC "-//W3C//DTD SVG 20010904//EN"
 "http://www.w3.org/TR/2001/REC-SVG-20010904/DTD/svg10.dtd">
<svg version="1.0" xmlns="http://www.w3.org/2000/svg"
 width="300.000000pt" height="146.000000pt" viewBox="0 0 300.000000 146.000000"
 preserveAspectRatio="xMidYMid meet">
<metadata>
Created by potrace 1.10, written by Peter Selinger 2001-2011
</metadata>
<g transform="translate(0.000000,146.000000) scale(0.050000,-0.050000)"
fill="#000000" stroke="none">
<path d="M2364 2850 c-492 -107 -944 -614 -944 -1059 l0 -61 -235 0 c-437 0
-722 -255 -758 -677 -10 -118 -20 -153 -43 -153 -17 0 -68 -22 -114 -49 -277
-163 -280 -545 -5 -727 l82 -54 2592 0 c2501 0 2593 1 2661 38 569 306 368
1092 -278 1092 l-137 0 -14 95 c-71 510 -727 861 -1198 640 -149 -70 -149 -70
-164 20 -103 597 -808 1033 -1445 895z m527 -161 c403 -103 707 -434 790 -858
36 -191 67 -208 203 -116 480 320 1079 33 1145 -549 19 -158 33 -170 171 -134
536 140 816 -569 308 -782 -128 -53 -5074 -45 -5162 9 -240 147 -138 501 145
501 113 0 130 25 106 157 -46 250 80 487 323 612 165 84 264 84 486 -1 140
-54 159 -35 165 173 22 672 668 1156 1320 988z"/>
</g>
</svg>
