<?xml version="1.0" standalone="no"?>
<!DOCTYPE svg PUBLIC "-//W3C//DTD SVG 20010904//EN"
 "http://www.w3.org/TR/2001/REC-SVG-20010904/DTD/svg10.dtd">
<svg version="1.0" xmlns="http://www.w3.org/2000/svg"
 width="263.000000pt" height="95.000000pt" viewBox="0 0 263.000000 95.000000"
 preserveAspectRatio="xMidYMid meet">
<metadata>
Created by potrace 1.10, written by Peter Selinger 2001-2011
</metadata>
<g transform="translate(0.000000,95.000000) scale(0.050000,-0.050000)"
fill="#000000" stroke="none">
<path d="M1773 1839 c-217 -36 -444 -203 -543 -400 l-49 -95 -120 11 c-291 26
-541 -175 -541 -437 0 -41 -17 -53 -115 -82 -403 -120 -469 -611 -102 -764
101 -42 4820 -51 4871 -9 42 35 24 227 -33 346 -126 260 -462 418 -689 323
-42 -18 -79 -32 -82 -32 -3 0 -16 26 -29 57 -114 275 -607 430 -840 264 l-57
-41 -11 46 c-53 209 -420 381 -657 308 l-94 -29 -51 105 c-100 205 -345 383
-590 430 -118 22 -130 22 -268 -1z m420 -210 c175 -85 316 -265 379 -484 9
-34 77 -32 147 4 239 124 533 -9 611 -277 40 -137 88 -148 190 -42 203 209
621 84 708 -211 37 -126 69 -138 188 -73 237 129 575 -30 617 -291 l11 -65
-2328 2 c-1705 1 -2339 8 -2370 25 -248 132 -101 483 202 483 108 0 120 17
122 161 4 268 255 422 498 306 86 -41 122 -19 151 91 96 356 529 540 874 371z"/>
</g>
</svg>
