 <svg  version="1.0" xmlns="http://www.w3.org/2000/svg"  width="300.000000pt" height="300.000000pt" viewBox="0 0 300.000000 300.000000"  preserveAspectRatio="xMidYMid meet">  <g transform="translate(0.000000,300.000000) scale(0.050000,-0.050000)" fill="#ffffff" stroke="none"> <path d="M2800 5748 c-338 -61 -772 -321 -707 -424 37 -59 84 -50 182 36 389 343 1080 343 1452 1 94 -87 143 -97 180 -37 113 179 -715 495 -1107 424z"/> <path d="M2736 5381 c-230 -73 -435 -228 -396 -300 31 -59 66 -51 185 39 273 209 677 209 950 0 120 -91 154 -98 186 -39 19 36 12 51 -46 105 -215 202 -594 286 -879 195z"/> <path d="M2823 5050 c-140 -43 -246 -127 -239 -188 9 -74 55 -73 176 2 155 96 353 97 489 1 107 -76 141 -80 171 -24 74 138 -350 286 -597 209z"/> <path d="M2250 4613 c-119 -40 -551 -271 -617 -331 -119 -107 -116 -65 -115 -1525 l2 -1338 50 -99 c64 -126 178 -211 324 -241 l112 -23 -98 -57 c-124 -73 -148 -107 -148 -213 0 -105 -1 -105 330 -176 132 -28 531 -119 888 -202 l647 -151 123 86 c513 361 490 343 491 413 1 89 -30 142 -100 172 l-58 24 152 126 c244 204 226 78 227 1573 0 1480 6 1426 -167 1598 -131 131 -116 127 -1033 262 -922 136 -912 135 -1010 102z m979 -235 c899 -134 935 -144 1026 -282 l55 -83 5 -1319 c7 -1504 25 -1353 -185 -1531 l-120 -102 -10 1354 c-8 1055 -16 1368 -36 1415 -34 77 -155 202 -222 228 -46 18 -1136 200 -1581 264 l-168 24 98 50 c247 127 151 129 1138 -18z m-452 -289 c519 -86 932 -164 958 -180 127 -83 125 -61 125 -1440 l0 -1253 -55 14 c-77 19 -957 211 -1565 341 -280 60 -530 114 -555 119 l-45 11 0 1170 c0 1257 1 1265 102 1336 64 45 16 51 1035 -118z m-26 -2769 c561 -121 1040 -220 1065 -220 53 0 59 -54 14 -141 -37 -71 -124 -119 -215 -119 -77 0 -1737 369 -1790 398 -128 68 -250 344 -140 314 25 -6 504 -111 1066 -232z m130 -472 c775 -175 816 -178 973 -62 91 66 105 71 171 53 125 -35 106 -63 -167 -253 l-258 -179 -835 189 c-459 104 -846 192 -860 196 -46 12 -4 58 121 132 157 94 76 101 855 -76z"/> <path d="M2506 3672 c-833 -273 -629 -1643 245 -1641 525 2 849 652 594 1194 -163 346 -538 546 -839 447z m345 -145 c70 -24 135 -70 221 -155 519 -519 65 -1452 -562 -1155 -710 336 -391 1558 341 1310z"/> <path d="M2458 3135 c-245 -163 -182 -558 101 -635 342 -92 533 441 230 641 -84 55 -243 53 -331 -6z m287 -130 c105 -94 78 -301 -46 -353 -84 -35 -150 -19 -209 52 -154 183 80 459 255 301z"/> </g> </svg> 