<?xml version="1.0" standalone="no"?>
<!DOCTYPE svg PUBLIC "-//W3C//DTD SVG 20010904//EN"
 "http://www.w3.org/TR/2001/REC-SVG-20010904/DTD/svg10.dtd">
<svg version="1.0" xmlns="http://www.w3.org/2000/svg"
 width="300.000000pt" height="300.000000pt" viewBox="0 0 300.000000 300.000000"
 preserveAspectRatio="xMidYMid meet">
<metadata>
Created by potrace 1.10, written by Peter Selinger 2001-2011
</metadata>
<g transform="translate(0.000000,300.000000) scale(0.050000,-0.050000)"
fill="#ffffff" stroke="none">
<path d="M3187 5661 c-85 -51 -102 -117 -125 -468 -22 -355 6 -322 -234 -272
-420 89 -835 -2 -941 -206 -63 -123 -86 -1069 -29 -1228 54 -150 55 -212 13
-741 -16 -207 -36 -478 -43 -602 l-14 -227 -144 -97 c-178 -120 -174 -112
-184 -430 -13 -416 -30 -400 688 -633 745 -242 788 -240 1333 68 754 425 693
350 693 859 0 501 -15 530 -334 629 l-169 53 12 72 c6 39 25 210 42 378 21
209 44 336 72 400 54 122 128 1101 94 1237 -29 115 -119 215 -247 276 l-110
52 0 350 c0 395 -16 463 -124 528 -83 51 -168 52 -249 2z m213 -121 c36 -36
40 -67 40 -307 0 -147 6 -322 13 -388 l12 -122 -83 -25 c-144 -43 -232 -8
-231 92 13 709 82 917 249 750z m-595 -725 c167 -34 218 -53 227 -81 17 -54
18 -54 -222 -4 -121 26 -272 57 -335 70 -64 12 -110 31 -104 41 20 32 210 21
434 -26z m-140 -166 c839 -178 797 -129 735 -848 -28 -327 -54 -531 -80 -611
-26 -82 -61 -358 -111 -870 -80 -827 -74 -804 -219 -831 -70 -13 -497 92 -829
204 -268 91 -254 23 -189 901 l55 741 -54 159 -54 159 29 492 c29 503 41 564
118 595 62 25 25 30 599 -91z m1080 -104 c79 -76 83 -134 46 -681 -27 -405
-41 -519 -80 -634 -36 -109 -60 -274 -104 -738 l-57 -598 -134 -107 c-165
-132 -165 -132 -148 8 8 63 40 372 72 685 32 318 71 609 89 658 17 48 36 134
41 190 100 1027 99 1063 -39 1191 l-52 49 86 42 c99 49 181 30 280 -65z m299
-2440 c68 -68 40 -98 -424 -447 -631 -475 -691 -492 -1166 -339 -134 43 -343
106 -464 141 -412 116 -452 157 -261 269 l90 52 65 -72 c61 -65 102 -82 496
-201 640 -193 610 -196 980 89 388 300 396 308 332 367 -25 24 -26 187 -2 269
10 31 299 -73 354 -128z m53 -517 c-8 -329 33 -281 -495 -576 -560 -314 -573
-319 -769 -306 -183 12 -1121 299 -1194 365 -48 43 -61 432 -14 393 14 -12
250 -91 525 -176 808 -251 840 -246 1519 269 220 167 408 303 417 303 9 0 14
-122 11 -272z"/>
<path d="M2173 4514 c-36 -26 -52 -149 -81 -608 -16 -250 1 -269 285 -326 114
-23 316 -68 450 -101 408 -100 387 -118 434 376 49 512 95 461 -535 595 -461
98 -501 103 -553 64z m553 -177 c218 -46 409 -94 426 -106 28 -21 -10 -656
-42 -687 -5 -5 -209 35 -454 90 l-446 99 5 198 c9 395 23 489 72 489 24 0 221
-37 439 -83z"/>
<path d="M2175 3338 c-84 -49 -28 -112 132 -147 138 -30 155 91 19 137 -108
37 -105 37 -151 10z"/>
<path d="M2514 3232 c-27 -70 152 -168 225 -123 26 17 28 105 1 121 -53 33
-214 34 -226 2z"/>
<path d="M2853 3135 c-15 -57 3 -74 105 -97 98 -22 162 3 162 63 0 84 -246
115 -267 34z"/>
<path d="M2173 3047 c-60 -61 38 -175 141 -163 70 8 93 107 34 150 -37 27
-152 36 -175 13z"/>
<path d="M2513 2967 c-22 -22 -15 -117 11 -143 50 -50 194 -30 209 29 21 87
-155 178 -220 114z"/>
<path d="M2851 2845 c-19 -74 48 -129 147 -121 97 8 120 122 32 156 -100 38
-164 26 -179 -35z"/>
<path d="M2140 2712 c0 -93 76 -145 195 -134 48 4 30 141 -20 160 -145 55
-175 50 -175 -26z"/>
<path d="M2480 2672 c-71 -71 10 -172 139 -172 71 0 102 84 51 140 -37 41
-160 62 -190 32z"/>
<path d="M2820 2570 c-37 -96 15 -150 143 -150 124 0 125 144 1 172 -30 6 -70
16 -89 21 -24 7 -41 -7 -55 -43z"/>
<path d="M2110 2419 c-27 -85 59 -156 170 -139 78 11 79 109 1 149 -84 44
-156 40 -171 -10z"/>
<path d="M2440 2312 c0 -124 203 -186 216 -65 10 81 -45 133 -139 133 -74 0
-77 -3 -77 -68z"/>
<path d="M2789 2274 c-27 -71 0 -124 76 -148 87 -29 128 -18 146 38 27 84
-191 191 -222 110z"/>
<path d="M2092 2148 c-48 -126 108 -232 191 -129 46 57 40 84 -24 114 -94 43
-154 49 -167 15z"/>
<path d="M2419 2058 c-51 -96 65 -209 162 -158 87 47 71 129 -33 172 -88 37
-103 36 -129 -14z"/>
<path d="M2748 1948 c-17 -66 22 -106 120 -122 128 -20 162 95 43 145 -104 43
-148 37 -163 -23z"/>
</g>
</svg>
