<?xml version="1.0" standalone="no"?>
<!DOCTYPE svg PUBLIC "-//W3C//DTD SVG 20010904//EN"
 "http://www.w3.org/TR/2001/REC-SVG-20010904/DTD/svg10.dtd">
<svg version="1.0" xmlns="http://www.w3.org/2000/svg"
 width="300.000000pt" height="300.000000pt" viewBox="0 0 300.000000 300.000000"
 preserveAspectRatio="xMidYMid meet">
<metadata>
Created by potrace 1.10, written by Peter Selinger 2001-2011
</metadata>
<g transform="translate(0.000000,300.000000) scale(0.050000,-0.050000)"
fill="#ffffff" stroke="none">
<path d="M2140 5653 c-807 -339 -909 -400 -957 -574 -19 -68 -23 -528 -19
-1929 l6 -1840 59 -117 c109 -216 197 -274 805 -538 840 -365 726 -358 1269
-74 492 257 557 317 557 516 l0 79 155 -68 c85 -37 170 -68 187 -68 61 0 563
261 621 323 l57 61 0 1249 c0 1345 3 1302 -104 1402 -169 158 -469 194 -706
85 -96 -44 -182 -80 -191 -80 -9 0 -20 191 -23 425 -10 686 -19 696 -933 1013
-571 197 -616 205 -783 135z m784 -262 c822 -286 813 -275 818 -967 4 -444 4
-446 -44 -496 l-48 -51 0 -1254 0 -1253 49 -68 c38 -54 47 -90 44 -170 -8
-172 -30 -203 -221 -305 -94 -51 -237 -128 -316 -170 l-143 -78 19 68 c45 165
12 3833 -35 3937 -55 117 -192 267 -291 318 -93 48 -1052 398 -1089 398 -59 0
-21 34 75 69 56 20 194 75 305 123 268 114 251 116 877 -101z m-856 -353 c666
-242 680 -248 773 -354 145 -164 139 -74 139 -2148 0 -2034 4 -1962 -117
-2025 -91 -47 -83 -49 -689 212 -711 307 -781 355 -865 591 -41 114 -42 3656
-1 3753 81 196 145 194 760 -29z m2472 -964 c262 -99 241 22 235 -1407 -6
-1386 20 -1235 -234 -1368 -83 -43 -155 -79 -161 -79 -5 0 -8 546 -5 1213 7
1468 24 1386 -310 1507 -147 53 -148 50 51 133 193 79 216 79 424 1z m-516
-227 c69 -29 151 -78 181 -110 l55 -58 0 -1249 c0 -1464 28 -1331 -258 -1205
-278 123 -252 -19 -252 1396 0 1436 -19 1349 274 1226z"/>
<path d="M1844 4679 c-118 -109 -22 -244 246 -346 221 -83 310 -59 310 85 0
97 -81 164 -286 238 -208 75 -214 76 -270 23z m251 -132 c137 -53 221 -119
189 -151 -36 -36 -364 123 -364 176 0 38 20 36 175 -25z"/>
<path d="M1710 3742 c-431 -200 -399 -1002 59 -1452 462 -454 1011 -261 1011
357 0 680 -612 1307 -1070 1095z m436 -147 c608 -323 724 -1435 150 -1435
-408 0 -800 533 -772 1049 22 404 283 566 622 386z"/>
</g>
</svg>
