 <svg  version="1.0" xmlns="http://www.w3.org/2000/svg"  width="300.000000pt" height="300.000000pt" viewBox="0 0 300.000000 300.000000"  preserveAspectRatio="xMidYMid meet">  <g transform="translate(0.000000,300.000000) scale(0.050000,-0.050000)" fill="#ffffff" stroke="none"> <path d="M2696 5489 c-276 -67 -619 -303 -566 -389 23 -38 74 -20 161 57 385 339 1049 334 1431 -11 83 -75 144 -81 154 -13 13 87 -330 298 -580 357 -155 36 -447 36 -600 -1z"/> <path d="M2804 5220 c-204 -43 -492 -229 -453 -293 35 -55 61 -53 135 12 268 236 724 239 1027 7 93 -70 153 -70 143 1 -24 166 -554 336 -852 273z"/> <path d="M2880 4942 c-183 -38 -356 -174 -297 -234 31 -30 40 -28 120 27 207 140 420 139 606 -3 73 -56 131 -52 131 9 0 118 -352 245 -560 201z"/> <path d="M1685 4220 c-485 -223 -513 -239 -555 -320 -55 -106 -35 -2777 21 -2852 90 -120 97 -122 819 -209 374 -45 937 -112 1250 -150 645 -78 725 -81 811 -33 167 93 772 592 815 671 l44 83 0 1334 c0 1656 60 1497 -580 1535 -209 12 -515 31 -680 42 -165 10 -520 32 -790 49 -269 16 -544 33 -610 37 -116 8 -134 2 -545 -187z m795 61 c171 -11 621 -38 1000 -61 380 -23 776 -48 880 -56 l190 -14 -240 -134 c-132 -74 -258 -147 -279 -163 -28 -20 -54 -23 -86 -11 -46 17 -1049 94 -1815 138 -220 13 -448 30 -507 37 l-107 13 297 133 c163 73 311 134 327 135 17 1 170 -7 340 -17z m2263 -194 c35 -32 37 -99 37 -1329 0 -1511 22 -1367 -238 -1571 -95 -74 -223 -178 -285 -231 -62 -53 -118 -96 -125 -96 -6 0 -12 628 -13 1395 0 1124 -6 1404 -27 1443 -26 48 -22 51 276 233 339 207 325 201 375 156z m-3011 -187 c142 -11 663 -47 1158 -80 1044 -70 1009 -65 1072 -132 l48 -51 5 -1436 6 -1436 -59 -24 c-46 -19 -107 -18 -305 7 -136 18 -709 86 -1274 152 -1050 123 -1079 128 -1132 205 -47 67 -47 2703 0 2771 37 52 88 55 481 24z"/> <path d="M1519 3687 c-97 -41 -99 -64 -99 -1119 0 -1268 -47 -1148 475 -1208 1990 -229 1835 -222 1886 -88 25 67 25 2109 0 2176 -46 121 23 111 -1451 211 -341 23 -649 44 -685 47 -36 4 -93 -5 -126 -19z m441 -107 c138 -11 516 -38 840 -59 838 -57 819 -55 851 -82 25 -20 29 -179 29 -1091 l0 -1068 -55 0 c-30 0 -248 23 -485 50 -487 57 -1501 170 -1523 170 -75 0 -77 29 -77 1081 l0 1019 85 0 c47 -1 198 -10 335 -20z"/> <path d="M2805 3389 c-26 -18 -48 -61 -55 -105 -7 -41 -16 -93 -21 -117 -8 -39 -304 -259 -322 -240 -4 4 7 41 24 82 89 213 -193 412 -389 273 -197 -141 -134 -428 102 -461 l86 -12 -185 -125 c-207 -140 -227 -169 -273 -391 -40 -198 -40 -205 8 -253 102 -102 225 -27 262 161 21 110 75 199 120 199 7 0 85 -99 171 -219 l157 -220 182 -85 182 -85 76 -148 c108 -209 242 -256 338 -120 76 109 -94 480 -263 573 -109 61 -107 77 14 94 93 13 104 9 205 -67 158 -119 252 -126 330 -25 77 100 28 176 -230 362 -159 114 -153 113 -406 68 -68 -12 -75 -7 -149 93 -87 119 -96 99 99 234 110 76 142 142 161 329 20 195 -92 298 -224 205z m120 -94 c13 -33 -16 -243 -39 -283 -9 -17 -79 -74 -155 -126 -199 -138 -198 -133 -53 -323 68 -90 131 -163 141 -163 9 0 84 14 167 31 l150 31 172 -123 c175 -125 201 -162 135 -197 -29 -16 -64 0 -174 79 -76 54 -144 99 -152 99 -43 0 -346 -81 -362 -97 -46 -46 -3 -109 125 -181 205 -117 402 -472 260 -472 -42 0 -63 25 -130 150 l-80 150 -183 90 -183 90 -182 245 c-207 278 -187 267 -307 176 -81 -62 -94 -83 -125 -210 -35 -142 -58 -181 -91 -148 -23 23 45 313 83 359 15 19 212 154 438 302 446 293 460 304 460 395 1 124 55 205 85 126z m-631 -118 c95 -90 35 -257 -93 -257 -135 0 -216 166 -129 262 48 53 163 50 222 -5z"/> </g> </svg> 