 <svg  version="1.0" xmlns="http://www.w3.org/2000/svg"  width="300.000000pt" height="300.000000pt" viewBox="0 0 300.000000 300.000000"  preserveAspectRatio="xMidYMid meet">  <g transform="translate(0.000000,300.000000) scale(0.050000,-0.050000)" fill="#ffffff" stroke="none"> <path d="M2836 5500 c-273 -35 -638 -211 -652 -315 -11 -73 45 -73 140 -1 371 283 966 281 1365 -5 91 -66 131 -65 131 2 0 167 -615 366 -984 319z"/> <path d="M2745 5143 c-159 -48 -313 -141 -321 -196 -8 -54 51 -78 94 -38 207 186 644 200 922 29 152 -93 211 -5 63 93 -208 137 -518 183 -758 112z"/> <path d="M2765 4791 c-77 -36 -105 -60 -105 -91 0 -62 46 -68 143 -17 119 61 277 62 395 1 97 -51 142 -46 142 16 0 67 -178 140 -340 140 -96 0 -158 -13 -235 -49z"/> <path d="M1710 4467 c-302 -104 -358 -147 -391 -295 -43 -199 -17 -3066 29 -3158 83 -168 126 -182 850 -294 290 -44 770 -121 1067 -171 694 -114 643 -117 948 41 497 258 446 43 447 1871 l0 1491 -52 104 c-112 224 -177 247 -958 324 -341 34 -829 89 -1085 121 -577 73 -543 75 -855 -34z m850 -77 c215 -27 692 -80 1061 -117 797 -80 857 -102 919 -333 46 -171 17 -2968 -32 -3034 -33 -44 -303 -219 -348 -225 -5 0 -10 708 -10 1574 l0 1575 -53 90 c-90 153 -138 169 -727 238 -286 34 -709 84 -940 113 -231 28 -481 56 -555 63 -74 6 -135 17 -135 24 0 26 292 99 360 91 39 -5 246 -31 460 -59z m-370 -200 c308 -38 802 -97 1099 -131 586 -67 650 -84 710 -183 47 -77 65 -3089 20 -3209 -45 -118 -71 -117 -1134 53 -1394 223 -1322 208 -1393 279 l-62 62 -6 1524 c-7 1796 -14 1715 156 1684 28 -5 302 -40 610 -79z"/> <path d="M2400 3899 c-805 -169 -1063 -1316 -448 -1995 696 -770 1808 -341 1808 697 0 791 -681 1441 -1360 1298z m580 -181 c827 -394 922 -1660 151 -2020 -591 -277 -1316 214 -1409 955 -100 802 587 1384 1258 1065z"/> <path d="M2396 3681 c-643 -205 -780 -1156 -244 -1693 498 -499 1249 -290 1400 390 167 746 -511 1510 -1156 1303z m541 -153 c343 -167 587 -640 530 -1032 -115 -803 -1051 -921 -1425 -180 -378 749 209 1545 895 1212z"/> <path d="M2320 3195 c-84 -137 -78 -273 18 -425 74 -116 79 -202 20 -324 -75 -155 13 -206 95 -56 84 153 81 240 -13 417 -88 167 -92 220 -25 336 65 112 -28 163 -95 52z"/> <path d="M2617 3156 c-80 -113 -76 -268 11 -410 86 -139 89 -194 20 -329 -53 -106 -46 -147 25 -134 130 24 166 322 60 495 -84 136 -90 196 -30 303 73 131 0 196 -86 75z"/> <path d="M2915 3155 c-97 -150 -93 -290 12 -465 86 -142 89 -190 22 -308 -51 -89 -42 -142 23 -142 120 0 158 323 58 489 -95 158 -100 189 -49 308 61 142 10 234 -66 118z"/> <path d="M2493 1300 c-90 -79 -104 -140 -56 -247 95 -215 366 -187 397 41 28 209 -188 340 -341 206z m198 -89 c81 -81 52 -191 -51 -191 -108 0 -162 148 -76 209 59 41 69 40 127 -18z"/> </g> </svg> 