 <svg  version="1.0" xmlns="http://www.w3.org/2000/svg"  width="300.000000pt" height="300.000000pt" viewBox="0 0 300.000000 300.000000"  preserveAspectRatio="xMidYMid meet">  <g transform="translate(0.000000,300.000000) scale(0.050000,-0.050000)" fill="#ffffff" stroke="none"> <path d="M2735 5609 c-199 -48 -535 -237 -535 -301 0 -63 64 -50 195 40 388 264 885 257 1268 -18 153 -110 234 -58 94 60 -244 205 -687 300 -1022 219z"/> <path d="M2750 5264 c-189 -65 -371 -195 -341 -243 22 -35 67 -24 153 38 263 190 607 190 907 0 163 -104 217 -27 58 83 -216 149 -548 201 -777 122z"/> <path d="M2850 4945 c-122 -43 -230 -117 -230 -157 0 -52 57 -53 124 -1 153 116 341 116 518 0 74 -49 83 -51 112 -21 108 108 -316 253 -524 179z"/> <path d="M2060 4403 c-609 -261 -563 -100 -556 -1965 7 -1545 0 -1465 127 -1631 120 -158 151 -164 1812 -404 261 -37 883 294 1001 533 l46 94 0 1460 c0 1656 11 1541 -169 1736 -128 139 -213 166 -651 203 -209 18 -528 46 -710 62 -559 49 -586 46 -900 -88z m1222 -43 c790 -67 832 -76 958 -212 148 -161 140 -64 140 -1673 l0 -1447 -58 -91 c-54 -86 -87 -110 -407 -291 -8 -4 -6 15 5 44 28 73 27 2994 -1 3094 -82 297 -198 341 -1118 427 -412 39 -752 73 -756 77 -20 21 337 130 427 131 56 1 421 -26 810 -59z m-452 -259 c818 -75 921 -112 989 -355 34 -124 29 -2969 -6 -3053 -88 -211 -138 -214 -1084 -77 -893 130 -925 139 -1038 301 l-61 86 -5 1485 -6 1485 46 66 c111 163 77 161 1165 62z"/> <path d="M2454 3324 c-312 -513 -382 -708 -335 -928 152 -708 1151 -670 1149 44 -1 227 -38 323 -295 758 -115 193 -219 372 -231 397 -49 95 -89 56 -288 -271z m412 -154 c387 -660 401 -992 49 -1139 -457 -191 -853 309 -624 790 134 280 374 662 400 634 12 -14 91 -142 175 -285z"/> <path d="M2173 1507 c-24 -25 -14 -122 16 -146 75 -63 176 18 135 107 -22 51 -115 74 -151 39z"/> <path d="M2619 1417 c-36 -66 5 -137 80 -137 89 0 130 88 70 149 -46 45 -123 39 -150 -12z"/> <path d="M3115 1398 c-74 -43 -32 -178 55 -178 90 0 119 91 50 160 -45 45 -56 47 -105 18z"/> </g> </svg> 