 <svg  version="1.0" xmlns="http://www.w3.org/2000/svg"  width="300.000000pt" height="300.000000pt" viewBox="0 0 300.000000 300.000000"  preserveAspectRatio="xMidYMid meet">  <g transform="translate(0.000000,300.000000) scale(0.050000,-0.050000)" fill="#ffffff" stroke="none"> <path d="M2800 5562 c-350 -95 -652 -311 -567 -405 44 -49 41 -50 167 45 452 340 1067 343 1505 8 164 -124 290 -54 143 81 -279 255 -850 379 -1248 271z"/> <path d="M2906 5181 c-161 -43 -191 -57 -341 -156 -113 -74 -139 -145 -68 -183 29 -16 65 -2 174 68 324 208 733 200 1024 -22 85 -65 153 -58 161 16 22 185 -610 369 -950 277z"/> <path d="M2980 4802 c-209 -68 -311 -175 -230 -242 25 -21 52 -14 153 40 190 101 328 105 503 13 136 -71 181 -76 202 -20 51 133 -402 284 -628 209z"/> <path d="M1781 4350 c-607 -247 -551 -75 -551 -1690 0 -1766 -167 -1539 1414 -1912 774 -183 1089 -249 1149 -242 105 11 759 387 846 486 101 116 103 132 97 1502 l-6 1276 -46 94 c-146 297 -135 293 -1574 506 -330 49 -654 99 -720 110 -195 32 -223 26 -609 -130z m659 -30 c83 -12 330 -48 550 -81 1433 -217 1372 -204 1473 -312 122 -132 117 -64 117 -1473 l0 -1288 -45 -64 c-25 -36 -126 -113 -225 -171 l-180 -108 -10 1374 -10 1373 -45 73 c-147 235 -135 232 -1274 409 -528 83 -962 153 -965 156 -17 16 372 148 414 141 28 -5 118 -18 200 -29z m250 -401 c1187 -183 1150 -173 1245 -359 l45 -88 0 -1307 c0 -1417 2 -1394 -110 -1482 -78 -61 -39 -68 -1201 207 -582 138 -1064 250 -1072 250 -33 0 -142 111 -178 182 -53 105 -62 2556 -9 2658 36 69 123 123 180 111 22 -5 517 -82 1100 -172z"/> <path d="M2300 3568 c-713 -192 -874 -1256 -279 -1853 458 -459 1142 -358 1409 209 385 817 -331 1859 -1130 1644z m359 -138 c660 -90 982 -1181 490 -1660 -669 -650 -1694 416 -1245 1297 114 225 426 415 626 382 22 -4 80 -12 129 -19z"/> <path d="M2307 3242 c-453 -209 -496 -1015 -69 -1310 123 -86 231 9 109 96 -394 285 -346 976 77 1101 76 22 86 32 86 83 0 74 -81 86 -203 30z"/> </g> </svg> 