 <svg  version="1.0" xmlns="http://www.w3.org/2000/svg"  width="300.000000pt" height="300.000000pt" viewBox="0 0 300.000000 300.000000"  preserveAspectRatio="xMidYMid meet">  <g transform="translate(0.000000,300.000000) scale(0.050000,-0.050000)" fill="#ffffff" stroke="none"> <path d="M2830 5619 c-132 -33 -523 -127 -870 -211 -672 -163 -739 -189 -801 -310 -39 -76 -40 -116 -34 -1923 6 -2072 -4 -1944 153 -2045 111 -72 2057 -757 2154 -759 90 -1 109 9 828 462 531 333 533 335 579 425 58 113 65 3715 8 3835 -65 137 -118 159 -913 380 -838 233 -781 225 -1104 146z m860 -180 c664 -180 802 -217 898 -242 l78 -20 -568 -251 c-312 -137 -581 -250 -598 -249 -16 0 -439 117 -940 259 -500 143 -928 264 -950 269 -57 13 -49 15 550 156 292 68 611 144 710 169 253 64 243 65 820 -91z m-1311 -542 c457 -131 878 -252 935 -268 57 -16 131 -53 165 -82 128 -107 121 19 121 -2068 l0 -1902 -58 -59 c-92 -91 -28 -110 -2055 615 -158 56 -238 124 -267 228 -40 139 -26 3598 15 3679 81 163 86 162 1144 -143z m2373 161 c37 -41 38 -105 44 -1855 6 -2064 18 -1910 -164 -2031 -115 -75 -933 -592 -938 -592 -2 0 -2 842 1 1872 6 1976 6 1976 -88 2088 -29 34 -49 65 -44 68 4 3 177 80 385 171 208 90 451 199 540 241 191 90 214 93 264 38z"/> <path d="M1388 4938 c-39 -43 -72 -2302 -37 -2595 23 -196 11 -190 929 -461 446 -132 855 -254 910 -271 135 -41 164 -39 221 19 l50 49 -6 1329 c-5 1311 -6 1330 -47 1386 -38 51 -119 78 -960 320 -987 284 -1003 287 -1060 224z m1012 -298 c500 -143 923 -274 940 -291 43 -44 57 -2630 13 -2666 -25 -21 -1789 485 -1875 538 -28 17 -56 2584 -29 2653 14 37 -44 51 951 -234z"/> <path d="M2173 4479 c-114 -28 -273 -123 -273 -163 0 -57 35 -60 114 -10 243 153 546 107 766 -115 111 -112 198 -120 141 -13 -95 178 -533 354 -748 301z"/> <path d="M2171 4228 c-112 -41 -160 -87 -125 -122 22 -23 45 -19 142 26 176 80 344 39 515 -126 70 -68 117 -74 117 -17 0 153 -440 316 -649 239z"/> <path d="M2252 3938 c-369 -88 -469 -457 -246 -901 110 -219 114 -234 126 -427 16 -264 37 -346 99 -374 27 -12 49 -34 49 -48 0 -42 84 -88 160 -88 135 0 231 134 246 344 13 194 34 253 149 431 312 481 -74 1185 -583 1063z m290 -119 c322 -164 425 -627 204 -916 -29 -39 -74 -120 -98 -181 -32 -79 -58 -114 -87 -118 -51 -8 -51 -16 9 232 70 289 68 331 -13 313 -52 -11 -70 -5 -97 31 -30 39 -39 41 -76 18 -37 -23 -48 -21 -89 18 -112 104 -128 37 -65 -267 62 -299 63 -317 10 -289 -25 14 -40 42 -40 78 0 74 -62 245 -138 385 -240 434 81 900 480 696z m-106 -734 c15 -14 47 -25 72 -25 l46 0 -39 -185 c-21 -102 -43 -206 -48 -231 -14 -75 -115 -54 -123 26 -6 64 -60 357 -76 414 -12 41 125 42 168 1z m-115 -535 c58 -21 117 -26 184 -17 95 12 98 11 92 -35 -13 -94 -377 -51 -377 44 0 46 -5 45 101 8z m144 -181 c146 -13 173 -43 90 -97 -82 -54 -335 30 -335 111 0 9 25 12 55 7 30 -5 116 -14 190 -21z"/> <path d="M2184 1639 c-181 -110 -148 -423 56 -529 305 -158 492 329 201 525 -83 56 -171 57 -257 4z m212 -70 c163 -115 123 -409 -56 -409 -56 0 -155 93 -180 171 -58 173 100 333 236 238z"/> </g> </svg> 