<?xml version="1.0" standalone="no"?>
<!DOCTYPE svg PUBLIC "-//W3C//DTD SVG 20010904//EN"
 "http://www.w3.org/TR/2001/REC-SVG-20010904/DTD/svg10.dtd">
<svg version="1.0" xmlns="http://www.w3.org/2000/svg"
 width="300.000000pt" height="300.000000pt" viewBox="0 0 300.000000 300.000000"
 preserveAspectRatio="xMidYMid meet">
<metadata>
Created by potrace 1.10, written by Peter Selinger 2001-2011
</metadata>
<g transform="translate(0.000000,300.000000) scale(0.100000,-0.100000)"
fill="#ffffff" stroke="none">
<path d="M718 2321 c-164 -55 -308 -108 -322 -118 -14 -10 -37 -39 -51 -65
l-26 -47 3 -508 3 -509 26 -49 c14 -29 42 -61 65 -77 41 -29 65 -35 919 -208
160 -33 390 -80 512 -105 245 -50 259 -51 308 -31 40 17 489 445 510 487 13
23 15 108 15 517 0 541 0 545 -63 610 -50 53 8 43 -707 117 -303 32 -387 41
-606 65 -273 30 -247 34 -586 -79z m1111 -25 c769 -81 729 -74 779 -146 l22
-33 0 -496 c0 -455 -2 -498 -18 -522 -15 -22 -346 -339 -354 -339 -2 0 -3 249
-3 553 l-1 554 -25 49 c-17 33 -39 58 -70 76 -41 25 -70 31 -399 72 -805 101
-1179 150 -1175 154 2 2 102 37 222 77 149 50 234 73 268 74 28 0 367 -33 754
-73z m-1262 -81 c0 -11 -12 -15 -46 -15 -45 1 -45 1 -21 15 33 19 67 19 67 0z
m193 -75 c236 -29 620 -78 825 -105 61 -8 113 -15 118 -15 4 0 7 -294 7 -653
l0 -653 -222 47 c-123 25 -383 79 -578 118 -195 40 -378 78 -406 86 -61 17
-119 75 -129 127 -3 18 -5 255 -3 526 l3 494 38 35 c34 30 43 34 75 29 20 -3
143 -19 272 -36z m1188 -150 c168 -21 200 -34 235 -90 22 -35 22 -40 25 -589
2 -304 1 -564 -2 -576 -10 -40 -55 -84 -92 -91 -22 -4 -89 5 -194 27 l-160 34
0 653 c0 614 1 652 18 652 9 0 86 -9 170 -20z m296 -1281 c-21 -23 -29 -18
-15 9 6 11 7 23 3 28 -4 5 1 2 11 -5 16 -13 16 -15 1 -32z"/>
<path d="M533 1998 c-12 -6 -25 -18 -28 -27 -11 -27 -16 -788 -5 -816 13 -33
61 -61 119 -70 47 -6 294 -54 658 -125 111 -22 211 -40 223 -40 11 0 32 11 45
25 l25 24 0 421 0 422 -29 28 c-34 35 -24 32 -291 69 -118 17 -309 44 -425 61
-116 16 -223 32 -240 34 -16 3 -40 0 -52 -6z m267 -73 c85 -13 274 -40 420
-61 205 -30 268 -42 282 -56 17 -17 18 -48 18 -423 0 -353 -2 -406 -15 -411
-14 -6 -104 10 -625 111 -96 19 -204 40 -239 46 -108 20 -101 -10 -101 432 0
211 3 387 7 391 8 7 24 5 253 -29z"/>
<path d="M599 1898 c-1 -2 -3 -159 -4 -350 -3 -316 -2 -348 13 -352 10 -3 175
-35 367 -71 193 -36 379 -72 415 -79 36 -8 68 -12 73 -9 4 2 7 168 7 368 l0
364 -32 6 c-34 5 -515 75 -698 101 -58 8 -113 17 -122 20 -10 3 -19 4 -19 2z
m221 -62 c58 -8 179 -26 270 -40 91 -13 189 -28 219 -31 30 -4 63 -9 75 -12
12 -3 29 -5 39 -5 16 1 17 -22 17 -339 0 -265 -3 -339 -12 -339 -7 0 -31 5
-54 10 -22 5 -58 12 -80 15 -21 2 -50 7 -64 10 -14 4 -63 12 -109 20 -46 8
-91 17 -100 19 -9 3 -27 7 -41 10 -14 2 -99 18 -188 35 -90 17 -166 31 -168
31 -2 0 -4 145 -4 321 l0 321 47 -5 c27 -3 95 -12 153 -21z"/>
<path d="M1814 1827 c-3 -8 -4 -47 -2 -88 l3 -74 135 -22 c189 -31 170 -38
170 62 0 98 18 85 -150 110 -58 9 -115 18 -128 21 -13 3 -25 -1 -28 -9z m167
-43 c57 -9 106 -20 109 -24 3 -4 3 -31 2 -59 -4 -48 -5 -50 -30 -46 -15 2 -71
11 -124 20 l-98 17 0 53 c0 48 11 70 31 59 3 -2 52 -10 110 -20z"/>
<path d="M1817 1553 c-11 -10 -8 -61 3 -68 6 -4 35 -9 65 -12 l55 -6 0 31 c0
20 -7 35 -17 40 -25 13 -99 23 -106 15z m89 -44 c6 -10 -26 -12 -50 -3 -9 3
-16 9 -16 13 0 10 59 1 66 -10z"/>
<path d="M1994 1518 c-10 -15 5 -57 24 -67 9 -5 35 -11 57 -12 39 -4 40 -3 43
29 4 36 1 38 -71 51 -29 5 -50 5 -53 -1z m81 -38 c17 -7 15 -9 -12 -9 -18 -1
-33 4 -33 9 0 12 17 12 45 0z"/>
<path d="M1820 1410 c-7 -4 -10 -20 -8 -36 3 -26 8 -30 58 -40 30 -6 58 -9 63
-7 12 7 8 61 -5 69 -19 12 -96 22 -108 14z m86 -42 c3 -4 -8 -8 -25 -8 -16 0
-33 5 -36 10 -4 7 6 10 25 8 17 -1 34 -6 36 -10z"/>
<path d="M1993 1374 c-3 -8 -2 -25 1 -38 5 -19 15 -26 48 -31 24 -3 51 -9 61
-11 14 -4 17 1 17 31 0 39 -11 47 -83 58 -28 4 -40 2 -44 -9z m94 -37 c4 -4
-7 -7 -25 -5 -18 1 -32 6 -32 10 0 10 46 5 57 -5z"/>
<path d="M1821 1267 c-17 -17 -13 -55 7 -66 9 -5 37 -10 62 -12 43 -4 45 -3
48 25 2 16 0 32 -5 37 -15 15 -101 27 -112 16z m85 -39 c3 -4 -8 -8 -25 -8
-16 0 -33 5 -36 10 -4 7 6 10 25 8 17 -1 34 -6 36 -10z"/>
<path d="M1995 1229 c-4 -10 -3 -28 0 -39 6 -20 15 -23 88 -35 37 -6 37 -6 37
30 0 39 -11 47 -82 58 -31 5 -38 2 -43 -14z m73 -25 c12 -4 22 -10 22 -13 0
-10 -59 -1 -66 10 -6 10 11 11 44 3z"/>
<path d="M1817 1124 c-12 -12 -8 -51 7 -63 8 -6 37 -14 65 -18 l51 -6 0 30 c0
17 -6 35 -12 41 -17 12 -102 25 -111 16z m88 -45 c5 -6 3 -9 -5 -9 -27 0 -60
12 -60 21 0 11 50 1 65 -12z"/>
<path d="M1994 1085 c-11 -28 12 -62 46 -69 69 -13 80 -9 80 28 0 37 -3 40
-77 51 -35 5 -44 4 -49 -10z m96 -36 c0 -11 -16 -11 -50 -2 l-25 7 25 6 c28 7
50 2 50 -11z"/>
<path d="M1817 963 c-12 -11 -7 -50 7 -62 19 -16 259 -56 281 -47 11 4 15 15
13 38 l-3 33 -115 22 c-122 23 -173 27 -183 16z m138 -38 c124 -21 135 -24
135 -35 0 -10 -54 -8 -132 5 -59 9 -118 27 -118 36 0 12 10 11 115 -6z"/>
</g>
</svg>
