<?xml version="1.0" standalone="no"?>
<!DOCTYPE svg PUBLIC "-//W3C//DTD SVG 20010904//EN"
 "http://www.w3.org/TR/2001/REC-SVG-20010904/DTD/svg10.dtd">
<svg version="1.0" xmlns="http://www.w3.org/2000/svg"
 width="900.000000pt" height="900.000000pt" viewBox="0 0 900.000000 900.000000"
 preserveAspectRatio="xMidYMid meet">
<metadata>
Created by potrace 1.10, written by Peter Selinger 2001-2011
</metadata>
<g transform="translate(0.000000,900.000000) scale(0.100000,-0.100000)"
fill="#ffffff" stroke="none">
<path d="M4100 8344 c-115 -18 -226 -41 -300 -61 -137 -38 -167 -46 -200 -58
-400 -144 -693 -317 -978 -580 -50 -45 -86 -118 -77 -154 15 -59 76 -111 130
-111 38 0 62 15 135 84 79 74 107 97 185 157 67 51 157 111 210 139 11 6 34
19 50 29 55 35 297 151 315 151 5 0 24 6 42 14 67 27 179 62 243 75 22 5 60
13 85 19 240 58 515 74 810 47 215 -20 425 -63 538 -111 18 -8 40 -14 48 -14
9 0 28 -6 42 -14 15 -8 47 -22 72 -31 83 -32 234 -108 335 -169 120 -71 318
-220 395 -296 80 -80 125 -96 188 -65 37 19 72 72 72 109 0 77 -96 175 -360
369 -137 100 -364 223 -540 291 -25 10 -58 23 -75 30 -41 18 -96 37 -120 42
-11 3 -42 11 -70 19 -120 33 -165 43 -395 86 -103 19 -662 21 -780 3z"/>
<path d="M4235 7595 c-55 -8 -120 -20 -145 -26 -25 -6 -63 -15 -85 -19 -38 -7
-54 -12 -147 -46 -244 -88 -428 -198 -612 -364 -91 -81 -106 -105 -106 -166 0
-67 32 -109 90 -119 63 -11 93 2 162 68 123 117 226 190 365 256 218 105 351
142 595 165 201 19 386 3 573 -50 76 -21 174 -54 193 -63 9 -5 57 -29 106 -52
128 -62 247 -144 350 -240 l89 -83 58 -1 c53 0 62 3 90 32 27 27 32 38 32 85
1 69 -12 88 -132 191 -145 124 -276 207 -451 284 -19 9 -43 20 -53 25 -65 32
-277 90 -437 118 -104 19 -419 21 -535 5z"/>
<path d="M4275 6849 c-16 -5 -52 -13 -80 -18 -85 -15 -218 -69 -300 -122 -16
-10 -37 -22 -45 -26 -30 -13 -127 -92 -163 -132 -33 -37 -37 -47 -37 -94 1
-59 23 -93 79 -122 29 -14 40 -15 73 -6 21 7 46 20 55 30 41 41 149 116 220
151 263 133 563 133 827 0 67 -34 185 -114 211 -144 6 -7 27 -20 48 -30 32
-15 43 -15 74 -5 20 6 49 26 65 43 23 25 28 39 28 82 0 48 -3 55 -52 106 -129
136 -308 229 -540 283 -75 17 -410 20 -463 4z"/>
<path d="M4205 5991 c-59 -12 -134 -31 -185 -47 -25 -8 -54 -14 -66 -14 -11 0
-40 -6 -65 -14 -54 -16 -131 -36 -184 -47 -22 -4 -60 -13 -85 -19 -25 -7 -70
-18 -100 -25 -92 -22 -182 -46 -236 -61 -28 -8 -59 -14 -69 -14 -10 0 -41 -6
-69 -14 -48 -14 -82 -23 -238 -62 -209 -52 -323 -113 -466 -249 -110 -104
-207 -253 -244 -375 -51 -164 -48 -82 -48 -1494 0 -1421 -3 -1340 51 -1516 27
-85 92 -219 147 -300 55 -81 247 -272 328 -326 97 -64 272 -146 354 -164 19
-4 58 -13 85 -20 28 -6 75 -18 105 -25 30 -7 78 -19 105 -25 28 -7 68 -16 90
-20 22 -4 63 -13 90 -20 28 -6 75 -18 105 -25 30 -7 78 -19 105 -25 28 -7 68
-16 90 -20 22 -4 63 -13 90 -20 28 -6 75 -18 105 -25 30 -7 78 -19 105 -25 28
-7 68 -16 90 -20 22 -4 63 -13 90 -20 28 -6 75 -18 105 -25 30 -7 78 -19 105
-25 28 -7 68 -16 90 -20 47 -9 117 -26 200 -48 46 -13 104 -17 255 -17 203 0
206 1 345 52 69 26 1159 574 1204 605 54 38 128 108 168 160 45 59 126 208
136 249 3 13 10 38 16 54 42 122 42 106 38 1570 -3 1237 -5 1397 -19 1450 -21
76 -36 122 -54 158 -8 16 -14 33 -14 38 0 15 -60 109 -122 191 -133 176 -360
325 -583 381 -67 17 -177 36 -275 47 -36 4 -99 13 -140 20 -41 6 -118 17 -170
25 -52 8 -129 19 -170 25 -41 7 -104 16 -140 20 -71 8 -175 23 -315 45 -49 7
-124 19 -165 25 -41 7 -109 16 -150 20 -41 5 -95 13 -120 19 -62 14 -257 21
-305 12z m187 -202 c40 -5 102 -15 138 -21 36 -6 99 -14 140 -18 41 -4 109
-13 150 -20 41 -6 118 -17 170 -25 52 -8 129 -19 170 -25 41 -7 107 -16 145
-20 39 -4 104 -13 145 -20 124 -19 258 -38 385 -55 147 -20 259 -42 303 -61
18 -8 37 -14 42 -14 21 0 147 -65 207 -108 170 -118 287 -289 334 -485 18 -74
19 -144 19 -1436 0 -1174 -2 -1364 -15 -1407 -8 -27 -15 -57 -15 -68 0 -10
-21 -62 -47 -115 -39 -77 -63 -111 -123 -171 -74 -73 -84 -79 -380 -228 -199
-100 -307 -149 -313 -143 -7 7 -6 15 1 23 13 16 44 116 66 210 14 59 16 231
16 1453 0 1481 2 1410 -47 1575 -44 149 -159 337 -277 455 -97 98 -232 184
-391 251 -71 30 -203 54 -635 119 -58 8 -142 22 -186 30 -45 8 -94 15 -109 15
-15 0 -64 7 -109 15 -44 8 -125 21 -178 30 -54 8 -140 22 -190 30 -51 8 -127
19 -168 26 -89 14 -123 25 -115 39 3 5 18 10 31 10 26 0 131 23 194 43 19 6
53 14 75 17 22 4 63 13 90 20 28 6 77 19 110 27 227 56 248 60 272 62 13 0 55
-4 95 -10z m-1273 -359 c119 -20 248 -40 281 -44 19 -2 69 -9 110 -15 121 -20
248 -39 358 -56 56 -8 148 -22 205 -30 56 -9 129 -21 162 -27 33 -6 89 -14
125 -18 36 -4 99 -13 140 -19 41 -7 118 -19 170 -27 52 -8 132 -21 176 -29 45
-8 94 -15 109 -15 38 0 175 -40 235 -69 276 -133 459 -378 509 -682 8 -45 11
-484 11 -1385 0 -1363 -1 -1390 -40 -1504 -31 -91 -107 -215 -171 -279 -46
-45 -169 -131 -189 -131 -7 0 -24 -6 -38 -14 -84 -43 -274 -59 -381 -32 -131
33 -158 39 -196 46 -22 4 -62 13 -90 20 -27 6 -75 18 -105 25 -30 7 -77 19
-105 25 -27 7 -68 16 -90 20 -22 4 -62 13 -90 20 -115 28 -164 39 -240 56 -44
9 -100 23 -124 30 -25 8 -53 14 -64 14 -11 0 -43 6 -71 14 -28 8 -82 21 -121
30 -183 39 -254 55 -380 86 -27 7 -68 16 -90 20 -206 35 -463 209 -586 395
-67 102 -133 251 -150 335 -5 25 -13 63 -18 85 -7 26 -11 488 -11 1289 0 1109
2 1256 16 1320 32 141 93 265 173 349 37 40 134 118 161 130 8 4 22 11 30 16
29 17 85 39 125 49 54 13 186 14 254 2z"/>
<path d="M3770 4653 c-97 -22 -200 -63 -275 -107 -282 -168 -473 -464 -551
-856 -25 -124 -25 -522 0 -635 36 -162 47 -199 93 -317 21 -56 79 -175 104
-213 10 -16 22 -37 26 -45 3 -8 32 -49 64 -90 230 -302 522 -455 835 -437 147
9 197 21 324 81 91 43 137 75 231 164 69 65 161 175 206 247 22 35 113 224
113 234 0 6 6 25 14 43 19 46 42 129 61 221 11 57 15 140 15 312 0 236 -9 320
-45 436 -8 26 -15 54 -15 63 0 8 -6 30 -14 48 -8 18 -22 53 -31 78 -69 178
-175 346 -304 483 -59 62 -198 165 -281 208 -170 89 -397 122 -570 82z m319
-459 c195 -24 402 -220 499 -474 152 -399 50 -908 -226 -1125 -205 -162 -455
-151 -659 30 -100 88 -204 251 -246 385 -39 128 -46 161 -58 275 -10 103 -10
137 4 240 20 144 34 199 77 291 72 154 180 275 297 334 67 34 185 61 233 55
14 -2 49 -7 79 -11z"/>
<path d="M3990 3995 c-14 -8 -32 -15 -40 -15 -25 -1 -122 -82 -163 -136 -43
-55 -91 -152 -114 -228 -11 -34 -17 -107 -20 -216 -5 -198 8 -269 81 -418 40
-82 48 -94 111 -160 109 -116 245 -167 373 -142 143 27 258 125 329 280 129
281 98 630 -78 866 -44 60 -129 131 -179 150 -8 3 -30 12 -48 20 -44 19 -218
19 -252 -1z"/>
</g>
</svg>
