<?xml version="1.0" standalone="no"?>
<!DOCTYPE svg PUBLIC "-//W3C//DTD SVG 20010904//EN"
 "http://www.w3.org/TR/2001/REC-SVG-20010904/DTD/svg10.dtd">
<svg version="1.0" xmlns="http://www.w3.org/2000/svg"
 width="300.000000pt" height="300.000000pt" viewBox="0 0 300.000000 300.000000"
 preserveAspectRatio="xMidYMid meet">
<metadata>
Created by potrace 1.10, written by Peter Selinger 2001-2011
</metadata>
<g transform="translate(0.000000,300.000000) scale(0.050000,-0.050000)"
fill="#ffffff" stroke="none">
<path d="M2460 5548 c-266 -69 -580 -275 -518 -338 31 -31 40 -28 129 40 414
316 1011 314 1428 -3 132 -102 197 -43 71 64 -267 227 -753 331 -1110 237z"/>
<path d="M2555 5180 c-159 -41 -375 -174 -375 -231 0 -44 56 -48 108 -7 247
195 707 208 946 26 75 -57 146 -64 146 -13 -1 144 -550 294 -825 225z"/>
<path d="M2687 4818 c-123 -23 -247 -92 -247 -137 0 -58 42 -60 135 -6 112 64
283 67 401 7 104 -53 144 -53 144 -1 0 82 -269 168 -433 137z"/>
<path d="M2120 4525 c-142 -55 -804 -379 -855 -418 -151 -115 -147 -69 -140
-1356 l5 -1148 63 -89 62 -89 -107 -44 c-195 -81 -208 -99 -208 -292 0 -221
-104 -176 1261 -540 1448 -386 1217 -386 2010 1 675 328 649 309 649 495 0
178 -17 205 -141 235 -96 23 -99 26 -60 54 122 85 122 79 122 1306 0 1252 5
1204 -144 1329 -93 79 -64 71 -1255 332 -1021 224 -1187 253 -1262 224z m1267
-324 c1169 -256 1143 -249 1220 -341 89 -106 93 -155 93 -1230 0 -1291 36
-1171 -420 -1400 l-290 -145 6 1112 c7 1233 9 1215 -120 1355 -103 112 -147
123 -2274 584 -85 18 490 299 620 302 40 1 564 -106 1165 -237z m-831 -373
c1199 -266 1227 -274 1300 -405 57 -101 71 -2201 15 -2333 -81 -194 -47 -196
-1334 99 -1140 262 -1198 280 -1271 389 l-46 68 0 1124 0 1124 46 68 c36 54
115 116 150 118 3 0 516 -113 1140 -252z m-16 -2739 c1270 -292 1108 -288
1597 -38 l366 188 121 -28 c150 -35 156 -42 71 -78 -38 -15 -299 -138 -581
-272 -642 -306 -597 -299 -1104 -164 -209 55 -740 192 -1179 303 -440 111
-804 206 -808 211 -8 7 197 106 307 148 22 9 58 8 80 -2 22 -9 530 -130 1130
-268z m-380 -274 c1348 -347 1246 -325 1378 -300 70 13 311 116 642 274 292
140 541 259 555 265 17 7 25 -11 25 -59 l0 -69 -585 -287 c-758 -373 -546
-374 -1975 8 -1241 332 -1180 312 -1180 395 0 74 -143 103 1140 -227z"/>
<path d="M4272 2598 c-113 -134 -43 -378 108 -378 118 0 170 292 71 391 -66
65 -117 62 -179 -13z m127 -77 c29 -54 26 -127 -8 -172 -38 -52 -79 -13 -79
76 0 125 45 175 87 96z"/>
<path d="M1902 3670 c-278 -87 -556 -456 -596 -791 -11 -95 -9 -101 71 -181
82 -81 83 -85 83 -225 3 -1247 1879 -1606 2102 -402 40 219 16 561 -50 689
-334 650 -1084 1074 -1610 910z m634 -134 c381 -157 787 -550 915 -885 43
-114 38 -121 -151 -164 -599 -139 -1830 76 -1894 331 -28 114 128 454 278 604
188 188 554 237 852 114z m-582 -1097 c457 -117 1106 -126 1461 -21 l65 19 0
-137 c0 -676 -558 -1038 -1234 -800 -404 142 -686 533 -686 952 l0 123 120
-48 c66 -27 190 -66 274 -88z"/>
</g>
</svg>
