 <svg  version="1.0" xmlns="http://www.w3.org/2000/svg"  width="300.000000pt" height="300.000000pt" viewBox="0 0 300.000000 300.000000"  preserveAspectRatio="xMidYMid meet">  <g transform="translate(0.000000,300.000000) scale(0.050000,-0.050000)" fill="#ffffff" stroke="none"> <path d="M2564 5601 c-279 -76 -572 -247 -560 -328 10 -71 71 -61 212 36 464 317 1131 271 1571 -108 127 -111 137 -115 172 -72 76 92 -261 344 -609 456 -184 59 -595 68 -786 16z"/> <path d="M2705 5239 c-194 -38 -451 -193 -441 -266 10 -69 68 -62 196 24 310 207 723 179 1049 -69 100 -77 158 -82 167 -14 5 32 -21 63 -101 124 -246 186 -569 260 -870 201z"/> <path d="M2744 4852 c-165 -54 -221 -116 -154 -172 25 -21 49 -17 133 17 168 70 369 48 516 -57 113 -79 210 -25 122 69 -119 127 -438 201 -617 143z"/> <path d="M2060 4572 c-747 -265 -988 -400 -1038 -582 -35 -129 -30 -2577 6 -2695 72 -242 108 -259 976 -454 388 -87 946 -213 1239 -280 610 -139 681 -144 837 -64 244 124 727 436 777 501 l53 69 5 1378 6 1378 -55 101 c-115 211 -51 191 -1438 443 -1379 251 -1281 236 -1368 205z m1200 -300 c567 -103 1095 -198 1175 -212 176 -29 261 -82 320 -200 l46 -90 -6 -1335 -5 -1334 -50 -50 c-36 -35 -588 -391 -608 -391 -1 0 0 637 3 1416 l6 1415 -56 110 c-102 201 -69 191 -1315 419 -605 110 -1126 207 -1158 216 -72 18 426 220 548 223 39 0 534 -84 1100 -187z m-673 -343 c1254 -231 1288 -239 1368 -344 l55 -72 0 -1415 0 -1415 -48 -51 c-70 -74 -151 -69 -658 47 -239 54 -780 176 -1204 271 -826 185 -864 198 -928 320 -55 104 -67 2601 -14 2727 78 184 57 185 1429 -68z"/> <path d="M4239 3924 c-106 -52 -202 -101 -215 -110 -27 -18 -10 -74 23 -74 54 1 476 221 468 245 -16 48 -85 32 -276 -61z"/> <path d="M2139 3574 c-519 -177 -817 -846 -628 -1410 422 -1257 2058 -1117 2056 176 -1 843 -729 1473 -1428 1234z m579 -137 c825 -283 987 -1591 242 -1945 -138 -66 -558 -93 -644 -42 -25 15 6 19 110 14 489 -25 823 471 686 1017 -148 587 -675 923 -1178 752 l-136 -47 76 78 c204 209 539 278 844 173z m-420 -297 c883 -167 983 -1549 112 -1550 -837 0 -1167 1391 -367 1548 121 24 138 25 255 2z"/> <path d="M2128 2683 c-241 -151 -118 -619 174 -658 304 -41 411 425 145 629 -92 70 -233 83 -319 29z m221 -254 c55 -56 32 -149 -37 -149 -55 0 -92 36 -92 90 0 82 72 115 129 59z"/> </g> </svg> 