 <svg  version="1.0" xmlns="http://www.w3.org/2000/svg"  width="300.000000pt" height="300.000000pt" viewBox="0 0 300.000000 300.000000"  preserveAspectRatio="xMidYMid meet">  <g transform="translate(0.000000,300.000000) scale(0.050000,-0.050000)" fill="#ffffff" stroke="none"> <path d="M1750 5074 c-718 -293 -753 -313 -827 -474 -39 -87 -62 -2556 -26 -2792 44 -280 189 -415 549 -509 371 -96 2266 -519 2327 -519 174 0 1016 406 1177 568 156 155 152 113 146 1643 l-6 1319 -52 112 c-142 302 -109 290 -1658 618 -214 45 -516 109 -670 142 -481 103 -430 108 -960 -108z m875 5 c168 -34 530 -110 805 -169 275 -60 670 -144 877 -189 482 -103 574 -159 645 -393 34 -115 42 -2649 8 -2767 -32 -111 -115 -177 -410 -325 -154 -78 -304 -158 -333 -178 -74 -52 -75 -51 -44 66 33 129 40 2543 7 2715 -74 393 -140 426 -1400 689 -137 28 -439 92 -670 140 -231 49 -461 95 -512 102 -205 30 -189 52 122 170 127 47 289 111 360 142 163 71 175 71 545 -3z m-655 -498 c319 -68 729 -155 910 -193 987 -207 1034 -225 1153 -448 60 -114 57 -2795 -4 -2900 -98 -170 -189 -172 -849 -21 -247 57 -589 135 -760 173 -1286 292 -1246 278 -1356 467 l-54 91 0 1390 0 1390 45 72 c92 148 123 148 915 -21z"/> <path d="M2185 4151 c-804 -183 -1114 -1266 -578 -2018 707 -991 2070 -586 2079 617 7 872 -744 1573 -1501 1401z m397 -111 c633 -117 1100 -910 930 -1580 -309 -1220 -1878 -924 -2053 387 -96 721 463 1315 1123 1193z"/> <path d="M2154 3901 c-705 -225 -799 -1329 -158 -1853 640 -525 1425 -134 1431 712 5 726 -671 1333 -1273 1141z m574 -161 c606 -300 792 -1191 341 -1630 -552 -536 -1521 164 -1392 1006 86 570 575 859 1051 624z"/> <path d="M2848 3308 c-54 -41 -151 -115 -215 -165 -93 -73 -130 -91 -182 -86 -188 16 -265 -255 -109 -385 133 -113 318 -27 318 148 0 75 17 103 165 282 213 258 224 359 23 206z"/> </g> </svg> 