 <svg  version="1.0" xmlns="http://www.w3.org/2000/svg"  width="300.000000pt" height="300.000000pt" viewBox="0 0 300.000000 300.000000"  preserveAspectRatio="xMidYMid meet">  <g transform="translate(0.000000,300.000000) scale(0.050000,-0.050000)" fill="#ffffff" stroke="none"> <path d="M2790 5566 c-361 -48 -846 -361 -721 -465 33 -28 43 -23 177 82 444 349 1099 336 1541 -30 150 -124 242 -41 101 92 -253 239 -710 372 -1098 321z"/> <path d="M2740 5139 c-242 -63 -463 -234 -411 -318 23 -37 71 -23 164 48 297 227 711 223 1034 -9 137 -98 235 -21 109 87 -239 203 -575 275 -896 192z"/> <path d="M2824 4751 c-173 -55 -269 -169 -193 -232 25 -21 46 -14 125 43 131 94 354 101 469 13 95 -72 175 -74 175 -5 0 141 -351 251 -576 181z"/> <path d="M2210 4407 c-92 -25 -725 -316 -785 -361 -36 -27 -90 -95 -120 -152 l-55 -104 -6 -1179 c-8 -1738 -121 -1586 1370 -1843 1234 -213 1108 -216 1567 36 357 196 435 260 519 425 l70 137 0 1172 0 1172 -56 122 c-137 296 -292 377 -821 430 -211 21 -594 61 -853 88 -545 56 -774 72 -830 57z m401 -147 c87 -11 389 -42 669 -70 1139 -112 1052 -95 1192 -238 173 -178 168 -134 167 -1421 -1 -1203 -1 -1202 -104 -1336 -39 -50 -403 -295 -439 -295 -3 0 -4 575 -1 1278 8 1806 75 1696 -1104 1825 -386 42 -789 83 -897 90 -207 14 -248 30 -159 64 30 11 109 43 175 71 134 57 245 64 501 32z m69 -361 c1124 -114 1116 -112 1234 -314 l56 -95 0 -1274 c0 -1431 11 -1321 -150 -1431 -108 -73 -147 -69 -1974 247 -237 40 -340 103 -413 250 l-53 106 0 1191 c0 1353 -8 1289 161 1377 104 54 6 59 1139 -57z"/> <path d="M1725 3700 c-102 -62 -105 -89 -105 -833 0 -741 7 -797 106 -850 52 -28 1762 -274 1823 -262 156 30 156 32 153 897 -3 933 36 876 -642 946 -225 24 -603 65 -840 92 -236 28 -429 50 -430 50 0 0 -29 -18 -65 -40z m730 -169 c338 -38 702 -78 808 -90 235 -25 251 -31 288 -102 41 -80 43 -1372 2 -1428 -29 -40 -1703 179 -1766 231 -37 31 -40 1397 -3 1434 30 30 -43 35 671 -45z"/> <path d="M1984 3316 c-13 -13 -24 -45 -24 -70 0 -52 11 -56 268 -85 98 -11 181 -23 184 -27 7 -6 -48 -151 -215 -564 -89 -223 -94 -242 -62 -266 72 -53 106 -21 177 166 38 99 120 309 181 466 83 210 107 292 91 308 -17 17 -445 89 -565 95 -6 1 -22 -10 -35 -23z"/> <path d="M2810 3194 c-105 -59 -138 -124 -96 -187 41 -63 62 -59 137 23 77 84 143 90 222 23 113 -98 86 -163 -171 -421 -211 -212 -227 -233 -237 -319 -9 -81 -5 -93 27 -93 21 0 157 -14 303 -31 286 -33 305 -31 305 40 0 72 -41 90 -238 104 -235 17 -234 13 -22 213 207 195 240 247 240 384 0 250 -248 390 -470 264z"/> <path d="M2437 1670 c-197 -107 -171 -436 43 -545 223 -114 436 22 416 265 -19 233 -267 384 -459 280z m225 -124 c160 -95 134 -326 -37 -326 -160 0 -253 224 -132 319 64 50 94 51 169 7z"/> </g> </svg> 