 <svg  version="1.0" xmlns="http://www.w3.org/2000/svg"  width="300.000000pt" height="300.000000pt" viewBox="0 0 300.000000 300.000000"  preserveAspectRatio="xMidYMid meet">  <g transform="translate(0.000000,300.000000) scale(0.050000,-0.050000)" fill="#ffffff" stroke="none"> <path d="M2690 5632 c-383 -89 -753 -338 -641 -431 27 -22 50 -14 150 57 505 354 1141 354 1615 0 102 -76 152 -84 174 -26 32 84 -248 270 -558 368 -179 57 -561 73 -740 32z"/> <path d="M2850 5288 c-177 -42 -232 -60 -320 -104 -176 -87 -273 -163 -266 -209 13 -85 61 -84 185 2 352 247 817 240 1141 -17 87 -69 96 -71 139 -29 141 142 -572 431 -879 357z"/> <path d="M2884 4919 c-173 -35 -398 -168 -379 -224 17 -52 74 -66 130 -30 266 168 537 169 728 1 47 -41 126 -26 133 26 18 126 -381 274 -612 227z"/> <path d="M2673 4468 c-649 -157 -1043 -895 -795 -1491 35 -82 112 -235 173 -338 251 -428 285 -538 301 -989 13 -356 27 -425 108 -517 50 -57 56 -81 64 -248 9 -194 41 -273 128 -313 21 -9 63 -53 94 -96 139 -196 417 -194 544 4 22 35 65 76 95 92 87 46 115 124 115 324 0 157 5 182 43 216 91 81 116 180 117 458 1 479 38 615 272 1013 206 349 268 524 268 754 0 784 -730 1324 -1527 1131z m649 -135 c524 -159 859 -704 731 -1193 -49 -189 -347 -267 -1023 -268 -650 -1 -1007 76 -1062 228 -166 463 195 1089 710 1231 125 35 532 36 644 2z m-1032 -1540 c438 -98 1237 -80 1565 35 l85 30 -32 -61 c-17 -34 -63 -111 -102 -171 -172 -269 -265 -546 -266 -791 0 -171 -148 -239 -520 -241 -364 -1 -540 67 -541 211 -2 265 -114 581 -316 893 -91 140 -102 173 -48 145 19 -10 98 -32 175 -50z m720 -1321 c260 0 316 6 418 44 l118 44 -13 -121 c-25 -242 -122 -317 -435 -334 -434 -25 -611 81 -616 369 l-2 84 115 -43 c99 -37 157 -43 415 -43z m-87 -501 c93 -8 204 -3 302 14 182 32 230 -15 80 -79 -177 -76 -645 -30 -645 63 0 44 5 47 58 31 33 -9 125 -22 205 -29z m144 -225 c112 6 228 17 258 25 52 13 54 11 38 -34 -53 -145 -678 -131 -699 16 -6 43 -5 43 97 13 76 -22 157 -28 306 -20z m76 -251 c-34 -34 -190 -41 -229 -11 -33 24 -20 28 106 29 92 1 135 -6 123 -18z"/> <path d="M2880 1330 c0 -26 21 -31 125 -26 69 3 125 15 125 26 0 11 -56 23 -125 26 -104 5 -125 0 -125 -26z"/> <path d="M2971 1262 c-13 -22 38 -67 56 -48 7 7 13 25 13 39 0 30 -52 37 -69 9z"/> </g> </svg> 