 <svg  version="1.0" xmlns="http://www.w3.org/2000/svg"  width="300.000000pt" height="300.000000pt" viewBox="0 0 300.000000 300.000000"  preserveAspectRatio="xMidYMid meet">  <g transform="translate(0.000000,300.000000) scale(0.100000,-0.100000)" fill="#ffffff" stroke="none"> <path d="M1442 2769 c-117 -20 -292 -116 -292 -159 0 -34 26 -33 77 3 201 143 432 142 625 -4 51 -38 71 -41 82 -12 13 33 -111 115 -236 157 -60 20 -188 28 -256 15z"/> <path d="M1462 2599 c-84 -14 -202 -81 -202 -115 0 -6 7 -17 15 -24 11 -9 21 -7 48 14 121 92 282 98 408 14 33 -22 66 -37 74 -34 28 10 16 44 -27 75 -83 61 -207 89 -316 70z"/> <path d="M1423 2410 c-31 -13 -43 -25 -43 -40 0 -30 25 -35 70 -15 52 24 169 18 200 -10 16 -15 25 -17 38 -8 31 19 20 47 -28 71 -59 29 -175 31 -237 2z"/> <path d="M924 2236 c-138 -29 -263 -60 -278 -69 -34 -23 -56 -57 -62 -99 -6 -31 110 -574 151 -714 18 -60 72 -127 125 -154 38 -19 509 -158 608 -179 30 -6 58 -8 63 -5 6 3 9 -28 7 -82 l-3 -87 -127 -67 c-173 -90 -168 -85 -168 -187 0 -141 -3 -137 231 -253 281 -139 261 -141 530 47 85 59 172 119 192 133 20 14 44 39 52 57 19 39 21 191 3 216 -7 10 -94 48 -193 85 l-180 68 -3 102 c-2 77 0 102 10 102 7 0 66 19 131 42 131 47 183 83 220 152 21 40 22 51 22 326 0 269 -1 288 -21 331 -27 58 -85 114 -138 134 -70 26 -788 155 -858 154 -34 0 -176 -24 -314 -53z m750 -70 c217 -41 407 -81 422 -89 39 -20 70 -55 89 -99 12 -31 15 -86 15 -308 0 -311 -4 -328 -82 -374 -36 -20 -409 -156 -430 -156 -4 0 -2 13 3 29 6 18 9 154 7 357 -3 317 -4 330 -25 370 -28 53 -91 107 -140 122 -32 9 -514 103 -668 130 -41 7 -45 10 -25 15 77 18 389 76 412 76 15 1 205 -32 422 -73z m-764 -81 c96 -19 247 -48 335 -66 88 -17 187 -36 221 -43 78 -16 124 -45 154 -98 l25 -43 0 -330 c0 -294 -2 -333 -17 -362 -27 -49 -65 -73 -114 -73 -44 0 -568 146 -620 173 -36 19 -82 63 -99 97 -7 14 -27 95 -45 180 -18 85 -50 231 -71 324 -45 194 -47 228 -19 256 27 27 47 26 250 -15z m910 -1159 c0 -183 -1 -194 -21 -212 -29 -26 -143 -27 -182 -1 l-27 17 0 146 0 146 27 22 c29 23 183 85 196 79 4 -2 7 -91 7 -197z m283 -123 c59 -21 106 -43 105 -49 -2 -6 -102 -78 -223 -159 -186 -126 -226 -148 -257 -148 -24 0 -87 24 -188 72 -82 40 -170 80 -194 91 -48 20 -58 30 -48 46 4 6 60 38 125 72 l117 61 0 -43 c0 -71 57 -108 165 -108 67 0 109 13 143 44 20 19 22 31 22 114 l0 93 63 -24 c34 -13 110 -41 170 -62z m103 -189 c-4 -15 -48 -52 -134 -110 -70 -48 -165 -114 -210 -147 -126 -90 -125 -90 -359 27 -117 58 -196 103 -203 116 -6 11 -10 34 -8 50 l3 28 195 -91 c268 -125 234 -128 494 47 114 77 210 144 214 150 9 14 15 -40 8 -70z"/> <path d="M710 2039 c-7 -11 -10 -22 -8 -23 2 -2 39 -10 83 -20 43 -9 80 -18 80 -19 1 -1 -2 -33 -6 -72 -4 -38 -6 -180 -5 -315 1 -265 6 -290 59 -325 13 -8 136 -47 273 -85 202 -57 260 -70 308 -68 51 3 62 7 80 31 20 27 21 39 21 330 0 441 32 408 -491 513 -202 41 -371 74 -375 74 -5 0 -13 -9 -19 -21z m497 -128 c258 -52 287 -63 321 -124 15 -28 17 -69 20 -307 3 -269 3 -277 -18 -303 -12 -15 -28 -27 -36 -27 -15 0 -358 96 -478 133 -113 36 -111 31 -110 325 0 136 4 273 8 305 7 52 9 57 29 52 12 -3 131 -27 264 -54z"/> <path d="M1218 1820 c-94 -29 -152 -115 -152 -224 1 -202 166 -335 310 -251 65 38 96 99 102 195 5 88 -6 130 -48 189 -54 74 -144 112 -212 91z m57 -64 c-139 -61 -132 -288 11 -361 l39 -20 -29 -3 c-41 -5 -82 15 -120 59 -108 127 -52 339 89 338 l40 0 -30 -13z m89 -11 c20 -15 56 -65 56 -77 0 -4 -13 -5 -29 -2 -59 12 -93 -66 -49 -113 23 -25 48 -29 79 -13 17 9 19 7 19 -17 -1 -41 -34 -109 -64 -128 -25 -16 -26 -16 -75 25 -106 90 -117 200 -29 296 43 47 61 52 92 29z m54 -141 c2 -11 -4 -26 -12 -33 -22 -18 -56 3 -56 35 0 22 4 25 33 22 24 -2 33 -8 35 -24z"/> </g> </svg> 