<?xml version="1.0" standalone="no"?>
<!DOCTYPE svg PUBLIC "-//W3C//DTD SVG 20010904//EN"
 "http://www.w3.org/TR/2001/REC-SVG-20010904/DTD/svg10.dtd">
<svg version="1.0" xmlns="http://www.w3.org/2000/svg"
 width="300.000000pt" height="300.000000pt" viewBox="0 0 300.000000 300.000000"
 preserveAspectRatio="xMidYMid meet">
<metadata>
Created by potrace 1.10, written by Peter Selinger 2001-2011
</metadata>
<g transform="translate(0.000000,300.000000) scale(0.050000,-0.050000)"
fill="#ffffff" stroke="none">
<path d="M2170 5545 c-423 -106 -782 -301 -877 -475 l-43 -80 0 -1980 0 -1980
44 -94 c125 -272 275 -356 777 -436 509 -80 518 -80 821 41 604 241 635 289
644 1024 4 272 13 495 20 495 8 0 109 -15 226 -33 204 -33 214 -32 288 5 209
103 224 367 27 487 -54 33 -152 55 -491 114 l-65 11 -5 1183 -6 1183 -56 114
c-66 134 -218 280 -340 324 -65 24 -868 120 -914 110 -5 -2 -28 -7 -50 -13z
m618 -136 c398 -41 550 -133 622 -377 28 -92 49 -2372 22 -2372 -8 0 -285 54
-367 71 l-45 10 0 1036 0 1037 -61 122 c-137 274 -420 383 -997 384 -132 0
-121 13 65 85 160 62 205 62 761 4z m-548 -201 c438 -49 596 -141 668 -387 39
-133 49 -2061 11 -2061 -83 0 -299 50 -299 69 0 165 -149 383 -323 469 -275
138 -556 25 -668 -267 -20 -52 -61 -119 -91 -150 -163 -163 -102 -432 117
-513 52 -20 131 -59 175 -89 160 -107 360 -134 498 -69 72 34 257 21 567 -42
l45 -9 0 -624 c0 -700 -6 -739 -124 -867 -137 -149 -199 -157 -660 -87 -553
85 -638 127 -760 374 l-66 134 -6 1847 c-6 1969 -4 2017 91 2152 127 182 195
192 825 120z m20 -1995 c127 -65 308 -332 258 -381 -31 -31 -124 21 -158 87
-108 213 -257 253 -500 136 -71 -35 -138 -67 -148 -72 -9 -4 4 30 30 78 104
186 325 251 518 152z m-111 -201 c60 -26 149 -122 129 -140 -9 -9 -421 64
-433 76 -7 8 188 89 221 91 8 1 46 -12 83 -27z m-309 -154 c50 -12 561 -106
1138 -209 994 -177 1050 -190 1105 -242 78 -75 79 -180 2 -257 -70 -70 -50
-71 -1125 97 -456 72 -933 146 -1060 165 -352 52 -473 219 -292 400 74 74 96
78 232 46z m340 -579 c42 -13 38 -16 -30 -16 -44 0 -111 13 -150 28 l-70 28
100 -12 c54 -7 122 -20 150 -28z m1038 -160 c73 -12 152 -25 177 -30 l45 -10
0 -474 c0 -645 -30 -725 -320 -870 -187 -93 -186 -93 -139 10 35 78 38 136 39
740 0 598 3 655 33 655 19 0 93 -9 165 -21z"/>
<path d="M1923 4779 c-202 -41 -402 -189 -339 -252 30 -29 39 -27 109 30 239
191 568 167 817 -61 115 -105 179 -117 166 -31 -23 162 -508 364 -753 314z"/>
<path d="M1881 4468 c-91 -39 -141 -85 -141 -131 0 -50 39 -47 143 13 154 88
333 62 484 -70 73 -64 133 -70 133 -13 0 150 -422 287 -619 201z"/>
<path d="M1955 4189 c-54 -30 -74 -95 -35 -119 11 -7 40 2 64 19 63 44 162 39
206 -9 39 -43 100 -53 121 -19 58 94 -229 197 -356 128z"/>
<path d="M2054 1707 c-8 -7 -14 -100 -15 -205 -1 -180 -3 -189 -32 -147 -36
50 -83 59 -99 18 -15 -39 135 -273 175 -273 44 0 198 194 184 231 -15 39 -56
37 -90 -4 -23 -29 -28 -5 -37 175 -10 203 -33 258 -86 205z"/>
</g>
</svg>
