 <svg  version="1.0" xmlns="http://www.w3.org/2000/svg"  width="300.000000pt" height="300.000000pt" viewBox="0 0 300.000000 300.000000"  preserveAspectRatio="xMidYMid meet">  <g transform="translate(0.000000,300.000000) scale(0.050000,-0.050000)" fill="#ffffff" stroke="none"> <path d="M2764 5578 c-330 -50 -819 -319 -777 -427 19 -50 64 -37 208 62 508 349 1127 340 1638 -24 105 -75 134 -88 158 -68 49 41 33 75 -76 162 -285 226 -776 352 -1151 295z"/> <path d="M2680 5144 c-225 -76 -425 -205 -416 -271 9 -66 64 -62 170 15 353 253 841 243 1172 -24 84 -68 134 -65 134 6 0 200 -722 386 -1060 274z"/> <path d="M2767 4763 c-116 -40 -247 -131 -247 -172 0 -72 58 -77 157 -13 201 129 457 130 640 1 98 -68 150 -70 159 -5 23 156 -445 280 -709 189z"/> <path d="M2100 4372 c-38 -15 -231 -95 -427 -179 -196 -84 -364 -153 -372 -153 -51 0 -201 -170 -235 -265 -55 -159 -55 -2169 0 -2327 78 -226 239 -338 595 -416 891 -197 1843 -392 1909 -391 114 1 181 29 600 250 635 335 600 241 600 1629 0 1570 74 1477 -1370 1711 -1162 189 -1170 190 -1300 141z m466 -133 c1647 -254 1860 -304 1974 -463 111 -152 110 -143 110 -1256 0 -1309 31 -1211 -463 -1478 -308 -167 -289 -162 -256 -67 22 59 27 311 28 1188 l1 1114 -66 126 c-136 265 -173 277 -1413 485 l-868 145 128 52 c71 29 206 84 299 123 200 84 189 83 526 31z m-155 -470 c1250 -210 1249 -209 1365 -408 l54 -91 6 -1085 c6 -1170 4 -1198 -98 -1314 -119 -135 -79 -139 -1252 112 -1195 256 -1165 245 -1273 460 l-56 113 0 1059 c1 1511 -134 1387 1254 1154z"/> <path d="M4269 2111 c-120 -52 -189 -185 -189 -365 0 -338 307 -373 417 -48 80 235 -58 485 -228 413z m148 -178 c57 -119 -24 -333 -126 -333 -118 0 -149 221 -48 349 55 71 136 63 174 -16z"/> <path d="M1650 3552 c-262 -114 -280 -175 -280 -972 l0 -671 66 -134 c66 -135 165 -235 297 -302 68 -35 1320 -293 1419 -293 146 0 325 142 387 306 13 36 21 301 21 712 0 1095 5 1089 -1117 1281 -625 108 -699 114 -793 73z m814 -202 c1004 -174 975 -140 975 -1140 0 -765 -2 -777 -182 -866 l-94 -47 -659 130 c-1028 203 -1011 183 -1020 1096 -7 639 1 712 91 819 120 143 107 143 889 8z"/> <path d="M1945 3145 c-28 -9 -37 -555 -10 -572 8 -5 58 -16 110 -23 l95 -15 0 292 0 292 -55 12 c-101 21 -115 23 -140 14z"/> <path d="M2792 2985 c-7 -6 -12 -131 -12 -276 0 -294 3 -301 130 -312 l80 -7 6 272 c4 203 -1 277 -20 292 -31 25 -168 48 -184 31z"/> <path d="M2282 2169 c-40 -52 -72 -192 -59 -260 7 -37 355 -121 412 -100 33 13 32 155 -2 238 -68 161 -265 230 -351 122z"/> </g> </svg> 