 <svg  version="1.0" xmlns="http://www.w3.org/2000/svg"  width="300.000000pt" height="300.000000pt" viewBox="0 0 300.000000 300.000000"  preserveAspectRatio="xMidYMid meet">  <g transform="translate(0.000000,300.000000) scale(0.050000,-0.050000)" fill="#ffffff" stroke="none"> <path d="M3289 5555 c54 -254 20 -368 -177 -595 -164 -190 -202 -278 -201 -460 1 -238 150 -507 234 -423 15 15 -2 65 -55 166 -135 257 -101 420 150 706 183 211 241 436 157 620 -38 83 -126 72 -108 -14z"/> <path d="M3681 5521 c-25 -16 -25 -33 -3 -121 52 -202 -1 -331 -247 -597 -165 -180 -210 -273 -211 -434 0 -195 130 -407 204 -333 14 14 1 61 -42 146 -109 218 -86 300 163 584 94 108 188 229 208 270 86 173 30 548 -72 485z"/> <path d="M2818 5336 c-1 -14 -1 -53 1 -86 3 -59 -18 -96 -189 -337 -146 -204 -128 -458 45 -638 113 -118 160 -39 57 96 -153 201 -122 378 118 660 106 126 121 314 25 325 -35 4 -56 -3 -57 -20z"/> <path d="M2740 4492 c0 -32 56 -83 72 -66 7 6 6 30 -2 52 -14 47 -70 58 -70 14z"/> <path d="M3094 4505 c-11 -17 19 -105 35 -105 6 0 11 27 11 60 0 55 -26 80 -46 45z"/> <path d="M2170 4449 c-716 -156 -1202 -455 -1321 -813 -56 -167 -34 -1097 28 -1216 69 -130 168 -246 283 -330 l100 -73 0 -164 c0 -202 24 -292 99 -372 32 -34 96 -141 142 -237 163 -338 535 -644 952 -783 799 -266 1698 90 2049 812 44 90 93 175 110 189 62 51 89 141 101 343 l13 206 97 67 c328 227 369 337 362 992 l-6 500 -56 121 c-171 365 -702 654 -1431 779 -226 38 -222 39 -248 -19 -24 -54 -19 -56 186 -82 1004 -127 1655 -688 1344 -1157 -540 -813 -2992 -908 -3824 -149 -521 477 -4 1092 1081 1286 302 54 303 55 238 120 -39 38 -29 38 -299 -20z m-1170 -1393 c1 -33 297 -242 434 -307 1104 -524 2907 -378 3528 287 l118 125 0 -285 c0 -377 -11 -412 -187 -587 -681 -678 -2541 -784 -3533 -202 -341 200 -419 340 -433 773 l-10 310 41 -50 c23 -27 41 -56 42 -64z m514 -1166 c758 -373 2199 -377 2953 -7 154 75 153 76 153 -64 0 -257 -174 -426 -597 -579 -910 -330 -2428 -104 -2636 393 -23 55 -40 327 -21 327 4 0 70 -31 148 -70z m2843 -675 c-86 -158 -386 -434 -587 -539 -726 -377 -1629 -180 -2083 457 -112 157 -108 163 52 86 702 -340 1993 -325 2571 31 44 27 83 49 86 49 4 1 -14 -37 -39 -84z"/> <path d="M1090 2700 c-60 -96 833 -500 993 -449 94 30 24 84 -180 140 -223 61 -473 165 -626 259 -116 72 -165 85 -187 50z"/> <path d="M1113 2507 c-86 -86 266 -316 701 -459 233 -76 282 -82 299 -37 19 49 -15 69 -206 122 -216 60 -548 218 -660 315 -84 72 -109 83 -134 59z"/> <path d="M2766 3795 c-342 -110 -221 -407 176 -431 477 -28 685 301 269 426 -111 34 -348 36 -445 5z m476 -128 c157 -91 21 -197 -252 -197 -278 0 -392 112 -210 206 115 60 353 55 462 -9z"/> </g> </svg> 