 <svg  version="1.0" xmlns="http://www.w3.org/2000/svg"  width="300.000000pt" height="300.000000pt" viewBox="0 0 300.000000 300.000000"  preserveAspectRatio="xMidYMid meet">  <g transform="translate(0.000000,300.000000) scale(0.050000,-0.050000)" fill="#ffffff" stroke="none"> <path d="M2207 5500 c-24 -10 -210 -95 -414 -189 -203 -94 -378 -171 -388 -171 -65 0 -263 -163 -307 -253 l-48 -97 0 -1590 c0 -2049 -31 -1945 631 -2137 148 -43 607 -178 1019 -299 966 -285 996 -293 1087 -267 245 67 1056 578 1129 710 43 79 65 3217 24 3408 -68 315 -140 346 -1469 655 -1053 244 -1175 266 -1264 230z m1235 -348 c1077 -249 1183 -281 1282 -385 121 -127 116 -58 116 -1791 -1 -1655 -3 -1706 -90 -1796 -47 -49 -602 -380 -637 -380 -7 0 -13 753 -13 1673 0 1185 -7 1694 -23 1748 -37 123 -155 262 -278 324 -87 44 -1413 380 -2158 547 -39 8 17 40 266 148 174 75 321 142 328 148 30 30 205 -4 1207 -236z m-967 -382 c1292 -312 1247 -299 1352 -392 159 -139 150 -28 155 -1901 4 -1784 8 -1711 -100 -1802 -126 -106 -50 -124 -2068 473 -473 140 -546 186 -617 384 -48 138 -39 3213 10 3312 101 204 120 203 1268 -74z"/> <path d="M4435 4379 c-233 -118 -292 -178 -207 -211 32 -12 512 223 512 251 0 105 -25 102 -305 -40z"/> <path d="M2246 4019 l-285 -159 -192 54 c-268 75 -258 87 -264 -308 -7 -380 -19 -359 253 -434 129 -35 208 -69 250 -107 33 -30 167 -156 297 -280 231 -219 282 -250 331 -201 25 25 37 1500 12 1564 -23 60 -118 30 -402 -129z m314 -643 l0 -665 -125 120 c-69 65 -190 182 -270 258 l-145 140 0 263 0 263 245 141 c135 78 256 142 270 142 20 2 25 -143 25 -662z m-640 129 c0 -135 -7 -245 -15 -245 -8 0 -75 15 -149 34 l-134 34 -6 248 c-7 294 -27 266 154 216 l150 -42 0 -245z"/> <path d="M3289 4113 c-6 -14 21 -74 60 -131 343 -510 348 -1162 12 -1520 -85 -90 -91 -115 -37 -149 184 -116 455 584 395 1018 -61 435 -357 974 -430 782z"/> <path d="M3079 3948 c-17 -20 -20 -40 -8 -56 304 -400 334 -1024 57 -1205 -82 -54 -75 -147 12 -147 43 0 183 178 244 311 125 272 22 841 -195 1075 -59 63 -74 66 -110 22z"/> <path d="M2873 3787 c-26 -27 -12 -102 27 -137 164 -149 176 -570 20 -720 -75 -72 -81 -150 -12 -150 93 0 223 210 245 396 30 254 -179 711 -280 611z"/> <path d="M2389 1871 c-118 -118 -28 -371 131 -371 93 0 180 94 180 194 0 187 -192 296 -311 177z m143 -66 c72 -48 66 -185 -7 -185 -76 0 -108 80 -64 161 22 42 37 47 71 24z"/> </g> </svg> 