<?xml version="1.0" standalone="no"?>
<!DOCTYPE svg PUBLIC "-//W3C//DTD SVG 20010904//EN"
 "http://www.w3.org/TR/2001/REC-SVG-20010904/DTD/svg10.dtd">
<svg version="1.0" xmlns="http://www.w3.org/2000/svg"
 width="181.000000pt" height="182.000000pt" viewBox="0 0 181.000000 182.000000"
 preserveAspectRatio="xMidYMid meet">
<metadata>
Created by potrace 1.10, written by Peter Selinger 2001-2011
</metadata>
<g transform="translate(0.000000,182.000000) scale(0.050000,-0.050000)"
fill="#000000" stroke="none">
<path d="M1722 3552 c-41 -49 -20 -572 23 -600 85 -53 105 1 111 297 5 285 -5
331 -76 331 -19 0 -45 -12 -58 -28z"/>
<path d="M564 3056 c-47 -47 -22 -89 151 -261 184 -183 244 -211 286 -134 19
37 1 62 -163 230 -182 186 -226 213 -274 165z"/>
<path d="M2760 2898 c-99 -100 -180 -186 -180 -191 0 -139 111 -107 305 88
174 175 197 215 151 261 -49 49 -99 20 -276 -158z"/>
<path d="M1520 2722 c-949 -307 -912 -1581 54 -1832 714 -186 1379 517 1146
1210 -166 492 -718 778 -1200 622z m620 -194 c620 -291 623 -1151 6 -1431
-682 -310 -1399 382 -1086 1048 184 392 683 569 1080 383z"/>
<path d="M2973 1883 c-100 -110 -16 -148 285 -132 297 17 360 48 271 138 -50
49 -510 45 -556 -6z"/>
<path d="M64 1876 c-35 -35 -29 -111 11 -133 104 -59 605 7 605 79 0 75 -547
123 -616 54z"/>
<path d="M725 855 c-183 -184 -207 -225 -161 -271 46 -46 86 -23 261 151 173
172 203 229 151 281 -42 42 -63 28 -251 -161z"/>
<path d="M2613 1003 c-50 -55 -47 -60 152 -258 184 -183 225 -207 271 -161 47
47 22 89 -161 271 -199 198 -211 205 -262 148z"/>
<path d="M1739 648 c-64 -76 -18 -588 52 -588 73 0 89 57 89 310 0 288 -51
388 -141 278z"/>
</g>
</svg>
