 <svg  version="1.0" xmlns="http://www.w3.org/2000/svg"  width="300.000000pt" height="300.000000pt" viewBox="0 0 300.000000 300.000000"  preserveAspectRatio="xMidYMid meet">  <g transform="translate(0.000000,300.000000) scale(0.050000,-0.050000)" fill="#ffffff" stroke="none"> <path d="M2160 5658 c-114 -18 -942 -411 -1044 -497 -42 -35 -97 -101 -121 -147 l-45 -84 0 -1790 0 -1790 47 -90 c59 -113 172 -232 264 -280 105 -54 2476 -640 2591 -640 138 0 955 388 1082 513 153 153 148 66 141 2079 l-5 1778 -57 116 c-118 240 -115 239 -1460 557 -1199 283 -1259 295 -1393 275z m986 -319 c1727 -403 1647 -376 1749 -579 l45 -88 0 -1791 -1 -1791 -45 -80 c-39 -71 -80 -98 -351 -237 -341 -174 -328 -172 -302 -62 26 104 21 3382 -5 3524 -24 134 -120 278 -240 358 -100 66 -35 49 -1696 447 -357 85 -686 164 -730 175 -68 16 -74 22 -40 36 22 9 175 77 340 152 370 169 254 175 1276 -64z m-1372 -310 c207 -50 718 -172 1136 -270 1091 -258 1060 -246 1158 -442 l52 -105 0 -1750 c0 -1996 10 -1875 -168 -1961 -110 -53 33 -81 -1344 260 -1278 317 -1327 333 -1427 453 -125 152 -122 106 -116 1979 l5 1700 53 80 c112 170 163 174 651 56z"/> <path d="M2055 4558 c-56 -32 -46 -134 15 -150 75 -19 110 3 110 71 0 80 -59 118 -125 79z"/> <path d="M2468 4433 c-36 -96 64 -181 132 -113 39 39 40 47 14 86 -35 53 -129 70 -146 27z"/> <path d="M2924 4336 c-57 -57 -5 -145 78 -133 70 11 94 67 49 116 -42 46 -91 53 -127 17z"/> <path d="M2016 4003 c-813 -269 -931 -1439 -221 -2185 989 -1039 2303 -222 1862 1157 -229 716 -1043 1225 -1641 1028z m515 -113 c764 -194 1279 -1109 1025 -1824 -312 -876 -1474 -741 -1948 227 -443 902 82 1810 923 1597z"/> <path d="M2366 3629 c-109 -56 -126 -134 -126 -587 l0 -397 -52 -34 c-194 -127 -167 -515 51 -732 431 -431 969 96 598 587 l-79 104 14 322 c7 177 7 372 -1 434 -30 240 -231 391 -405 303z m192 -122 c89 -62 102 -135 102 -583 0 -402 2 -419 43 -456 170 -151 178 -487 13 -587 -341 -209 -723 341 -444 639 l88 94 0 419 c0 507 34 589 198 474z"/> <path d="M2471 3196 c-5 -14 -12 -199 -16 -410 l-6 -384 -55 -50 c-105 -97 -16 -312 129 -312 146 0 202 167 97 286 l-59 68 -6 408 c-5 370 -8 408 -40 414 -19 4 -39 -5 -44 -20z"/> </g> </svg> 