<?xml version="1.0" standalone="no"?>
<!DOCTYPE svg PUBLIC "-//W3C//DTD SVG 20010904//EN"
 "http://www.w3.org/TR/2001/REC-SVG-20010904/DTD/svg10.dtd">
<svg version="1.0" xmlns="http://www.w3.org/2000/svg"
 width="121.000000pt" height="230.000000pt" viewBox="0 0 121.000000 230.000000"
 preserveAspectRatio="xMidYMid meet">
<metadata>
Created by potrace 1.10, written by Peter Selinger 2001-2011
</metadata>
<g transform="translate(0.000000,230.000000) scale(0.050000,-0.050000)"
fill="#000000" stroke="none">
<path d="M1087 4520 c-515 -109 -987 -1072 -995 -2030 -5 -615 375 -1119 929
-1233 l119 -25 0 -537 c0 -551 8 -615 78 -615 80 0 84 35 83 607 l-2 549 85
15 c641 106 1035 692 957 1424 -124 1159 -674 1968 -1254 1845z m328 -191
c336 -168 645 -805 754 -1552 99 -678 -130 -1137 -665 -1331 -226 -82 -203
-176 -209 847 -5 825 -8 894 -40 915 -95 60 -105 14 -105 -485 0 -255 -1 -463
-2 -463 -2 0 -87 81 -190 179 -200 192 -243 218 -289 180 -64 -53 -30 -106
222 -348 l252 -241 -7 -324 -6 -324 -147 50 c-722 243 -921 983 -552 2049 245
707 619 1029 984 848z"/>
</g>
</svg>
