<?xml version="1.0" standalone="no"?>
<!DOCTYPE svg PUBLIC "-//W3C//DTD SVG 20010904//EN"
 "http://www.w3.org/TR/2001/REC-SVG-20010904/DTD/svg10.dtd">
<svg version="1.0" xmlns="http://www.w3.org/2000/svg"
 width="180.000000pt" height="248.000000pt" viewBox="0 0 180.000000 248.000000"
 preserveAspectRatio="xMidYMid meet">
<metadata>
Created by potrace 1.10, written by Peter Selinger 2001-2011
</metadata>
<g transform="translate(0.000000,248.000000) scale(0.050000,-0.050000)"
fill="#000000" stroke="none">
<path d="M1569 4872 c-382 -93 -624 -379 -644 -760 l-10 -188 -113 -43 c-921
-353 -993 -1713 -117 -2227 258 -151 717 -204 940 -108 l75 32 0 -679 0 -679
-191 0 c-213 0 -269 -19 -269 -89 0 -69 18 -71 559 -71 525 0 554 5 537 94 -7
40 -121 60 -351 64 l-125 2 0 678 0 677 115 -46 c436 -176 900 -73 1246 277
581 587 335 1693 -441 1976 l-110 40 0 214 c0 574 -528 975 -1101 836z m536
-201 c320 -151 481 -493 386 -819 -40 -138 -26 -163 95 -182 250 -40 546 -267
669 -512 457 -912 -378 -1854 -1283 -1449 l-118 53 128 134 c70 74 189 198
265 276 156 163 174 233 62 244 -55 5 -81 -15 -250 -199 l-189 -204 -10 386
c-11 425 -26 476 -119 392 -39 -36 -41 -58 -41 -535 l0 -498 -95 -42 c-520
-231 -1186 153 -1345 776 -143 557 180 1146 695 1267 133 32 133 31 134 270 3
535 534 871 1016 642z"/>
</g>
</svg>
