<?xml version="1.0" standalone="no"?>
<!DOCTYPE svg PUBLIC "-//W3C//DTD SVG 20010904//EN"
 "http://www.w3.org/TR/2001/REC-SVG-20010904/DTD/svg10.dtd">
<svg version="1.0" xmlns="http://www.w3.org/2000/svg"
 width="192.000000pt" height="224.000000pt" viewBox="0 0 192.000000 224.000000"
 preserveAspectRatio="xMidYMid meet">
<metadata>
Created by potrace 1.10, written by Peter Selinger 2001-2011
</metadata>
<g transform="translate(0.000000,224.000000) scale(0.050000,-0.050000)"
fill="#000000" stroke="none">
<path d="M940 4389 c-589 -128 -982 -757 -830 -1328 35 -133 135 -342 186
-387 36 -33 35 -38 -24 -157 -123 -249 -94 -589 71 -837 313 -468 992 -535
1424 -139 l118 108 -8 -714 -7 -714 -218 -5 c-236 -6 -290 -31 -240 -111 28
-43 990 -65 1041 -23 98 82 -4 138 -254 138 l-179 0 0 636 0 635 110 109 110
109 95 -94 c329 -323 887 -289 1222 74 341 370 274 1040 -131 1313 -40 27 -42
38 -23 119 153 664 -630 1233 -1269 921 l-116 -56 -113 118 c-241 252 -611
361 -965 285z m446 -159 c227 -59 383 -167 511 -355 72 -106 95 -113 169 -54
546 429 1291 -29 1171 -719 l-23 -131 58 -40 c267 -188 392 -462 345 -759 -95
-594 -824 -840 -1226 -414 l-59 63 164 165 c163 164 186 204 140 250 -49 49
-93 19 -353 -250 l-266 -276 10 566 9 567 -47 21 c-96 44 -108 6 -114 -375
l-5 -347 -236 269 c-229 262 -277 298 -330 245 -46 -46 -23 -81 268 -409 l292
-329 -26 -62 c-41 -100 -217 -263 -358 -333 -725 -355 -1441 393 -1002 1048
l41 61 -99 137 c-510 698 138 1677 966 1461z"/>
</g>
</svg>
