<?xml version="1.0" standalone="no"?>
<!DOCTYPE svg PUBLIC "-//W3C//DTD SVG 20010904//EN"
 "http://www.w3.org/TR/2001/REC-SVG-20010904/DTD/svg10.dtd">
<svg version="1.0" xmlns="http://www.w3.org/2000/svg"
 width="300.000000pt" height="116.000000pt" viewBox="0 0 300.000000 116.000000"
 preserveAspectRatio="xMidYMid meet">
<metadata>
Created by potrace 1.10, written by Peter Selinger 2001-2011
</metadata>
<g transform="translate(0.000000,116.000000) scale(0.050000,-0.050000)"
fill="#000000" stroke="none">
<path d="M750 2235 c-124 -44 -208 -140 -480 -545 l-157 -233 -13 -253 c-8
-140 -26 -282 -40 -315 -35 -84 -13 -184 61 -274 77 -94 142 -111 472 -128
l264 -13 22 -88 c110 -438 866 -415 950 29 l13 65 1234 0 1235 0 34 -96 c150
-422 822 -423 936 -2 21 78 83 97 319 98 213 0 319 132 320 396 0 295 -117
452 -371 494 -43 7 -263 49 -489 93 l-410 80 -90 86 c-287 275 -682 540 -885
594 -168 44 -2805 55 -2925 12z m890 -110 c0 -8 -32 -145 -71 -305 l-72 -290
-597 0 c-394 0 -592 7 -582 20 9 11 93 129 187 261 193 272 209 288 300 310
85 20 835 24 835 4z m1120 8 c0 -4 9 -56 21 -115 11 -60 29 -171 40 -248 10
-77 24 -162 30 -190 l10 -50 -620 0 c-542 0 -619 4 -612 30 5 17 37 143 72
280 34 138 66 261 70 275 7 23 989 41 989 18z m855 -21 c155 -34 824 -476 860
-569 3 -7 -330 -11 -740 -8 l-745 5 -51 300 -51 300 301 -1 c173 0 354 -12
426 -27z m1369 -763 c703 -129 708 -131 786 -254 l35 -55 -152 0 c-132 0 -154
-5 -173 -40 -35 -66 -7 -80 164 -80 l161 0 -9 -110 c-15 -177 -50 -198 -371
-216 -111 -6 -125 -2 -125 30 0 194 -262 416 -490 416 -203 0 -426 -167 -473
-355 l-22 -85 -1233 0 -1234 0 -22 85 c-122 456 -829 459 -951 4 l-24 -91
-270 13 c-351 16 -472 95 -400 258 15 35 30 155 34 281 3 121 10 231 15 245 7
20 463 25 2188 25 l2180 0 386 -71z m-3508 -460 c229 -96 312 -333 186 -532
-196 -310 -682 -173 -682 193 0 251 268 434 496 339z m3430 10 c231 -64 343
-329 224 -531 -153 -260 -510 -242 -651 34 -136 266 132 578 427 497z"/>
<path d="M3181 1171 c-58 -70 -12 -93 174 -87 172 6 175 7 175 56 0 63 -301
90 -349 31z"/>
</g>
</svg>
