<?xml version="1.0" standalone="no"?>
<!DOCTYPE svg PUBLIC "-//W3C//DTD SVG 20010904//EN"
 "http://www.w3.org/TR/2001/REC-SVG-20010904/DTD/svg10.dtd">
<svg version="1.0" xmlns="http://www.w3.org/2000/svg"
 width="300.000000pt" height="167.000000pt" viewBox="0 0 300.000000 167.000000"
 preserveAspectRatio="xMidYMid meet">
<metadata>
Created by potrace 1.10, written by Peter Selinger 2001-2011
</metadata>
<g transform="translate(0.000000,167.000000) scale(0.050000,-0.050000)"
fill="#000000" stroke="none">
<path d="M227 3266 c-23 -4 -63 -31 -90 -59 l-47 -50 0 -1064 0 -1063 100 -10
100 -10 10 -237 c14 -323 24 -333 360 -333 l237 0 22 -68 c141 -426 887 -427
998 -2 l16 60 1223 5 c1180 5 1224 4 1224 -32 0 -20 35 -92 79 -159 217 -336
805 -259 943 123 l26 74 188 -3 c323 -5 344 40 344 726 0 655 15 605 -351
1166 -261 402 -300 448 -426 507 l-113 53 -553 0 -553 0 -8 135 c-6 115 -15
144 -62 190 l-55 55 -1784 2 c-982 2 -1804 -1 -1828 -6z m3562 -158 c28 -28
31 -140 26 -995 l-5 -963 -1795 -5 -1795 -5 0 968 c0 834 4 973 30 999 47 47
3492 48 3539 1z m1299 -383 c96 -34 105 -45 330 -385 127 -192 260 -388 295
-435 84 -111 110 -243 103 -536 l-6 -239 -91 6 c-110 8 -155 -28 -120 -95 18
-33 42 -41 122 -41 l99 0 0 -166 c0 -237 -15 -254 -231 -254 l-169 0 0 61 c0
33 -22 104 -49 156 -232 458 -922 360 -1004 -142 l-12 -75 -198 0 -197 0 0
1090 0 1090 515 0 c440 0 529 -5 613 -35z m-3988 -1717 c0 -6 -36 -52 -79
-102 -74 -84 -100 -138 -130 -272 l-12 -55 -215 5 -214 6 -6 215 -5 215 330 0
c182 0 331 -5 331 -12z m2700 -208 l0 -220 -925 5 -925 5 -16 104 c-13 83 -35
125 -105 203 -49 55 -89 104 -89 111 0 7 464 12 1030 12 l1030 0 0 -220z
m-2276 139 c230 -64 350 -335 243 -546 -210 -414 -829 -190 -727 263 46 208
274 342 484 283z m3486 -18 c255 -58 363 -446 175 -627 -372 -356 -907 149
-575 543 87 102 207 128 400 84z"/>
<path d="M4305 2478 c-32 -33 -36 -821 -4 -879 19 -37 48 -39 609 -39 l589 0
13 49 c37 150 -304 751 -482 847 -80 44 -686 62 -725 22z m712 -189 c34 -28
87 -98 119 -155 32 -57 95 -169 141 -248 46 -80 83 -154 83 -165 0 -14 -161
-21 -470 -21 l-470 0 0 320 0 320 268 0 c259 0 271 -2 329 -51z"/>
<path d="M4481 1292 c-58 -71 -8 -112 138 -112 144 0 191 25 177 94 -9 49
-276 64 -315 18z"/>
</g>
</svg>
