<?xml version="1.0" standalone="no"?>
<!DOCTYPE svg PUBLIC "-//W3C//DTD SVG 20010904//EN"
 "http://www.w3.org/TR/2001/REC-SVG-20010904/DTD/svg10.dtd">
<svg version="1.0" xmlns="http://www.w3.org/2000/svg"
 width="300.000000pt" height="123.000000pt" viewBox="0 0 300.000000 123.000000"
 preserveAspectRatio="xMidYMid meet">
<metadata>
Created by potrace 1.10, written by Peter Selinger 2001-2011
</metadata>
<g transform="translate(0.000000,123.000000) scale(0.050000,-0.050000)"
fill="#000000" stroke="none">
<path d="M1840 2337 c-164 -27 -317 -109 -650 -346 -388 -277 -388 -278 -590
-291 -335 -23 -422 -114 -483 -512 -88 -566 -20 -673 430 -684 l265 -7 27 -92
c98 -332 583 -439 837 -186 70 70 144 199 144 250 0 28 130 31 1170 31 l1170
0 0 -47 c0 -61 104 -216 189 -281 268 -204 713 -69 796 241 l23 87 263 0 c436
0 539 117 460 527 -77 403 -301 515 -1214 605 -152 15 -135 5 -713 411 -442
311 -469 317 -1354 314 -363 -1 -709 -10 -770 -20z m700 -417 l0 -279 -625 -6
-625 -5 -7 -48 c-11 -81 2 -81 1705 -82 1553 0 1672 -2 1890 -39 128 -22 312
-49 410 -61 212 -26 312 -73 392 -184 92 -126 85 -134 -115 -140 -172 -6 -175
-7 -175 -56 0 -49 3 -50 184 -56 l184 -5 12 -85 c29 -194 -40 -238 -369 -230
l-227 6 -23 92 c-122 483 -911 468 -990 -18 l-12 -74 -1158 0 -1159 0 -16 78
c-101 486 -848 500 -988 18 l-31 -106 -230 0 c-362 0 -386 42 -308 527 56 344
92 382 381 397 197 10 233 26 490 213 576 420 570 418 1065 421 l345 2 0 -280z
m934 250 c55 -16 182 -86 282 -155 99 -69 258 -178 352 -244 95 -65 172 -123
172 -130 0 -6 -360 -9 -800 -6 l-800 6 0 279 0 280 346 0 c250 0 375 -8 448
-30z m-2047 -1215 c407 -122 318 -735 -107 -735 -496 0 -498 721 -2 758 15 1
64 -9 109 -23z m3418 -38 c182 -92 246 -357 130 -533 -164 -248 -550 -212
-664 61 -138 329 210 636 534 472z"/>
<path d="M2808 1251 c-34 -87 -7 -101 200 -101 214 0 273 27 213 98 -36 44
-397 47 -413 3z"/>
</g>
</svg>
