<?xml version="1.0" standalone="no"?>
<!DOCTYPE svg PUBLIC "-//W3C//DTD SVG 20010904//EN"
 "http://www.w3.org/TR/2001/REC-SVG-20010904/DTD/svg10.dtd">
<svg version="1.0" xmlns="http://www.w3.org/2000/svg"
 width="300.000000pt" height="135.000000pt" viewBox="0 0 300.000000 135.000000"
 preserveAspectRatio="xMidYMid meet">
<metadata>
Created by potrace 1.10, written by Peter Selinger 2001-2011
</metadata>
<g transform="translate(0.000000,135.000000) scale(0.050000,-0.050000)"
fill="#000000" stroke="none">
<path d="M956 2581 c-257 -51 -821 -817 -895 -1214 -50 -271 -7 -694 82 -801
16 -18 84 -26 239 -26 126 0 218 -8 218 -19 0 -59 92 -250 146 -304 241 -241
692 -139 851 192 l62 131 766 0 c1198 0 1935 -21 1935 -54 0 -102 209 -361
326 -405 268 -101 603 92 702 404 9 30 38 35 222 35 292 0 361 84 336 410 -36
462 -320 628 -1474 860 -293 58 -329 80 -834 489 -134 109 -289 223 -346 254
l-102 57 -1080 3 c-594 2 -1113 -4 -1154 -12z m264 -129 c0 -5 -76 -167 -170
-362 -137 -285 -165 -361 -149 -392 20 -37 65 -38 1495 -39 1890 0 2023 -5
2344 -81 479 -113 591 -144 697 -191 60 -26 119 -47 132 -47 54 0 236 -281
204 -314 -8 -8 -57 -13 -109 -10 -161 7 -210 -11 -194 -73 19 -77 45 -86 205
-74 l145 10 0 -76 c0 -115 -39 -139 -238 -145 l-168 -4 -45 125 c-182 502
-918 456 -1027 -65 -7 -31 -19 -56 -27 -55 -8 1 -612 1 -1342 1 l-1328 0 -35
95 c-178 484 -868 490 -991 8 l-27 -103 -155 0 c-214 0 -259 75 -260 430 -1
325 87 529 423 978 244 326 291 367 440 377 61 4 126 9 145 11 19 2 35 0 35
-4z m960 -31 c0 -21 26 -140 57 -265 32 -124 63 -255 70 -291 l12 -65 -631 0
-631 0 53 95 c29 52 88 176 129 275 42 99 88 205 102 235 l25 55 407 0 c389 0
407 -2 407 -39z m966 18 c42 -12 150 -79 240 -150 90 -71 268 -208 394 -304
l230 -175 -384 -5 c-211 -3 -561 -3 -778 0 l-395 5 -45 260 c-24 143 -51 289
-59 325 l-14 65 368 0 c202 0 401 -10 443 -21z m1847 -1471 c181 -76 240 -154
260 -344 38 -364 -412 -559 -659 -286 -285 316 14 790 399 630z m-3690 -54
c291 -221 242 -572 -90 -655 -277 -70 -473 80 -473 364 0 289 337 464 563 291z"/>
<path d="M2594 1267 c-27 -27 -14 -86 25 -106 115 -62 353 -8 337 76 -7 35
-331 62 -362 30z"/>
</g>
</svg>
