 <svg  version="1.0" xmlns="http://www.w3.org/2000/svg"  width="300.000000pt" height="300.000000pt" viewBox="0 0 300.000000 300.000000"  preserveAspectRatio="xMidYMid meet">  <g transform="translate(0.000000,300.000000) scale(0.050000,-0.050000)" fill="#ffffff" stroke="none"> <path d="M2760 5530 c-166 -45 -369 -155 -376 -204 -10 -69 53 -72 154 -9 355 224 941 156 1278 -147 138 -125 259 -104 142 24 -247 268 -838 434 -1198 336z"/> <path d="M2910 5188 c-215 -55 -320 -118 -297 -178 15 -40 51 -38 142 10 246 128 610 72 859 -132 94 -77 153 -79 142 -4 -23 158 -602 366 -846 304z"/> <path d="M2990 4841 c-123 -33 -170 -60 -170 -98 0 -54 47 -66 129 -32 138 57 370 17 448 -78 35 -42 100 -43 116 -2 42 109 -335 260 -523 210z"/> <path d="M1930 4509 c-349 -144 -400 -178 -431 -292 -13 -50 -18 -544 -14 -1412 8 -1687 -59 -1523 695 -1702 248 -59 689 -165 980 -236 346 -84 551 -125 590 -117 104 20 674 393 720 471 59 102 63 2709 4 2863 -77 198 -190 256 -614 315 -170 24 -562 84 -870 133 -795 127 -687 130 -1060 -23z m1020 -78 c308 -49 700 -108 870 -131 369 -51 458 -86 532 -211 l51 -87 0 -1344 c0 -1558 30 -1378 -258 -1559 l-185 -116 0 1399 c0 1541 5 1479 -125 1613 -34 35 -90 73 -124 84 -75 25 -1611 281 -1686 281 -30 0 -67 8 -81 17 -37 24 330 165 396 152 28 -5 302 -49 610 -98z m-224 -288 c1032 -169 1030 -169 1099 -304 52 -102 54 -2863 2 -2937 -49 -69 -137 -55 -1137 186 -934 225 -989 243 -1050 343 -55 88 -63 2747 -9 2825 43 61 20 63 1095 -113z"/> <path d="M2570 3962 c-551 -138 -420 -1023 151 -1022 598 1 587 951 -11 1027 -44 5 -107 3 -140 -5z m157 -150 c209 -87 298 -431 165 -633 -131 -197 -378 -164 -504 67 -175 322 45 689 339 566z m340 -402 c1 -67 -9 -138 -23 -160 -24 -38 -25 -37 -13 8 17 60 17 214 1 304 -11 63 -10 64 10 18 13 -27 24 -104 25 -170z"/> <path d="M2172 2562 c-136 -195 -127 -190 -259 -155 -118 30 -161 19 -150 -39 6 -34 180 -97 290 -106 13 -1 67 57 120 129 116 158 108 172 167 -271 58 -426 77 -443 217 -188 48 87 138 248 200 357 l112 200 64 -394 c67 -414 72 -435 118 -435 30 0 36 8 179 257 l96 167 25 -58 c29 -71 278 -155 309 -106 28 45 -1 79 -87 100 -121 30 -141 46 -165 132 -38 138 -97 111 -222 -101 -58 -99 -107 -175 -108 -170 -1 5 -30 189 -65 409 -82 523 -83 524 -308 126 -89 -157 -179 -322 -201 -366 l-40 -80 -11 70 c-6 39 -26 178 -43 310 -17 132 -37 269 -43 305 -19 108 -71 83 -195 -93z"/> </g> </svg> 