 <svg  version="1.0" xmlns="http://www.w3.org/2000/svg"  width="300.000000pt" height="300.000000pt" viewBox="0 0 300.000000 300.000000"  preserveAspectRatio="xMidYMid meet">  <g transform="translate(0.000000,300.000000) scale(0.050000,-0.050000)" fill="#ffffff" stroke="none"> <path d="M2520 5654 c-229 -77 -409 -212 -397 -297 11 -74 65 -66 197 32 407 299 975 203 1404 -236 168 -173 278 -107 128 76 -305 372 -917 567 -1332 425z"/> <path d="M2670 5272 c-204 -65 -378 -203 -337 -268 35 -56 79 -50 174 23 276 211 657 152 956 -147 129 -129 163 -143 197 -80 29 55 5 94 -139 225 -251 227 -597 327 -851 247z"/> <path d="M2695 4846 c-101 -56 -133 -110 -94 -157 33 -40 71 -36 137 12 136 101 347 67 512 -84 105 -97 154 -109 178 -44 17 43 -15 92 -119 183 -172 152 -434 191 -614 90z"/> <path d="M1865 4352 c-394 -196 -447 -236 -486 -370 -14 -48 -19 -540 -15 -1485 l6 -1414 61 -86 c120 -171 77 -156 1279 -469 978 -254 1021 -261 1153 -182 155 93 643 501 706 591 l61 86 0 1414 0 1413 -58 105 c-97 175 -188 229 -476 284 -630 121 -1688 301 -1764 301 -71 0 -161 -36 -467 -188z m1032 -33 c1488 -262 1401 -242 1497 -342 107 -112 118 -170 40 -210 -35 -18 -147 -85 -249 -149 -105 -66 -185 -105 -185 -91 0 54 -122 206 -200 250 -69 39 -1188 276 -1869 396 l-99 17 229 114 c277 137 158 135 836 15z m-209 -428 c1131 -222 1123 -219 1179 -378 23 -65 17 -2949 -7 -2992 -74 -140 -70 -141 -1175 150 -1058 279 -1066 282 -1142 396 l-53 80 -6 1332 c-7 1458 -6 1474 70 1549 72 72 54 75 1134 -137z m1790 -2855 c-12 -30 -71 -96 -130 -145 -59 -50 -157 -133 -218 -183 l-110 -93 0 1378 0 1377 235 143 235 142 5 -1282 c4 -914 -1 -1299 -17 -1337z"/> <path d="M2240 3319 c-248 -32 -584 -244 -528 -333 34 -54 84 -78 114 -56 475 357 1040 271 1495 -227 148 -161 188 -186 235 -139 47 47 25 121 -70 232 -330 386 -793 581 -1246 523z"/> <path d="M2186 2904 c-179 -64 -269 -136 -262 -208 9 -87 61 -116 131 -71 383 243 743 173 1050 -204 107 -131 215 -135 215 -6 0 82 -283 346 -468 437 -197 96 -479 118 -666 52z"/> <path d="M2324 2552 c-186 -61 -267 -167 -184 -242 39 -35 44 -35 163 27 215 110 421 53 567 -157 83 -119 190 -123 190 -6 0 219 -474 463 -736 378z"/> <path d="M2442 2172 c-196 -109 -76 -432 161 -432 148 0 223 174 137 315 -74 122 -200 171 -298 117z"/> </g> </svg> 