 <svg  version="1.0" xmlns="http://www.w3.org/2000/svg"  width="300.000000pt" height="300.000000pt" viewBox="0 0 300.000000 300.000000"  preserveAspectRatio="xMidYMid meet">  <g transform="translate(0.000000,300.000000) scale(0.050000,-0.050000)" fill="#ffffff" stroke="none"> <path d="M1344 5448 c-276 -165 -398 -250 -425 -295 -54 -89 -61 -3361 -7 -3518 51 -150 163 -257 413 -397 124 -68 511 -286 861 -483 494 -279 648 -357 690 -351 123 20 883 550 926 645 38 86 39 139 33 1785 l-5 1696 -53 100 c-91 171 -149 208 -1013 638 -1032 515 -892 497 -1420 180z m1382 -310 c901 -449 919 -461 973 -679 37 -146 20 -3342 -18 -3387 -22 -28 -290 -212 -307 -212 -2 0 -4 754 -4 1675 l0 1675 -54 102 c-85 161 -144 199 -1012 640 -451 230 -817 423 -812 431 7 12 200 128 268 161 66 33 182 -16 966 -406z m-497 -258 c901 -462 927 -478 990 -608 39 -80 40 -135 45 -1785 l6 -1702 -110 -72 -110 -72 -10 1655 -10 1654 -46 102 c-85 187 -153 233 -1024 689 -445 233 -813 426 -816 429 -3 3 46 38 110 77 64 40 116 72 116 72 1 1 387 -197 859 -439z m-280 -279 c801 -424 836 -447 913 -597 l48 -94 0 -1680 c0 -1572 -2 -1680 -34 -1686 -19 -4 -402 198 -850 448 -865 482 -955 545 -1002 701 -25 86 -37 3310 -12 3375 10 27 23 25 95 -17 46 -26 425 -229 842 -450z"/> <path d="M1460 4316 c-175 -90 -260 -298 -260 -636 0 -610 411 -1059 1001 -1095 330 -20 438 82 438 415 2 775 -703 1562 -1179 1316z m412 -146 c321 -157 611 -656 642 -1107 l12 -169 -188 15 c-703 52 -1019 294 -1018 777 1 476 204 653 552 484z m-111 -1276 c175 -87 373 -133 568 -134 167 0 157 -41 -13 -55 -212 -18 -521 85 -686 227 -70 60 -67 60 131 -38z"/> <path d="M4232 3906 c-311 -182 -282 -57 -282 -1234 l0 -1005 54 -81 c61 -93 386 -293 474 -292 86 0 476 243 512 318 36 77 45 1862 10 1990 -37 131 -102 200 -286 302 -250 138 -249 138 -482 2z m603 -245 l45 -67 -5 -972 -5 -971 -130 -86 c-71 -46 -137 -85 -145 -85 -8 0 -15 416 -15 925 -1 1114 5 1092 -305 1255 -120 63 -122 56 50 155 l145 83 160 -85 c103 -55 176 -109 205 -152z m-584 -126 c222 -136 209 -65 209 -1170 0 -520 -4 -945 -8 -945 -25 0 -291 166 -324 202 -44 49 -81 1998 -37 1998 11 0 83 -38 160 -85z"/> </g> </svg> 