<?xml version="1.0" standalone="no"?>
<!DOCTYPE svg PUBLIC "-//W3C//DTD SVG 20010904//EN"
 "http://www.w3.org/TR/2001/REC-SVG-20010904/DTD/svg10.dtd">
<svg version="1.0" xmlns="http://www.w3.org/2000/svg"
 width="300.000000pt" height="300.000000pt" viewBox="0 0 300.000000 300.000000"
 preserveAspectRatio="xMidYMid meet">
<metadata>
Created by potrace 1.10, written by Peter Selinger 2001-2011
</metadata>
<g transform="translate(0.000000,300.000000) scale(0.050000,-0.050000)"
fill="#ffffff" stroke="none">
<path d="M2487 5158 c-257 -43 -554 -220 -484 -289 23 -23 46 -14 144 52 301
203 725 203 1026 0 101 -68 121 -75 146 -51 40 41 -8 89 -180 179 -208 109
-430 146 -652 109z"/>
<path d="M2417 4842 c-119 -47 -217 -116 -217 -154 0 -52 53 -52 131 1 196
133 452 137 655 11 152 -94 228 -33 79 64 -187 122 -453 154 -648 78z"/>
<path d="M3588 4632 l-68 -68 0 -223 c0 -204 -3 -223 -35 -213 -19 6 -224 20
-455 32 -231 12 -528 30 -660 41 -449 34 -509 29 -744 -64 -293 -117 -403
-188 -460 -295 l-46 -88 0 -1122 c1 -1256 -3 -1215 145 -1345 94 -82 162 -101
415 -117 116 -6 630 -43 1143 -81 1274 -94 1212 -98 1537 103 377 233 359 159
359 1458 l1 1060 -47 101 c-94 202 -230 276 -548 299 l-185 14 0 220 0 220
-68 68 c-53 53 -85 68 -142 68 -57 0 -89 -15 -142 -68z m228 -57 c11 -14 23
-142 27 -284 l7 -259 -67 -19 c-41 -12 -86 -13 -119 -1 l-53 19 6 259 c6 283
17 310 124 310 30 0 63 -11 75 -25z m-886 -504 c275 -17 515 -30 534 -31 18 0
39 -17 45 -38 32 -101 431 -108 431 -8 0 46 352 21 459 -33 230 -118 231 -123
230 -1331 -1 -1192 2 -1179 -301 -1353 l-58 -33 6 1113 c5 798 0 1136 -17
1193 -52 181 -198 289 -408 303 -67 5 -440 26 -831 47 -1246 69 -1470 82
-1490 88 -10 3 53 34 140 69 l160 64 300 -10 c165 -6 525 -24 800 -40z m-930
-211 c204 -11 514 -29 690 -39 176 -11 526 -29 778 -41 552 -27 647 -61 698
-250 37 -138 35 -2182 -2 -2249 -82 -150 -183 -182 -485 -159 -115 9 -659 48
-1209 87 -1130 81 -1134 81 -1211 233 -63 123 -65 2274 -3 2357 48 63 166 101
284 89 50 -4 257 -17 460 -28z"/>
<path d="M1537 3530 c-75 -41 -82 -71 -78 -348 4 -372 -22 -354 566 -392 777
-51 735 -69 735 331 l0 262 -58 59 c-33 32 -80 58 -105 58 -61 0 -687 36 -867
49 -102 8 -154 3 -193 -19z m398 -211 c57 4 304 -8 529 -25 19 -1 45 -28 58
-59 45 -110 -19 -310 -80 -249 -18 18 -28 17 -40 -3 -10 -17 -22 -19 -29 -7
-7 10 -64 21 -128 22 -63 2 -169 6 -235 9 -66 3 -136 -2 -155 -11 -23 -12 -35
-9 -35 7 0 13 -6 18 -13 11 -7 -8 -25 -4 -40 9 -15 12 -27 14 -27 5 0 -38 -56
67 -60 112 -10 116 -1 164 30 153 19 -7 30 0 30 19 0 24 17 27 85 18 47 -7 96
-12 110 -11z"/>
<path d="M3060 3224 c0 -57 17 -59 465 -75 389 -14 395 -13 395 27 0 54 -32
59 -485 75 -369 14 -375 13 -375 -27z"/>
<path d="M3074 2987 c-13 -13 -20 -85 -9 -89 29 -9 811 -50 830 -43 14 5 25
26 25 46 0 45 -54 53 -470 69 -165 7 -314 16 -331 21 -18 5 -38 3 -45 -4z"/>
<path d="M3080 2703 c-39 -13 -20 -82 25 -92 158 -34 605 -20 605 19 0 37
-548 101 -630 73z"/>
<path d="M1574 2560 c-71 -57 -74 -154 -5 -219 95 -89 231 -36 231 90 0 132
-129 205 -226 129z"/>
<path d="M2057 2556 c-106 -36 -114 -194 -14 -264 64 -45 111 -40 168 17 113
113 -2 298 -154 247z"/>
<path d="M2460 2500 c-56 -56 -52 -150 9 -211 136 -135 309 46 190 198 -51 65
-141 71 -199 13z"/>
<path d="M1560 2100 c-56 -56 -52 -150 9 -211 94 -94 231 -37 231 98 0 129
-152 201 -240 113z"/>
<path d="M2034 2098 c-59 -35 -78 -111 -45 -188 67 -161 305 -89 263 79 -27
109 -130 160 -218 109z"/>
<path d="M2471 2053 c-63 -64 -65 -134 -5 -204 87 -101 234 -49 234 82 0 137
-140 211 -229 122z"/>
<path d="M2499 4555 c-60 -30 -91 -60 -95 -90 -8 -57 33 -59 121 -5 86 53 198
51 295 -5 95 -55 155 -26 92 43 -96 106 -268 130 -413 57z"/>
</g>
</svg>
